<svg width="440" height="441" viewBox="0 0 440 441" fill="none" xmlns="http://www.w3.org/2000/svg">
<g clip-path="url(#clip0_810_1680)">
<rect width="440" height="440" transform="translate(0 0.5)" fill="white"/>
<g filter="url(#filter0_i_810_1680)">
<path d="M291.051 256.857L284.422 259.396L220.051 280.995L142.635 252.432L114.94 243.191L93.4767 236.028C91.3503 235.318 91.2637 232.343 93.3452 231.511L148.228 209.571L220.051 181.633L315.81 218.124L345.656 231.572C347.608 232.451 347.526 235.25 345.526 236.014L317.356 246.779L312.651 248.582L305.115 251.423L296.825 254.645L291.051 256.857Z" fill="white"/>
</g>
<path d="M220.051 280.995L142.635 252.432L114.94 243.191L93.4767 236.028C91.3503 235.318 91.2637 232.343 93.3452 231.511L148.228 209.571L220.051 181.633M220.051 280.995L284.422 259.396L291.051 256.857L296.825 254.645L305.115 251.423L312.651 248.582L317.356 246.779L345.526 236.014C347.526 235.25 347.608 232.451 345.656 231.572L315.81 218.124L220.051 181.633M220.051 280.995V181.633" stroke="#164879" stroke-width="3.60982"/>
<path d="M232.212 -166.64C231.744 -168.26 232.653 -169.427 233.166 -169.808C233.721 -173.403 233.591 -176.827 233.456 -180.311L207.506 -184.667L204.587 -134.853L186.823 -34.9136L308.424 -7.83504L304.605 -61.5616L302.929 -168.713L303.683 -169.505L304.393 -170.251L304.139 -174.483L307.268 -175.075L311.392 -175.368L314.846 -177.238L283.225 -182.685L279.198 -183.379C279.708 -187.61 278.553 -197.128 269.855 -201.353C274.457 -198.373 273.348 -174.829 272.219 -163.43C273.8 -163.985 274.563 -157.396 270.951 -158.468C267.542 -159.48 269.44 -162.445 270.606 -163.316C270.897 -167.346 271.057 -170.937 271.113 -174.129L267.145 -174.696L255.217 -176.69L244.337 -178.501L235.829 -180.023C235.182 -174.59 234.905 -170.17 235.218 -169.954C235.993 -169.418 236.788 -168.589 236.757 -166.963C236.725 -165.336 234.547 -164.886 234.254 -164.866C233.961 -164.845 232.798 -164.614 232.212 -166.64Z" fill="white"/>
<path d="M303.683 -169.505L302.929 -168.713L304.605 -61.5616L308.424 -7.83504L312.924 -28.0926L304.393 -170.251L303.683 -169.505Z" fill="#B1C2D3"/>
<path d="M304.139 -174.483L304.437 -170.297L304.393 -170.251L312.924 -28.0926L321.815 -28.7246L307.268 -175.075L304.139 -174.483Z" fill="#B1C2D3"/>
<path d="M311.392 -175.368L307.268 -175.075L321.815 -28.7246L328.608 -29.2074L319.194 -116.066L311.392 -175.368Z" fill="#B1C2D3"/>
<path d="M314.846 -177.238L311.392 -175.368L319.194 -116.066L328.608 -29.2074L332.464 -29.4815L322.33 -117.533L319.872 -137.142L314.846 -177.238Z" fill="#B1C2D3"/>
<path d="M372.367 -325.568L313.431 -275.907L315.109 -273.664M344.362 -234.552L420.042 -291.161M344.362 -234.552L342.289 -232.633L337.578 -238.794M344.362 -234.552L339.641 -240.864M337.578 -238.794L339.641 -240.864M337.578 -238.794L332.332 -235.912L327.914 -240.031M339.641 -240.864L315.109 -273.664M327.914 -240.031L330.856 -241.712M327.914 -240.031C325.391 -239.604 318.912 -236.936 313.181 -229.678C311.278 -228.116 306.112 -224.658 300.668 -223.326C295.424 -222.043 295.538 -221.667 291.321 -220.091M332.019 -240.322L330.856 -241.712M315.109 -273.664L308.351 -268.607L310.605 -265.913M330.856 -241.712L310.605 -265.913M272.232 -231.64C272.259 -231.407 272.275 -231.177 272.281 -230.95M257.994 -239.191C257.942 -237.473 258.306 -234.434 259.81 -232.528M272.281 -230.95C272.342 -228.659 271.397 -226.687 270.87 -225.933C269.105 -223.853 265.697 -219.769 263.277 -216.681M272.281 -230.95C267.876 -232.593 266.977 -231.115 264.779 -230.788M264.779 -230.788C264.108 -230.688 263.315 -230.695 262.264 -230.931C261.225 -231.165 260.423 -231.753 259.81 -232.528M264.779 -230.788C264.925 -229.429 264.969 -226.458 263.98 -225.443C262.745 -224.174 261.791 -218.935 263.277 -216.681M263.277 -216.681C262.666 -215.901 262.119 -215.185 261.676 -214.58M259.81 -232.528C259.651 -231.238 258.371 -227.672 254.525 -223.738L255.183 -214.483M255.183 -214.483C252.628 -213.947 246.896 -210.863 244.349 -209.388M255.183 -214.483C256.73 -214.99 260.195 -215.719 261.676 -214.58M310.605 -265.913C307.026 -263.066 296.574 -257.287 283.398 -256.941C266.929 -256.509 268.427 -260.306 261.798 -256.144C255.17 -251.982 244.443 -226.712 244.045 -224.026C243.726 -221.877 244.105 -213.499 244.335 -209.578L244.349 -209.388M274.371 -207.727C275.928 -205.869 279.426 -202.151 280.958 -202.142C282.874 -202.13 288.544 -203.272 285.567 -209.851M274.371 -207.727C276.431 -210.47 278.638 -213.1 280.921 -215.099M274.371 -207.727C273.683 -206.812 273.012 -205.884 272.36 -204.963M285.567 -209.851C284.378 -210.681 281.785 -212.892 280.921 -215.099M285.567 -209.851C287.633 -209.112 292.079 -208.188 293.336 -210.404C294.593 -212.619 292.517 -217.785 291.321 -220.091M280.921 -215.099C282.63 -216.595 284.381 -217.737 286.144 -218.308C288.425 -219.046 290.065 -219.622 291.321 -220.091M207.506 -184.667L216.752 -187.244L213.622 -191.893L225.056 -192.706L233.71 -191.164M207.506 -184.667L204.587 -134.853L186.823 -34.9136L308.424 -7.83504M207.506 -184.667L233.456 -180.311C233.591 -176.827 233.721 -173.403 233.166 -169.808M314.846 -177.238L283.225 -182.685M314.846 -177.238L311.392 -175.368M314.846 -177.238L319.872 -137.142L322.33 -117.533L332.464 -29.4815L328.608 -29.2074M302.929 -168.713L303.683 -169.505L304.393 -170.251M302.929 -168.713L279.073 -172.702L272.977 -173.819M302.929 -168.713L304.605 -61.5616L308.424 -7.83504M233.166 -169.808C232.653 -169.427 231.744 -168.26 232.212 -166.64C232.798 -164.614 233.961 -164.845 234.254 -164.866C234.547 -164.886 236.725 -165.336 236.757 -166.963C236.788 -168.589 235.993 -169.418 235.218 -169.954C234.905 -170.17 235.182 -174.59 235.829 -180.023M233.166 -169.808C234.78 -180.257 230.604 -189.262 237.326 -202.473C239.172 -206.1 241.67 -208.239 244.349 -209.388M256.369 -203.052C255.887 -201.486 255.473 -199.908 255.149 -198.388C253.933 -192.691 259.095 -192.615 262.885 -193.18C263.916 -193.334 265.373 -195.026 267.147 -197.473M256.369 -203.052C256.709 -203.42 256.331 -204.555 252.093 -206.143C250.976 -206.562 249.939 -206.678 248.969 -206.566M256.369 -203.052C256.959 -204.969 257.65 -206.867 258.399 -208.615M267.147 -197.473C269.066 -196.723 272.446 -188.84 270.606 -163.316M267.147 -197.473C267.983 -198.626 268.889 -199.947 269.855 -201.353M270.606 -163.316C269.44 -162.445 267.542 -159.48 270.951 -158.468C274.563 -157.396 273.8 -163.985 272.219 -163.43C273.348 -174.829 274.457 -198.373 269.855 -201.353M270.606 -163.316C270.897 -167.346 271.057 -170.937 271.113 -174.129L267.145 -174.696L255.217 -176.69L244.337 -178.501L235.829 -180.023M269.855 -201.353C278.553 -197.128 279.708 -187.61 279.198 -183.379M269.855 -201.353C270.652 -202.513 271.489 -203.732 272.36 -204.963M279.198 -183.379L283.225 -182.685M279.198 -183.379L273.204 -184.465M283.225 -182.685C283.272 -188.169 281.164 -200.303 272.36 -204.963M258.399 -208.615C257.103 -209.254 255.356 -209.871 253.391 -210.222M258.399 -208.615C258.891 -209.762 259.409 -210.843 259.939 -211.823M240.269 -190.085C240.663 -193.796 242.934 -203.544 243.538 -204.207M240.269 -190.085L244.147 -189.417M240.269 -190.085L237.398 -190.483M243.538 -204.207C242.271 -203.378 241.073 -201.199 240.417 -200.441C238.55 -198.284 236.785 -188.049 235.829 -180.023M243.538 -204.207C244.632 -205.405 246.303 -206.259 248.969 -206.566M244.147 -189.417C244.321 -194.572 245.529 -205.219 248.969 -206.566M244.147 -189.417L261.673 -186.398L270.847 -184.888M244.349 -209.388C247.358 -210.679 250.595 -210.721 253.391 -210.222M261.676 -214.58C261.576 -214.443 261.481 -214.311 261.392 -214.186C260.903 -213.498 260.416 -212.702 259.939 -211.823M253.391 -210.222C254.587 -210.818 257.571 -211.972 259.939 -211.823M304.139 -174.483L304.437 -170.297L304.393 -170.251M304.139 -174.483L307.268 -175.075M304.139 -174.483L304.393 -170.251M307.268 -175.075L311.392 -175.368M307.268 -175.075L321.815 -28.7246M311.392 -175.368L319.194 -116.066L328.608 -29.2074M235.775 -180.033L235.829 -180.023M308.424 -7.83504L312.924 -28.0926M328.608 -29.2074L321.815 -28.7246M321.815 -28.7246L312.924 -28.0926M312.924 -28.0926L304.393 -170.251" stroke="#164879" stroke-width="2.77115"/>
<g filter="url(#filter1_b_810_1680)">
<path d="M291.051 256.857L284.421 259.397L220.854 280.725C220.334 280.9 219.77 280.891 219.255 280.702L142.634 252.433L114.94 243.191L90.4139 235.007C88.8555 234.486 87.2456 235.646 87.2456 237.289V383.462C87.2456 384.469 87.8723 385.369 88.8164 385.719L219.212 434.011C219.753 434.211 220.348 434.21 220.888 434.009L350.422 385.725C351.369 385.372 351.995 384.464 351.988 383.453L350.955 237.419C350.943 235.739 349.258 234.588 347.69 235.188L317.355 246.78L312.65 248.582L305.114 251.424L296.825 254.645L291.051 256.857Z" fill="white" fill-opacity="0.5"/>
<path d="M291.051 256.857L284.421 259.397L220.854 280.725C220.334 280.9 219.77 280.891 219.255 280.702L142.634 252.433L114.94 243.191L90.4139 235.007C88.8555 234.486 87.2456 235.646 87.2456 237.289V383.462C87.2456 384.469 87.8723 385.369 88.8164 385.719L219.212 434.011C219.753 434.211 220.348 434.21 220.888 434.009L350.422 385.725C351.369 385.372 351.995 384.464 351.988 383.453L350.955 237.419C350.943 235.739 349.258 234.588 347.69 235.188L317.355 246.78L312.65 248.582L305.114 251.424L296.825 254.645L291.051 256.857Z" stroke="#164879" stroke-width="3.60982"/>
</g>
<g filter="url(#filter2_d_810_1680)">
<path d="M144.649 313.088C144.649 313.088 144.65 313.086 144.651 313.086C145.326 312.623 146.11 312.362 146.985 312.308C147.83 312.255 148.724 312.399 149.642 312.733C150.56 313.067 151.454 313.574 152.299 314.242C153.172 314.931 153.956 315.763 154.63 316.715L156.214 315.629C152.583 310.498 146.697 308.357 143.068 310.846C143.068 310.846 143.066 310.847 143.065 310.848L144.65 313.088L144.649 313.088Z" fill="#FF0079"/>
<path d="M148.034 317.868C148.034 317.868 148.032 317.869 148.031 317.87L149.637 320.139L151.247 319.035C150.359 317.783 148.921 317.26 148.033 317.868L148.034 317.868Z" fill="#FF0079"/>
<path d="M145.53 314.329C145.53 314.329 145.529 314.33 145.528 314.331L147.112 316.57C147.112 316.57 147.114 316.569 147.115 316.569C147.79 316.106 148.687 316.042 149.642 316.39C150.596 316.737 151.491 317.452 152.166 318.404L153.751 317.318C151.48 314.111 147.801 312.773 145.531 314.329L145.53 314.329Z" fill="#FF0079"/>
<path d="M141.273 339.802L142.851 340.376C143.64 340.663 144.429 340.958 145.218 341.232C145.427 341.304 145.572 341.428 145.724 341.629C146.831 343.082 148.137 344.13 149.626 344.666C152.553 345.72 154.748 344.377 155.295 341.931C155.485 341.079 155.412 340.122 155.426 339.187C155.271 339.144 155.198 339.218 155.111 339.251C153.586 339.843 151.892 339.84 150.013 339.247C145.554 337.839 141.43 333.08 140.502 327.919C140.391 327.298 140.336 326.689 140.336 326.095C140.34 323.112 140.338 320.129 140.338 317.145C140.338 317.098 140.337 317.05 140.338 317.003C140.344 316.749 140.345 316.742 140.576 316.826C141.59 317.193 142.605 317.567 143.62 317.931C143.787 317.992 143.875 318.066 143.857 318.254C143.846 318.379 143.856 318.514 143.856 318.644C143.856 321.497 143.872 324.357 143.851 327.202C143.83 330.019 145.713 333.254 148.393 334.828C151.782 336.818 154.72 335.527 155.306 332.612C155.387 332.21 155.427 331.791 155.427 331.35C155.424 328.497 155.426 325.643 155.426 322.79C155.426 322.719 155.426 322.649 155.426 322.578C155.424 322.193 155.42 322.228 155.755 322.35C156.724 322.703 157.694 323.055 158.663 323.409C158.939 323.509 158.942 323.515 158.943 323.804C158.945 325.331 158.943 326.858 158.943 328.385C158.943 332.92 158.943 337.454 158.943 341.988C158.943 346.389 156.101 349.245 152.052 348.913C147.899 348.573 143.473 344.953 141.438 340.232C141.387 340.111 141.344 339.989 141.272 339.801L141.273 339.802Z" fill="#164879"/>
<path d="M170.212 342.127C170.285 342.182 170.319 342.258 170.358 342.33C170.94 343.429 171.522 344.527 172.102 345.625C172.247 345.9 172.247 345.907 172.03 345.971C171.088 346.249 170.066 346.245 168.952 345.923C167.977 345.641 167.042 345.139 166.162 344.369C164.743 343.126 163.9 341.601 163.493 339.878C163.335 339.213 163.273 338.569 163.274 337.938C163.277 335.063 163.275 332.186 163.275 329.31C163.275 329.239 163.275 329.168 163.275 329.097C163.271 328.79 163.271 328.788 162.976 328.679C162.604 328.542 162.232 328.403 161.86 328.274C161.719 328.224 161.66 328.157 161.66 327.999C161.664 326.9 161.664 325.799 161.66 324.697C161.66 324.536 161.725 324.52 161.864 324.572C162.248 324.717 162.631 324.856 163.013 324.991C163.269 325.082 163.273 325.079 163.273 324.808C163.275 323.246 163.273 321.683 163.275 320.121C163.275 319.618 163.223 319.665 163.683 319.83C164.607 320.164 165.532 320.501 166.455 320.839C166.789 320.961 166.791 320.963 166.791 321.302C166.791 322.829 166.791 324.356 166.791 325.883C166.791 325.954 166.791 326.025 166.791 326.096C166.797 326.362 166.798 326.367 167.056 326.461C168.319 326.923 169.582 327.38 170.844 327.84C170.923 327.868 171.002 327.9 171.081 327.926C171.191 327.962 171.25 328.031 171.248 328.151C171.246 328.234 171.248 328.317 171.248 328.4C171.248 329.359 171.249 330.318 171.248 331.276C171.248 331.733 171.289 331.7 170.842 331.538C169.625 331.097 168.407 330.652 167.189 330.209C167.11 330.18 167.031 330.155 166.952 330.122C166.837 330.075 166.787 330.112 166.791 330.232C166.793 330.316 166.791 330.398 166.791 330.481C166.791 333.346 166.791 336.21 166.791 339.075C166.791 339.502 166.806 339.931 166.936 340.389C167.149 341.138 167.602 341.65 168.259 341.957C168.911 342.261 169.509 342.297 170.067 342.154C170.115 342.141 170.165 342.133 170.21 342.122L170.212 342.127Z" fill="#164879"/>
<path d="M210.882 349.403C209.804 344.293 205.517 339.41 200.72 338.27C198.583 337.762 196.734 338.017 195.241 339.087C192.964 340.72 192.103 343.364 192.709 346.965C193.456 351.405 196.923 356.162 201.48 358.013C203.609 358.877 205.551 358.951 207.289 358.279C207.377 358.245 207.467 358.212 207.549 358.182C207.628 358.268 207.608 358.324 207.609 358.379C207.61 358.888 207.618 359.401 207.607 359.905C207.578 361.085 207.249 362.062 206.59 362.79C205.324 364.188 203.583 364.436 201.415 363.522C200.089 362.963 198.928 361.983 197.946 360.686C197.763 360.445 197.586 360.308 197.345 360.231C196.962 360.109 196.579 359.957 196.195 359.817L193.503 358.837C193.51 359.021 193.592 359.154 193.649 359.287C195.543 363.649 199.635 367.275 203.719 367.877C207.973 368.505 211.125 365.643 211.129 361.083C211.133 357.935 211.129 354.785 211.13 351.636C211.13 350.911 211.044 350.165 210.884 349.403L210.882 349.403ZM201.811 354.403C198.875 353.393 196.043 349.812 196.043 346.224C196.043 343.056 198.414 341.045 201.809 342.267C205.257 343.508 207.627 347.33 207.613 350.468C207.598 353.924 204.854 355.579 201.811 354.402V354.403Z" fill="#164879"/>
<path d="M116.684 316.124C116.416 313.809 115.533 311.571 114.008 309.471C111.593 306.145 108.696 304.209 105.419 303.755C101.368 303.194 98.1993 305.8 98.1581 310.473C98.1045 316.492 98.1449 322.545 98.1458 328.584C98.1458 328.916 98.1484 328.92 98.4573 329.034C99.4268 329.388 100.396 329.741 101.366 330.092C101.659 330.199 101.66 330.195 101.663 329.889C101.663 329.818 101.663 329.747 101.663 329.676V319.56C101.841 319.757 101.96 319.887 102.079 320.017C104.287 322.43 106.725 323.86 109.346 324.25C114.049 324.949 117.305 321.484 116.685 316.124L116.684 316.124ZM107.436 320.052C104.578 319.068 101.69 315.584 101.673 311.907C101.658 308.562 104.158 306.728 107.44 307.919C111.03 309.221 113.275 313.169 113.243 316.155C113.208 319.469 110.535 321.249 107.436 320.052Z" fill="#164879"/>
<path d="M190.743 353.345C190.736 353.273 190.742 353.203 190.742 353.132C190.742 350.197 190.746 347.261 190.739 344.323C190.738 343.504 190.636 342.658 190.442 341.793C189.315 336.781 185.079 331.976 180.321 330.846C178.171 330.335 176.318 330.6 174.818 331.681C172.599 333.28 171.747 335.862 172.28 339.361C172.965 343.855 176.471 348.736 181.121 350.605C183.251 351.461 185.19 351.526 186.923 350.842C187.002 350.811 187.067 350.744 187.224 350.79C187.224 351.226 187.232 351.642 187.22 352.05C187.215 352.235 187.277 352.316 187.452 352.377C187.982 352.561 188.512 352.76 189.042 352.953C189.537 353.133 190.034 353.309 190.53 353.496C190.689 353.556 190.761 353.524 190.743 353.346V353.345ZM181.426 346.983C178.292 345.897 175.648 342.152 175.643 338.812C175.639 335.85 177.863 333.557 181.433 334.85C184.71 336.039 187.224 339.69 187.213 343.029C187.201 346.764 184.246 348.084 181.426 346.982V346.983Z" fill="#164879"/>
<path d="M137.182 333.844C137.173 333.758 137.181 333.677 137.181 333.594C137.181 330.682 137.177 327.769 137.182 324.859C137.185 323.281 136.847 321.666 136.159 320.013C134.291 315.535 130.28 311.866 126.069 311.212C120.997 310.424 117.755 314.408 118.753 320.048C119.539 324.494 122.974 329.246 127.531 331.095C129.673 331.965 131.623 332.036 133.367 331.351C133.446 331.319 133.511 331.257 133.662 331.29C133.662 331.722 133.66 332.122 133.663 332.526C133.665 332.783 133.669 332.793 133.902 332.878C134.916 333.25 135.93 333.615 136.946 333.989C137.11 334.049 137.206 334.048 137.182 333.842V333.844ZM127.886 327.495C124.935 326.49 122.107 322.907 122.096 319.33C122.085 316.136 124.481 314.123 127.874 315.356C131.337 316.614 133.67 320.427 133.665 323.529C133.66 327.03 130.891 328.649 127.885 327.493L127.886 327.495Z" fill="#164879"/>
</g>
</g>
<defs>
<filter id="filter0_i_810_1680" x="90.0269" y="168.236" width="258.852" height="114.672" filterUnits="userSpaceOnUse" color-interpolation-filters="sRGB">
<feFlood flood-opacity="0" result="BackgroundImageFix"/>
<feBlend mode="normal" in="SourceGraphic" in2="BackgroundImageFix" result="shape"/>
<feColorMatrix in="SourceAlpha" type="matrix" values="0 0 0 0 0 0 0 0 0 0 0 0 0 0 0 0 0 0 127 0" result="hardAlpha"/>
<feOffset dy="-11.4632"/>
<feGaussianBlur stdDeviation="15.5231"/>
<feComposite in2="hardAlpha" operator="arithmetic" k2="-1" k3="1"/>
<feColorMatrix type="matrix" values="0 0 0 0 0 0 0 0 0 0 0 0 0 0 0 0 0 0 0.25 0"/>
<feBlend mode="normal" in2="shape" result="effect1_innerShadow_810_1680"/>
</filter>
<filter id="filter1_b_810_1680" x="75.8147" y="223.449" width="287.604" height="222.143" filterUnits="userSpaceOnUse" color-interpolation-filters="sRGB">
<feFlood flood-opacity="0" result="BackgroundImageFix"/>
<feGaussianBlur in="BackgroundImageFix" stdDeviation="4.81309"/>
<feComposite in2="SourceAlpha" operator="in" result="effect1_backgroundBlur_810_1680"/>
<feBlend mode="normal" in="SourceGraphic" in2="effect1_backgroundBlur_810_1680" result="shape"/>
</filter>
<filter id="filter2_d_810_1680" x="54.5167" y="244.56" width="200.224" height="192.538" filterUnits="userSpaceOnUse" color-interpolation-filters="sRGB">
<feFlood flood-opacity="0" result="BackgroundImageFix"/>
<feColorMatrix in="SourceAlpha" type="matrix" values="0 0 0 0 0 0 0 0 0 0 0 0 0 0 0 0 0 0 127 0" result="hardAlpha"/>
<feOffset dy="9.62618"/>
<feGaussianBlur stdDeviation="7.9416"/>
<feComposite in2="hardAlpha" operator="out"/>
<feColorMatrix type="matrix" values="0 0 0 0 0 0 0 0 0 0 0 0 0 0 0 0 0 0 0.25 0"/>
<feBlend mode="normal" in2="BackgroundImageFix" result="effect1_dropShadow_810_1680"/>
<feBlend mode="normal" in="SourceGraphic" in2="effect1_dropShadow_810_1680" result="shape"/>
</filter>
<clipPath id="clip0_810_1680">
<rect width="440" height="440" fill="white" transform="translate(0 0.5)"/>
</clipPath>
</defs>
</svg>
