<svg width="40" height="40" viewBox="0 0 40 40" fill="none" xmlns="http://www.w3.org/2000/svg">
<rect width="40" height="40" rx="12" fill="#164879" fill-opacity="0.1"/>
<path opacity="0.4" d="M18 14C18 13.4477 18.4477 13 19 13H23.5C26.5376 13 29 15.4624 29 18.5C29 21.5376 26.5376 24 23.5 24H16L16 22H23.5C25.433 22 27 20.433 27 18.5C27 16.567 25.433 15 23.5 15H19C18.4477 15 18 14.5523 18 14Z" fill="#164879"/>
<path d="M15.4511 19.1075C15.7877 19.2776 16 19.6227 16 20L16 26C16 26.3772 15.7877 26.7223 15.4511 26.8924C15.1145 27.0626 14.7107 27.0288 14.407 26.8052L14.3962 26.7972L14.3688 26.7768C14.3452 26.7592 14.3112 26.7338 14.2684 26.7014C14.1828 26.6368 14.0614 26.5442 13.916 26.4307C13.6264 26.2047 13.2369 25.8923 12.8444 25.5515C12.4569 25.2151 12.0436 24.8314 11.7194 24.4644C11.5582 24.282 11.3979 24.0802 11.2725 23.8721C11.1636 23.6915 11 23.3773 11 23C11 22.6227 11.1636 22.3085 11.2725 22.1278C11.3979 21.9197 11.5583 21.7179 11.7194 21.5356C12.0436 21.1686 12.4569 20.7849 12.8444 20.4484C13.2368 20.1077 13.6264 19.7952 13.916 19.5692C14.0613 19.4558 14.1827 19.3631 14.2684 19.2985C14.3112 19.2661 14.3451 19.2407 14.3687 19.2232L14.3961 19.2028L14.4037 19.1972L14.4068 19.1949C14.7105 18.9712 15.1144 18.9373 15.4511 19.1075Z" fill="#164879"/>
</svg>
