<svg width="24" height="24" viewBox="0 0 24 24" fill="none" xmlns="http://www.w3.org/2000/svg">
<path d="M19.0567 7H4.94329C4.77137 7.00096 4.60562 7.07657 4.47704 7.21268C4.34845 7.34879 4.26583 7.5361 4.2446 7.73958L3.00444 21.0729C2.99341 21.1891 3.003 21.3067 3.03258 21.4182C3.06217 21.5297 3.11108 21.6324 3.17616 21.7199C3.24123 21.8073 3.321 21.8774 3.41028 21.9257C3.49957 21.974 3.59637 21.9993 3.69439 22H20.3056C20.4036 21.9993 20.5004 21.974 20.5897 21.9257C20.679 21.8774 20.7588 21.8073 20.8238 21.7199C20.8889 21.6324 20.9378 21.5297 20.9674 21.4182C20.997 21.3067 21.0066 21.1891 20.9956 21.0729L19.7554 7.73958C19.7342 7.5361 19.6515 7.34879 19.523 7.21268C19.3944 7.07657 19.2286 7.00096 19.0567 7V7Z" stroke="#A2A8A9" stroke-width="2" stroke-linecap="round" stroke-linejoin="round"/>
<path d="M8 10V6.44444C8 5.2657 8.42143 4.13524 9.17157 3.30175C9.92172 2.46825 10.9391 2 12 2C13.0609 2 14.0783 2.46825 14.8284 3.30175C15.5786 4.13524 16 5.2657 16 6.44444V10" stroke="#A2A8A9" stroke-width="2" stroke-linecap="round" stroke-linejoin="round"/>
</svg>
