<svg width="304" height="304" viewBox="0 0 304 304" fill="none" xmlns="http://www.w3.org/2000/svg">
<circle opacity="0.05" cx="152" cy="152" r="152" fill="#164879"/>
<path opacity="0.9" fill-rule="evenodd" clip-rule="evenodd" d="M54.0083 111.15H68.875V143.671H54.0083L54.0083 111.15ZM54.0083 160.396L54.0083 193.381H68.875V160.396H54.0083ZM75.8438 160.396V193.381H80.025V160.396H75.8438ZM83.7416 160.396V193.381H86.5291V160.396H83.7416ZM86.5291 143.671H83.7416V111.15H86.5291V143.671ZM88.8521 160.396V193.381H98.6083V160.396H88.8521ZM98.6083 143.671H88.8521V111.15H98.6083V143.671ZM102.325 160.396V193.381H117.192V160.396H102.325ZM117.192 143.671H102.325V111.15H117.192V143.671ZM123.231 160.396V193.381H127.412V160.396H123.231ZM127.412 143.671H123.231V111.15H127.412V143.671ZM133.452 160.396V193.381H140.421V160.396H133.452ZM140.421 143.671H133.452V111.15H140.421V143.671ZM146.46 160.396V193.381H149.248V160.396H146.46ZM149.248 143.671H146.46V111.15H149.248V143.671ZM155.287 160.396V193.381H164.579V160.396H155.287ZM164.579 143.671H155.287V111.15H164.579V143.671ZM170.619 160.396V193.381H174.8V160.396H170.619ZM174.8 143.671H170.619V111.15H174.8V143.671ZM180.84 160.396V193.381H183.627V160.396H180.84ZM183.627 143.671H180.84V111.15H183.627V143.671ZM189.667 160.396V193.381H192.454V160.396H189.667ZM192.454 143.671H189.667V111.15H192.454V143.671ZM199.423 160.396V193.381H206.392V160.396H199.423ZM206.392 143.671H199.423V111.15H206.392V143.671ZM212.431 160.396V193.381H226.833V160.396H212.431ZM226.833 143.671H212.431V111.15H226.833V143.671ZM232.873 160.396V193.381H235.66V160.396H232.873ZM235.66 143.671H232.873V111.15H235.66V143.671ZM241.7 160.396H250.992V143.671H241.7V111.15H250.992V193.381H241.7V160.396ZM80.025 143.671H75.8438V111.15H80.025V143.671Z" fill="#164879"/>
<rect x="41" y="150.64" width="223" height="2.7875" fill="#ED1E79"/>
<path opacity="0.3" d="M243.558 100H256.549C259.638 100 262.142 102.504 262.142 105.592V118.583" stroke="#164879" stroke-width="4.89342" stroke-linecap="round"/>
<path opacity="0.3" d="M243.558 204.531H256.549C259.638 204.531 262.142 202.027 262.142 198.939V185.948" stroke="#164879" stroke-width="4.89342" stroke-linecap="round"/>
<path opacity="0.3" d="M61.4417 100H48.4509C45.3622 100 42.8584 102.504 42.8584 105.592V118.583" stroke="#164879" stroke-width="4.89342" stroke-linecap="round"/>
<path opacity="0.3" d="M61.4417 204.531H48.4509C45.3622 204.531 42.8584 202.027 42.8584 198.939V185.948" stroke="#164879" stroke-width="4.89342" stroke-linecap="round"/>
</svg>

