<svg width="375" height="812" viewBox="0 0 375 812" fill="none" xmlns="http://www.w3.org/2000/svg">
<g clip-path="url(#clip0_2275_7768)">
<rect width="375" height="812" fill="#F9FBFF"/>
<path d="M-32.1255 246.273C25.5958 307.157 -5.49281 405.827 -17.8235 496.434C-25.8433 555.364 -16.8898 611.865 36.381 654.76C86.5058 695.121 152.223 706.235 260.192 690.701C397.16 670.994 433.943 810.421 427.546 875.909" stroke="#C8E4EB" stroke-width="3" stroke-miterlimit="10"/>
<path d="M-618.968 -220.543C-576.712 -217.579 -498.015 -227.434 -465.167 -165.597C-404.712 -51.7905 -631.357 149.866 -517.306 265.762C-403.255 381.658 -283.419 246.674 -143.733 232.825C-75.9572 226.105 -17.2654 271.288 -25.9485 372.408C-31.0011 431.249 -58.0549 528.743 -43.6718 603.36C-35.6599 644.924 -24.8293 694.72 28.7266 726.71C75.3579 754.565 136.104 761.204 196.452 735.274C283.242 697.982 347.822 707.8 381.709 761.633C415.597 815.466 407.999 894.075 381.009 982.631" stroke="#C8E4EB" stroke-width="3" stroke-miterlimit="10"/>
<path d="M1120.61 668.713C901.867 556.1 759.925 479.06 678.283 289.539C596.641 100.018 489.055 -72.9748 326.815 -99.2853C196.607 -120.401 284.64 19.6861 248.092 55.0995C211.544 90.5129 135.958 63.7129 78.3219 -65.302C19.4211 -197.147 11.0027 -349.703 176.335 -440.906C342.576 -532.612 202.247 -774.135 140.506 -877" stroke="#C8E4EB" stroke-width="3" stroke-miterlimit="10"/>
<path d="M804.446 546.724C628.012 450.573 572.018 242.117 514.835 149.403C457.652 56.6887 366.537 63.1095 308.06 125.926C245.621 192.998 121.28 166.277 23.7653 38.8482C-73.7495 -88.5801 -84.7657 -245.278 16.0709 -462" stroke="#C8E4EB" stroke-width="3" stroke-miterlimit="10"/>
</g>
<defs>
<clipPath id="clip0_2275_7768">
<rect width="375" height="812" fill="white"/>
</clipPath>
</defs>
</svg>
