<svg width="40" height="40" viewBox="0 0 40 40" fill="none" xmlns="http://www.w3.org/2000/svg">
<rect width="40" height="40" rx="12" fill="#164879" fill-opacity="0.1"/>
<path opacity="0.4" fill-rule="evenodd" clip-rule="evenodd" d="M19.28 10.4C19.28 9.86981 19.7098 9.44 20.24 9.44C26.0721 9.44 30.8 14.1679 30.8 20C30.8 25.8321 26.0721 30.56 20.24 30.56C14.4079 30.56 9.67999 25.8321 9.67999 20C9.67999 19.4698 10.1098 19.04 10.64 19.04C11.1702 19.04 11.6 19.4698 11.6 20C11.6 24.7718 15.4683 28.64 20.24 28.64C25.0118 28.64 28.88 24.7718 28.88 20C28.88 15.2283 25.0118 11.36 20.24 11.36C19.7098 11.36 19.28 10.9302 19.28 10.4ZM17.7769 10.5379C17.9659 11.0332 17.7175 11.588 17.2221 11.777C17.0601 11.8388 16.9004 11.9051 16.743 11.9758C16.2594 12.1932 15.6912 11.9774 15.4738 11.4938C15.2565 11.0102 15.4723 10.442 15.9558 10.2246C16.147 10.1387 16.341 10.0581 16.5379 9.98304C17.0332 9.79408 17.588 10.0425 17.7769 10.5379ZM14.2912 12.2861C14.6551 12.6717 14.6376 13.2793 14.252 13.6432C14.1247 13.7633 14.001 13.8871 13.8809 14.0144C13.5171 14.4 12.9095 14.4177 12.5238 14.0539C12.1382 13.6901 12.1205 13.0825 12.4843 12.6968C12.6299 12.5426 12.7799 12.3925 12.9341 12.2469C13.3197 11.883 13.9272 11.9005 14.2912 12.2861ZM11.7364 15.2288C12.2199 15.4464 12.4355 16.0147 12.2179 16.4982C12.1464 16.6571 12.0794 16.8184 12.017 16.982C11.8282 17.4774 11.2734 17.7259 10.778 17.537C10.2826 17.3482 10.0341 16.7935 10.223 16.298C10.2987 16.0993 10.3802 15.9033 10.467 15.7103C10.6846 15.2268 11.2529 15.0112 11.7364 15.2288Z" fill="black"/>
<path fill-rule="evenodd" clip-rule="evenodd" d="M16.6812 16.4411C17.0561 16.0662 17.6639 16.0662 18.0388 16.4411L20.24 18.6423L22.4412 16.4411C22.8161 16.0662 23.4239 16.0662 23.7988 16.4411C24.1737 16.8161 24.1737 17.4239 23.7988 17.7988L21.5976 20L23.7988 22.2012C24.1737 22.576 24.1737 23.1839 23.7988 23.5588C23.4239 23.9337 22.8161 23.9337 22.4412 23.5588L20.24 21.3576L18.0388 23.5588C17.6639 23.9337 17.0561 23.9337 16.6812 23.5588C16.3063 23.1839 16.3063 22.576 16.6812 22.2012L18.8824 20L16.6812 17.7988C16.3063 17.4239 16.3063 16.8161 16.6812 16.4411Z" fill="black"/>
</svg>
