<svg width="30" height="30" viewBox="0 0 23 23" fill="none" xmlns="http://www.w3.org/2000/svg">
<g clip-path="url(#clip0_905_13795)">
<path d="M13.5316 13.5314C13.2684 13.8138 12.951 14.0404 12.5983 14.1975C12.2456 14.3547 11.8649 14.4392 11.4789 14.446C11.0929 14.4528 10.7094 14.3818 10.3515 14.2372C9.99347 14.0926 9.66828 13.8774 9.39527 13.6043C9.12227 13.3313 8.90704 13.0061 8.76245 12.6482C8.61785 12.2902 8.54684 11.9067 8.55365 11.5207C8.56046 11.1347 8.64496 10.754 8.80209 10.4013C8.95923 10.0486 9.18579 9.73124 9.46825 9.46803M17.1924 17.1922C15.5542 18.4409 13.5595 19.1327 11.4999 19.1664C4.79158 19.1664 0.958252 11.4997 0.958252 11.4997C2.15031 9.27818 3.80367 7.33728 5.80742 5.8072L17.1924 17.1922ZM9.48742 4.06303C10.1471 3.90862 10.8224 3.83144 11.4999 3.83303C18.2083 3.83303 22.0416 11.4997 22.0416 11.4997C21.4599 12.588 20.7661 13.6126 19.9716 14.5568L9.48742 4.06303Z" stroke="#029EB0" stroke-width="2" stroke-linecap="round" stroke-linejoin="round"/>
<path d="M0.958252 0.958008L22.0416 22.0413" stroke="#029EB0" stroke-width="2" stroke-linecap="round" stroke-linejoin="round"/>
</g>
<defs>
<clipPath id="clip0_905_13795">
<rect width="30" height="30" fill="white"/>
</clipPath>
</defs>
</svg>
