<svg width="35" height="34" viewBox="0 0 35 34" fill="none" xmlns="http://www.w3.org/2000/svg">
<g clip-path="url(#clip0_1168_23856)">
<path d="M34.6584 17.3918C34.6584 16.2362 34.5619 15.0744 34.3562 13.9375H17.8496V20.4839H27.3021C26.9099 22.5952 25.6496 24.4629 23.8041 25.6498V29.8974H29.4434C32.755 26.9366 34.6584 22.564 34.6584 17.3918Z" fill="#4285F4"/>
<path d="M17.8503 34.0012C22.5702 34.0012 26.5505 32.4958 29.4506 29.8972L23.8112 25.6496C22.2422 26.6865 20.2167 27.2737 17.8568 27.2737C13.2913 27.2737 9.42025 24.2816 8.03131 20.2588H2.21191V24.6376C5.1827 30.3782 11.2336 34.0012 17.8503 34.0012Z" fill="#34A853"/>
<path d="M8.02415 20.2588C7.29109 18.1475 7.29109 15.8613 8.02415 13.7499V9.37109H2.21117C-0.270912 14.1747 -0.270912 19.8341 2.21117 24.6377L8.02415 20.2588Z" fill="#FBBC04"/>
<path d="M17.8503 6.72868C20.3453 6.69121 22.7566 7.6032 24.5636 9.27728L29.5599 4.42371C26.3962 1.5378 22.1972 -0.0488268 17.8503 0.00114561C11.2336 0.00114561 5.1827 3.62415 2.21191 9.37098L8.02488 13.7498C9.40739 9.72078 13.2849 6.72868 17.8503 6.72868Z" fill="#EA4335"/>
</g>
<defs>
<clipPath id="clip0_1168_23856">
<rect width="35" height="34" fill="white"/>
</clipPath>
</defs>
</svg>
