<svg width="25" height="24" viewBox="0 0 25 24" fill="none" xmlns="http://www.w3.org/2000/svg">
<path opacity="0.4" d="M1.75 12C1.75 6.06294 6.56294 1.25 12.5 1.25C18.4371 1.25 23.25 6.06294 23.25 12C23.25 17.9371 18.4371 22.75 12.5 22.75C6.56294 22.75 1.75 17.9371 1.75 12Z" fill="white"/>
<path fill-rule="evenodd" clip-rule="evenodd" d="M12.5 8C10.2909 8 8.5 9.79086 8.5 12C8.5 14.2091 10.2909 16 12.5 16C14.3638 16 15.9299 14.7252 16.374 13H12.5C11.9477 13 11.5 12.5523 11.5 12C11.5 11.4477 11.9477 11 12.5 11H17.5C18.0523 11 18.5 11.4477 18.5 12C18.5 15.3137 15.8137 18 12.5 18C9.18629 18 6.5 15.3137 6.5 12C6.5 8.68629 9.18629 6 12.5 6C14.1566 6 15.6579 6.67267 16.7426 7.75736C17.1332 8.14788 17.1332 8.78105 16.7426 9.17157C16.3521 9.5621 15.719 9.5621 15.3284 9.17157C14.6035 8.44662 13.6048 8 12.5 8Z" fill="white"/>
</svg>
