<svg width="24" height="24" viewBox="0 0 40 40" fill="none" xmlns="http://www.w3.org/2000/svg">
<path d="M20 30.745C16.4183 30.745 13.4957 27.8223 13.4957 24.2407C13.4957 20.659 16.4183 17.7364 20 17.7364C23.5817 17.7364 26.5043 20.659 26.5043 24.2407C26.5043 27.8223 23.5817 30.745 20 30.745Z" fill="#029DAF"/>
<path d="M34.4699 0H5.53008C2.49283 0 0 2.46418 0 5.53009V34.4699C0 37.5358 2.46418 40 5.53008 40H9.54154V24.2407C9.54154 18.4814 14.2407 13.7822 20 13.7822C25.7593 13.7822 30.4584 18.4814 30.4584 24.2407C30.4584 30 25.7593 34.6991 20 34.6991C17.5358 34.6991 15.2722 33.8395 13.4957 32.4355V40H34.4699C37.5358 40 40 37.5358 40 34.4699V5.53009C40 2.46418 37.5358 0 34.4699 0ZM15.1576 12.0057C16.3897 10.7736 18.0802 10.0287 19.9713 10.0287C21.8625 10.0287 23.553 10.7736 24.7851 12.0057H15.1576ZM23.3811 10.0287C22.3496 9.51289 21.1748 9.22636 19.9427 9.22636C18.7106 9.22636 17.5358 9.51289 16.5043 10.0287H12.6934C13.553 9.1404 14.5559 8.36676 15.702 7.851C16.9914 7.24928 18.4241 6.90544 19.9427 6.90544C21.4613 6.90544 22.894 7.24928 24.1547 7.851C25.3009 8.39542 26.3324 9.1404 27.1633 10.0287H23.3811ZM25.8453 7.851C24.1547 6.73352 22.1203 6.10315 19.9713 6.10315C17.8224 6.10315 15.7593 6.76218 14.0688 7.851H10.2579C12.6648 5.24355 16.1318 3.61032 19.9713 3.61032C23.8109 3.61032 27.2493 5.24355 29.6848 7.851H25.8453Z" fill="#029DAF"/>
</svg>
