<svg width="142" height="80" viewBox="0 0 142 80" fill="none" xmlns="http://www.w3.org/2000/svg">
<g filter="url(#filter0_d_112_1784)">
<path d="M62.5871 28.3511C62.5871 28.3511 62.5886 28.3496 62.5894 28.3489C63.1581 27.7793 63.8193 27.3393 64.5567 27.04C65.2689 26.7504 66.0225 26.6037 66.7961 26.6037C67.5697 26.6037 68.3234 26.7504 69.0356 27.04C69.7715 27.3385 70.4326 27.7785 71.0006 28.3467L72.3363 27.0089C69.2752 23.9452 64.3141 23.9459 61.2544 27.0111C61.2544 27.0111 61.2529 27.0126 61.2522 27.0133L62.5879 28.3511H62.5871Z" fill="#FF0079"/>
<path d="M65.4405 31.2045C65.4405 31.2045 65.439 31.2059 65.4382 31.2067L66.7917 32.5622L68.1488 31.203C67.4003 30.4556 66.1882 30.4556 65.4397 31.2052L65.4405 31.2045Z" fill="#FF0079"/>
<path d="M63.3306 29.0911C63.3306 29.0911 63.3291 29.0926 63.3284 29.0933L64.6641 30.4311C64.6641 30.4311 64.6655 30.4296 64.6663 30.4289C65.235 29.8592 65.9916 29.5452 66.7963 29.5452C67.6009 29.5452 68.3553 29.8585 68.9241 30.4267L70.2597 29.0889C68.3457 27.1741 65.2446 27.1748 63.3313 29.0911H63.3306Z" fill="#FF0079"/>
<path d="M59.742 50.8274H61.0718C61.7367 50.8274 62.4023 50.8333 63.0672 50.823C63.2432 50.82 63.3653 50.877 63.4939 50.9941C64.4266 51.8393 65.5278 52.2993 66.7829 52.2948C69.2501 52.2852 71.1006 50.5622 71.5613 48.4348C71.7218 47.6941 71.6597 46.9459 71.6715 46.1896C71.5413 46.2 71.48 46.2808 71.406 46.3333C70.1206 47.2556 68.6925 47.7496 67.109 47.8222C63.3505 47.9956 59.8737 45.3748 59.0919 41.4948C58.998 41.0282 58.9514 40.5548 58.9522 40.0763C58.9551 37.6763 58.9536 35.277 58.9536 32.877C58.9536 32.8393 58.9529 32.8007 58.9536 32.763C58.9588 32.5563 58.9596 32.5511 59.1541 32.5511C60.009 32.5489 60.8647 32.5526 61.7197 32.5482C61.8609 32.5482 61.9349 32.5822 61.9201 32.7385C61.9105 32.8422 61.9186 32.9482 61.9186 33.0526C61.9186 35.3474 61.9327 37.643 61.9149 39.9378C61.8972 42.2104 63.4843 44.2608 65.743 44.7422C68.6 45.3511 71.0769 43.4519 71.5709 40.9356C71.639 40.5889 71.673 40.24 71.6723 39.8859C71.67 37.5911 71.6715 35.2956 71.6715 33.0008C71.6715 32.9437 71.6715 32.8867 71.6715 32.8296C71.67 32.5208 71.6663 32.5504 71.9489 32.5504C72.7661 32.5504 73.5833 32.5496 74.4006 32.5504C74.6328 32.5504 74.6358 32.5541 74.6365 32.7859C74.638 34.0141 74.6365 35.243 74.6365 36.4711C74.6365 40.1185 74.6365 43.7659 74.6365 47.4126C74.6365 50.9526 72.241 54.0822 68.8278 55.0008C65.3266 55.943 61.5962 54.3267 59.8811 51.1252C59.8374 51.043 59.8012 50.957 59.7406 50.8274H59.742Z" fill="white"/>
<path d="M84.135 44.2244C84.1971 44.2474 84.226 44.2985 84.2585 44.3452C84.7488 45.0585 85.2399 45.7711 85.7288 46.4852C85.8508 46.6637 85.8508 46.6696 85.6681 46.7844C84.8738 47.2837 84.0122 47.58 83.0737 47.6466C82.2513 47.7052 81.4636 47.5755 80.7218 47.2133C79.5252 46.6296 78.8144 45.6496 78.4713 44.3829C78.3389 43.8941 78.2864 43.3941 78.2871 42.8866C78.2893 40.5733 78.2878 38.2592 78.2878 35.9459C78.2878 35.8889 78.2878 35.8318 78.2878 35.7748C78.2849 35.5289 78.2849 35.5274 78.0356 35.5259C77.7221 35.5244 77.4085 35.5222 77.0949 35.5266C76.9766 35.5281 76.9263 35.4911 76.9263 35.3644C76.93 34.4792 76.93 33.5933 76.9263 32.7081C76.9263 32.5792 76.9817 32.5466 77.0986 32.5481C77.4218 32.5526 77.745 32.5518 78.0675 32.5481C78.2827 32.5466 78.2864 32.5429 78.2864 32.3252C78.2878 31.0681 78.2864 29.8118 78.2878 28.5548C78.2878 28.1504 78.2442 28.2029 78.6317 28.2015C79.4105 28.1992 80.1901 28.2 80.9688 28.2015C81.2499 28.2015 81.2514 28.2029 81.2521 28.4755C81.2521 29.7037 81.2521 30.9318 81.2521 32.16C81.2521 32.217 81.2514 32.2741 81.2521 32.3311C81.2565 32.5437 81.2573 32.5474 81.4754 32.5474C82.5397 32.5489 83.604 32.5474 84.6682 32.5474C84.7348 32.5474 84.8014 32.5496 84.8679 32.5474C84.9604 32.5444 85.0107 32.5822 85.0084 32.68C85.007 32.7466 85.0084 32.8133 85.0084 32.88C85.0084 33.6511 85.0092 34.4222 85.0084 35.1933C85.0084 35.5607 85.0432 35.5222 84.666 35.5229C83.6402 35.5244 82.6137 35.5229 81.5871 35.5229C81.5206 35.5229 81.454 35.5259 81.3874 35.5229C81.2905 35.5185 81.2484 35.5629 81.2514 35.6585C81.2536 35.7252 81.2514 35.7918 81.2514 35.8585C81.2514 38.1629 81.2514 40.4666 81.2514 42.7711C81.2514 43.1148 81.2647 43.4555 81.3741 43.7859C81.5531 44.3259 81.9355 44.6052 82.4894 44.6592C83.0389 44.7133 83.5426 44.5674 84.013 44.2889C84.0536 44.2644 84.0958 44.2429 84.1335 44.2215L84.135 44.2244Z" fill="white"/>
<path d="M118.418 38.1703C117.509 34.3755 113.896 31.7029 109.852 32.1904C108.05 32.4074 106.492 33.1541 105.233 34.4518C103.314 36.4318 102.588 38.8104 103.099 41.5296C103.729 44.8822 106.651 47.6941 110.492 47.8481C112.287 47.92 113.924 47.4111 115.389 46.3615C115.464 46.3081 115.539 46.2555 115.608 46.2074C115.675 46.2533 115.658 46.3044 115.659 46.3481C115.66 46.7578 115.666 47.1674 115.657 47.5763C115.633 48.5341 115.356 49.4163 114.8 50.1948C113.732 51.6904 112.265 52.3992 110.438 52.2985C109.32 52.237 108.342 51.7889 107.513 51.0333C107.359 50.8926 107.21 50.8341 107.007 50.8429C106.684 50.857 106.361 50.8466 106.038 50.8466H103.769C103.775 50.9926 103.843 51.0755 103.892 51.1659C105.488 54.12 108.937 55.8385 112.38 55.1274C115.966 54.3866 118.623 51.1622 118.626 47.4926C118.629 44.96 118.626 42.4266 118.627 39.8941C118.627 39.3104 118.555 38.7355 118.419 38.1696L118.418 38.1703ZM110.772 44.8474C108.297 44.8948 105.909 42.8437 105.909 39.9578C105.909 37.4096 107.908 35.0978 110.77 35.0866C113.676 35.0755 115.674 37.4555 115.662 39.9837C115.649 42.7681 113.337 44.9029 110.772 44.8466V44.8474Z" fill="white"/>
<path d="M39.0144 38.9808C38.7888 37.1971 38.0441 35.6556 36.7587 34.4126C34.7226 32.4445 32.2812 31.7356 29.5189 32.3296C26.1042 33.0645 23.4329 36.0882 23.3981 39.8593C23.353 44.7163 23.387 49.5733 23.3878 54.4304C23.3878 54.6978 23.39 54.7 23.6503 54.7008C24.4675 54.7022 25.2848 54.7022 26.102 54.7008C26.349 54.7008 26.3498 54.6978 26.3527 54.4504C26.3527 54.3933 26.3527 54.3363 26.3527 54.2793V46.1422C26.5029 46.2482 26.6027 46.3185 26.7033 46.3882C28.5648 47.6822 30.6194 48.1193 32.8285 47.6652C36.7934 46.8504 39.538 43.1104 39.0151 38.98L39.0144 38.9808ZM31.2192 44.8474C28.8096 44.8933 26.3749 42.9363 26.3609 39.9837C26.3483 37.2971 28.4554 35.0904 31.2222 35.0874C34.2485 35.0837 36.1404 37.6022 36.1138 40.0133C36.0842 42.6889 33.8314 44.903 31.2192 44.8474Z" fill="white"/>
<path d="M101.442 47.2378C101.436 47.1815 101.441 47.1237 101.441 47.0666C101.441 44.7052 101.444 42.3429 101.439 39.9815C101.438 39.3229 101.352 38.6726 101.188 38.0333C100.239 34.3318 96.668 31.7066 92.6565 32.1911C90.8445 32.4096 89.2826 33.1652 88.0179 34.4741C86.1475 36.4096 85.4293 38.7363 85.879 41.3941C86.4566 44.8089 89.4112 47.7081 93.331 47.8503C95.1267 47.9155 96.7612 47.4 98.2219 46.3422C98.2885 46.2941 98.3432 46.2215 98.4756 46.2126C98.4756 46.5629 98.4822 46.8955 98.4726 47.2274C98.4682 47.377 98.5207 47.4244 98.6679 47.4222C99.1146 47.4148 99.5613 47.42 100.008 47.42C100.426 47.42 100.844 47.4163 101.262 47.4215C101.397 47.4229 101.457 47.3763 101.442 47.2385V47.2378ZM93.5884 44.8474C90.9466 44.8918 88.7175 42.6533 88.7138 39.9681C88.7101 37.5866 90.585 35.0911 93.5943 35.0866C96.3567 35.0829 98.4756 37.2844 98.4667 39.9733C98.4563 42.9807 95.9654 44.9074 93.5884 44.8466V44.8474Z" fill="white"/>
<path d="M56.2933 47.2326C56.2851 47.1667 56.2918 47.0993 56.2918 47.0326C56.2918 44.6904 56.2888 42.3482 56.2933 40.006C56.2955 38.7356 56.0108 37.5356 55.4302 36.4074C53.8564 33.3519 50.475 31.5756 46.9257 32.2822C42.6502 33.1334 39.9174 37.2867 40.7583 41.5311C41.421 44.8778 44.3165 47.6941 48.1579 47.8474C49.9632 47.92 51.6073 47.406 53.0768 46.3445C53.1434 46.2963 53.1989 46.2267 53.3261 46.2089C53.3261 46.5563 53.3239 46.8793 53.3268 47.203C53.3283 47.4097 53.332 47.4163 53.528 47.4163C54.3829 47.4185 55.2379 47.4156 56.0936 47.4193C56.2319 47.4193 56.3133 47.3904 56.2933 47.2311V47.2326ZM48.4567 44.8474C45.9694 44.903 43.5858 42.8489 43.5761 39.9756C43.5673 37.4089 45.5871 35.0882 48.447 35.0867C51.3662 35.0852 53.3327 37.4689 53.3283 39.966C53.3239 42.7837 50.9897 44.8963 48.4559 44.8467L48.4567 44.8474Z" fill="white"/>
</g>
<defs>
<filter id="filter0_d_112_1784" x="-6.6" y="-2.6" width="155.2" height="93.2" filterUnits="userSpaceOnUse" color-interpolation-filters="sRGB">
<feFlood flood-opacity="0" result="BackgroundImageFix"/>
<feColorMatrix in="SourceAlpha" type="matrix" values="0 0 0 0 0 0 0 0 0 0 0 0 0 0 0 0 0 0 127 0" result="hardAlpha"/>
<feOffset dy="4"/>
<feGaussianBlur stdDeviation="3.3"/>
<feComposite in2="hardAlpha" operator="out"/>
<feColorMatrix type="matrix" values="0 0 0 0 0 0 0 0 0 0 0 0 0 0 0 0 0 0 0.25 0"/>
<feBlend mode="normal" in2="BackgroundImageFix" result="effect1_dropShadow_112_1784"/>
<feBlend mode="normal" in="SourceGraphic" in2="effect1_dropShadow_112_1784" result="shape"/>
</filter>
</defs>
</svg>
