<svg width="231" height="73" viewBox="0 0 231 73" fill="none" xmlns="http://www.w3.org/2000/svg">
<path d="M19.3985 16.3665C8.70313 16.3665 0 24.9915 0 35.5907V71.5452H7.33999V50.6064C10.643 53.2043 14.8373 54.763 19.3985 54.763C30.094 54.763 38.7971 46.1381 38.7971 35.5388C38.7971 24.9395 30.094 16.3665 19.3985 16.3665ZM19.3985 47.489C12.7401 47.489 7.33999 42.1374 7.33999 35.5388C7.33999 28.9402 12.7401 23.5886 19.3985 23.5886C26.057 23.5886 31.4571 28.9402 31.4571 35.5388C31.4571 42.1374 26.0045 47.489 19.3985 47.489Z" fill="#029EB0"/>
<path d="M61.9706 16.3665C51.2752 16.3665 42.572 24.9915 42.572 35.5907C42.572 46.19 51.2752 54.8149 61.9706 54.8149C66.5319 54.8149 70.7261 53.2562 74.0291 50.6584V53.7758H81.3691V35.5907C81.3691 24.9915 72.666 16.3665 61.9706 16.3665ZM61.9706 47.489C55.3122 47.489 49.912 42.1374 49.912 35.5388C49.912 28.9402 55.3122 23.5886 61.9706 23.5886C68.629 23.5886 74.0291 28.9402 74.0291 35.5388C74.0291 42.1374 68.629 47.489 61.9706 47.489Z" fill="#029EB0"/>
<path d="M168.977 16.3665C158.282 16.3665 149.578 24.9915 149.578 35.5907C149.578 46.19 158.282 54.8149 168.977 54.8149C173.538 54.8149 177.732 53.2562 181.035 50.6584V53.7758H188.375V35.5907C188.375 24.9915 179.672 16.3665 168.977 16.3665ZM168.977 47.489C162.319 47.489 156.918 42.1374 156.918 35.5388C156.918 28.9402 162.319 23.5886 168.977 23.5886C175.635 23.5886 181.035 28.9402 181.035 35.5388C181.035 42.1374 175.635 47.489 168.977 47.489Z" fill="#029EB0"/>
<path d="M211.601 16.3665C200.906 16.3665 192.203 24.9915 192.203 35.5907C192.203 46.19 200.906 54.8149 211.601 54.8149C216.163 54.8149 220.357 53.2562 223.66 50.6584V53.7758C223.66 60.3744 218.26 65.726 211.601 65.726C208.298 65.726 205.258 64.3751 203.003 62.1409H194.143C197.341 68.6875 204.209 73 211.601 73C222.297 73 231 64.3751 231 53.7758V35.5907C231 24.9915 222.297 16.3665 211.601 16.3665ZM211.601 47.489C204.943 47.489 199.543 42.1374 199.543 35.5388C199.543 28.9402 204.943 23.5886 211.601 23.5886C218.26 23.5886 223.66 28.9402 223.66 35.5388C223.66 42.1374 218.207 47.489 211.601 47.489Z" fill="#029EB0"/>
<path d="M104.595 3.63701C109.104 3.63701 113.193 5.50747 116.024 8.521H120.691C117.23 3.37722 111.306 0 104.595 0C97.8842 0 91.9598 3.37722 88.4471 8.521H93.1132C95.9968 5.50747 100.086 3.63701 104.595 3.63701Z" fill="#029EB0"/>
<path d="M115.185 13.6128C114.032 11.4306 112.197 9.66404 109.942 8.57294C108.317 7.74162 106.482 7.32596 104.542 7.32596C102.602 7.32596 100.767 7.79358 99.1422 8.57294C96.8877 9.66404 95.1052 11.4825 93.8993 13.6128H98.3557C99.8762 11.9502 102.078 10.911 104.542 10.911C107.006 10.911 109.208 11.9502 110.729 13.6128H115.185Z" fill="#029EB0"/>
<path d="M100.296 17.4057H108.841C108.16 15.795 106.482 14.6 104.595 14.6C102.655 14.6519 101.03 15.795 100.296 17.4057Z" fill="#029EB0"/>
<path d="M116.601 17.4057V35.5388C116.601 42.1374 111.201 47.489 104.543 47.489C97.8843 47.489 92.4842 42.1374 92.4842 35.5388V17.4057H85.1442V35.5388C85.1442 42.9167 89.3909 49.3594 95.5775 52.5808C98.2513 53.9836 101.292 54.763 104.543 54.763C107.793 54.763 110.782 53.9836 113.456 52.5808C114.557 52.0092 115.605 51.3338 116.549 50.5544V53.6719C116.549 55.5423 116.129 57.3089 115.343 58.8676C113.403 62.8683 109.261 65.6221 104.49 65.6221C101.187 65.6221 98.094 64.2712 95.892 62.037H87.0316C90.2298 68.5836 97.0979 72.8961 104.49 72.8961C113.351 72.8961 120.848 66.9729 123.155 58.8676C123.627 57.205 123.889 55.4904 123.889 53.6719V17.4057H116.601Z" fill="#029EB0"/>
<path d="M140.246 46.6577C139.093 46.0342 138.464 44.6833 138.464 42.6569V24.7317H147.744V17.4577H138.464V6.75445H131.124V17.4057H127.768V24.6797H131.124V42.6569C131.124 47.437 133.221 51.2299 136.838 53.1004C138.411 53.9317 140.246 54.3473 142.081 54.3473C144.755 54.3473 147.481 53.516 149.841 51.9053L145.646 45.9303C143.916 47.1253 141.714 47.437 140.246 46.6577Z" fill="#029EB0"/>
</svg>
