<svg width="63" height="35" viewBox="0 0 63 35" fill="none" xmlns="http://www.w3.org/2000/svg">
<g filter="url(#filter0_d_304_1687)">
<path d="M27.7676 12.4036C27.7676 12.4036 27.7682 12.4029 27.7685 12.4026C28.0209 12.1534 28.3142 11.9609 28.6414 11.83C28.9573 11.7033 29.2917 11.6391 29.6349 11.6391C29.9781 11.6391 30.3125 11.7033 30.6285 11.83C30.955 11.9606 31.2483 12.1531 31.5003 12.4017L32.0929 11.8164C30.7348 10.476 28.5337 10.4763 27.1763 11.8173C27.1763 11.8173 27.1756 11.818 27.1753 11.8183L27.7679 12.4036H27.7676Z" fill="#FF0079"/>
<path d="M29.0335 13.652C29.0335 13.652 29.0329 13.6526 29.0325 13.6529L29.633 14.246L30.2351 13.6513C29.903 13.3243 29.3653 13.3243 29.0332 13.6523L29.0335 13.652Z" fill="#FF0079"/>
<path d="M28.0974 12.7274C28.0974 12.7274 28.0967 12.728 28.0964 12.7283L28.689 13.3136C28.689 13.3136 28.6896 13.313 28.69 13.3126C28.9423 13.0634 29.278 12.926 29.635 12.926C29.992 12.926 30.3266 13.0631 30.579 13.3117L31.1716 12.7264C30.3224 11.8887 28.9465 11.889 28.0977 12.7274H28.0974Z" fill="#FF0079"/>
<path d="M26.5053 22.237H27.0953C27.3902 22.237 27.6856 22.2396 27.9805 22.235C28.0586 22.2337 28.1128 22.2587 28.1699 22.3099C28.5836 22.6797 29.0722 22.8809 29.629 22.879C30.7237 22.8748 31.5446 22.121 31.7491 21.1902C31.8203 20.8662 31.7927 20.5388 31.7979 20.208C31.7402 20.2125 31.713 20.2478 31.6801 20.2708C31.1099 20.6743 30.4763 20.8905 29.7737 20.9222C28.1062 20.998 26.5637 19.8515 26.2169 18.154C26.1752 17.9498 26.1545 17.7427 26.1549 17.5334C26.1562 16.4834 26.1555 15.4337 26.1555 14.3837C26.1555 14.3672 26.1552 14.3503 26.1555 14.3338C26.1578 14.2434 26.1581 14.2411 26.2444 14.2411C26.6237 14.2401 27.0034 14.2418 27.3827 14.2398C27.4454 14.2398 27.4782 14.2547 27.4716 14.3231C27.4674 14.3685 27.471 14.4148 27.471 14.4605C27.471 15.4645 27.4772 16.4688 27.4693 17.4728C27.4614 18.467 28.1656 19.3641 29.1677 19.5747C30.4352 19.8411 31.5341 19.0102 31.7533 17.9093C31.7835 17.7576 31.7986 17.605 31.7983 17.4501C31.7973 16.4461 31.7979 15.4418 31.7979 14.4378C31.7979 14.4129 31.7979 14.3879 31.7979 14.363C31.7973 14.2278 31.7956 14.2408 31.921 14.2408C32.2836 14.2408 32.6461 14.2405 33.0087 14.2408C33.1118 14.2408 33.1131 14.2424 33.1134 14.3438C33.1141 14.8811 33.1134 15.4188 33.1134 15.9561C33.1134 17.5518 33.1134 19.1476 33.1134 20.743C33.1134 22.2918 32.0506 23.661 30.5363 24.0628C28.983 24.475 27.3279 23.7679 26.567 22.3673C26.5476 22.3313 26.5315 22.2937 26.5046 22.237H26.5053Z" fill="#164879"/>
<path d="M37.3275 19.3482C37.3551 19.3582 37.3679 19.3806 37.3823 19.401C37.5999 19.7131 37.8177 20.0248 38.0346 20.3372C38.0888 20.4153 38.0888 20.4179 38.0077 20.4682C37.6553 20.6866 37.273 20.8162 36.8566 20.8454C36.4918 20.871 36.1423 20.8143 35.8132 20.6558C35.2823 20.4004 34.967 19.9717 34.8147 19.4175C34.756 19.2036 34.7327 18.9849 34.733 18.7629C34.734 17.7508 34.7334 16.7384 34.7334 15.7263C34.7334 15.7014 34.7334 15.6764 34.7334 15.6515C34.732 15.5439 34.732 15.5432 34.6215 15.5426C34.4823 15.5419 34.3432 15.5409 34.2041 15.5429C34.1516 15.5435 34.1293 15.5273 34.1293 15.4719C34.1309 15.0847 34.1309 14.6971 34.1293 14.3098C34.1293 14.2534 34.1539 14.2391 34.2057 14.2398C34.3491 14.2417 34.4925 14.2414 34.6356 14.2398C34.7311 14.2391 34.7327 14.2375 34.7327 14.1422C34.7334 13.5923 34.7327 13.0427 34.7334 12.4927C34.7334 12.3158 34.714 12.3388 34.8859 12.3381C35.2314 12.3372 35.5773 12.3375 35.9228 12.3381C36.0475 12.3381 36.0481 12.3388 36.0485 12.458C36.0485 12.9953 36.0485 13.5327 36.0485 14.07C36.0485 14.0949 36.0481 14.1199 36.0485 14.1448C36.0504 14.2378 36.0508 14.2395 36.1476 14.2395C36.6197 14.2401 37.0919 14.2395 37.5641 14.2395C37.5936 14.2395 37.6231 14.2404 37.6527 14.2395C37.6937 14.2382 37.716 14.2547 37.715 14.2975C37.7144 14.3266 37.715 14.3558 37.715 14.385C37.715 14.7223 37.7154 15.0597 37.715 15.3971C37.715 15.5578 37.7304 15.5409 37.5631 15.5413C37.108 15.5419 36.6526 15.5413 36.1971 15.5413C36.1676 15.5413 36.1381 15.5426 36.1085 15.5413C36.0655 15.5393 36.0468 15.5588 36.0481 15.6006C36.0491 15.6297 36.0481 15.6589 36.0481 15.6881C36.0481 16.6963 36.0481 17.7041 36.0481 18.7123C36.0481 18.8627 36.0541 19.0118 36.1026 19.1563C36.182 19.3926 36.3517 19.5147 36.5974 19.5384C36.8412 19.5621 37.0647 19.4982 37.2734 19.3764C37.2914 19.3657 37.3101 19.3563 37.3268 19.3469L37.3275 19.3482Z" fill="#164879"/>
<path d="M52.5374 16.6995C52.1345 15.0393 50.5313 13.87 48.7371 14.0833C47.9378 14.1782 47.2464 14.5049 46.6879 15.0727C45.8364 15.9389 45.5146 16.9795 45.7413 18.1692C46.0205 19.6359 47.3169 20.8661 49.0212 20.9335C49.8176 20.965 50.5437 20.7423 51.1937 20.2831C51.2269 20.2598 51.2603 20.2368 51.2909 20.2157C51.3207 20.2358 51.3132 20.2582 51.3135 20.2773C51.3138 20.4565 51.3168 20.6357 51.3125 20.8146C51.302 21.2336 51.179 21.6196 50.9325 21.9602C50.4587 22.6145 49.8077 22.9246 48.9969 22.8806C48.5011 22.8537 48.067 22.6576 47.6995 22.3271C47.6313 22.2655 47.565 22.2399 47.4748 22.2438C47.3317 22.2499 47.1883 22.2454 47.0449 22.2454H46.0382C46.0409 22.3092 46.0714 22.3455 46.0927 22.3851C46.8011 23.6775 48.3312 24.4293 49.8586 24.1182C51.4497 23.7941 52.6283 22.3834 52.6299 20.778C52.6313 19.67 52.6299 18.5616 52.6303 17.4536C52.6303 17.1983 52.5981 16.9468 52.5381 16.6992L52.5374 16.6995ZM49.1453 19.6207C48.047 19.6415 46.9878 18.7441 46.9878 17.4815C46.9878 16.3667 47.8748 15.3553 49.1443 15.3504C50.4338 15.3455 51.3201 16.3868 51.3148 17.4928C51.3092 18.711 50.2832 19.645 49.1453 19.6204V19.6207Z" fill="#164879"/>
<path d="M17.3093 17.0541C17.2092 16.2737 16.8788 15.5993 16.3085 15.0555C15.4052 14.1945 14.322 13.8843 13.0965 14.1442C11.5815 14.4657 10.3963 15.7886 10.3809 17.4384C10.3609 19.5634 10.376 21.6883 10.3763 23.8133C10.3763 23.9303 10.3773 23.9313 10.4928 23.9316C10.8554 23.9322 11.2179 23.9322 11.5805 23.9316C11.6901 23.9316 11.6905 23.9303 11.6918 23.822C11.6918 23.7971 11.6918 23.7721 11.6918 23.7472V20.1872C11.7584 20.2336 11.8027 20.2644 11.8473 20.2948C12.6732 20.861 13.5847 21.0522 14.5648 20.8535C16.3239 20.497 17.5416 18.8608 17.3096 17.0538L17.3093 17.0541ZM13.8508 19.6207C12.7818 19.6408 11.7016 18.7846 11.6954 17.4929C11.6898 16.3175 12.6246 15.352 13.8521 15.3507C15.1948 15.3491 16.0342 16.451 16.0224 17.5058C16.0092 18.6764 15.0098 19.6451 13.8508 19.6207Z" fill="#164879"/>
<path d="M45.006 20.6665C45.0033 20.6419 45.0056 20.6166 45.0056 20.5917C45.0056 19.5585 45.007 18.525 45.0047 17.4919C45.004 17.2038 44.9659 16.9193 44.8934 16.6396C44.4721 15.0202 42.8879 13.8717 41.1082 14.0836C40.3043 14.1792 39.6113 14.5098 39.0502 15.0824C38.2203 15.9292 37.9017 16.9471 38.1012 18.1099C38.3575 19.6039 39.6684 20.8723 41.4074 20.9345C42.2041 20.9631 42.9293 20.7375 43.5773 20.2747C43.6068 20.2537 43.6311 20.2219 43.6899 20.218C43.6899 20.3713 43.6928 20.5168 43.6886 20.662C43.6866 20.7275 43.7099 20.7482 43.7752 20.7472C43.9734 20.744 44.1716 20.7463 44.3697 20.7463C44.5551 20.7463 44.7409 20.7446 44.9262 20.7469C44.986 20.7475 45.0125 20.7271 45.006 20.6669V20.6665ZM41.5216 19.6207C40.3496 19.6402 39.3606 18.6608 39.3589 17.4861C39.3573 16.4442 40.1891 15.3524 41.5242 15.3504C42.7498 15.3488 43.6899 16.3119 43.6859 17.4883C43.6813 18.8041 42.5762 19.647 41.5216 19.6204V19.6207Z" fill="#164879"/>
<path d="M24.9752 20.6643C24.9716 20.6354 24.9746 20.606 24.9746 20.5768C24.9746 19.5521 24.9732 18.5273 24.9752 17.5026C24.9762 16.9468 24.8499 16.4218 24.5923 15.9283C23.894 14.5915 22.3939 13.8143 20.8192 14.1235C18.9223 14.4959 17.7099 16.3129 18.083 18.1699C18.377 19.6341 19.6616 20.8662 21.3658 20.9333C22.1668 20.965 22.8962 20.7401 23.5482 20.2757C23.5777 20.2547 23.6023 20.2242 23.6588 20.2164C23.6588 20.3684 23.6578 20.5097 23.6591 20.6513C23.6598 20.7417 23.6614 20.7447 23.7484 20.7447C24.1277 20.7456 24.507 20.7443 24.8866 20.746C24.948 20.746 24.9841 20.7333 24.9752 20.6636V20.6643ZM21.4984 19.6208C20.3949 19.6451 19.3374 18.7464 19.3331 17.4893C19.3292 16.3664 20.2253 15.3511 21.4941 15.3504C22.7892 15.3498 23.6617 16.3927 23.6598 17.4851C23.6578 18.7179 22.6222 19.6422 21.4981 19.6204L21.4984 19.6208Z" fill="#164879"/>
</g>
<defs>
<filter id="filter0_d_304_1687" x="-6.6" y="-2.6" width="76.2" height="48.2" filterUnits="userSpaceOnUse" color-interpolation-filters="sRGB">
<feFlood flood-opacity="0" result="BackgroundImageFix"/>
<feColorMatrix in="SourceAlpha" type="matrix" values="0 0 0 0 0 0 0 0 0 0 0 0 0 0 0 0 0 0 127 0" result="hardAlpha"/>
<feOffset dy="4"/>
<feGaussianBlur stdDeviation="3.3"/>
<feComposite in2="hardAlpha" operator="out"/>
<feColorMatrix type="matrix" values="0 0 0 0 0 0 0 0 0 0 0 0 0 0 0 0 0 0 0.25 0"/>
<feBlend mode="normal" in2="BackgroundImageFix" result="effect1_dropShadow_304_1687"/>
<feBlend mode="normal" in="SourceGraphic" in2="effect1_dropShadow_304_1687" result="shape"/>
</filter>
</defs>
</svg>
