<svg width="196" height="62" viewBox="0 0 196 62" fill="none" xmlns="http://www.w3.org/2000/svg">
<path d="M80.6338 7.36988C80.6338 7.36988 80.6368 7.36688 80.6383 7.36538C81.8079 6.21188 83.1675 5.32088 84.6838 4.71488C86.1483 4.12838 87.698 3.83138 89.2888 3.83138C90.8796 3.83138 92.4294 4.12838 93.8939 4.71488C95.4072 5.31938 96.7668 6.21038 97.9348 7.36088L100.681 4.65188C94.3867 -1.55212 84.1849 -1.55062 77.8932 4.65638C77.8932 4.65638 77.8902 4.65938 77.8887 4.66088L80.6353 7.36988H80.6338Z" fill="#FF0079"/>
<path d="M86.5011 13.1478C86.5011 13.1478 86.4981 13.1508 86.4966 13.1523L89.2797 15.8973L92.0704 13.1448C90.5314 11.6313 88.0387 11.6313 86.4996 13.1493L86.5011 13.1478Z" fill="#FF0079"/>
<path d="M82.1623 8.86853C82.1623 8.86853 82.1592 8.87153 82.1577 8.87303L84.9043 11.582C84.9043 11.582 84.9074 11.579 84.9089 11.5775C86.0784 10.424 87.6342 9.78803 89.2889 9.78803C90.9436 9.78803 92.4948 10.4225 93.6643 11.573L96.411 8.86403C92.475 4.98653 86.0982 4.98803 82.1638 8.86853H82.1623Z" fill="#FF0079"/>
<path d="M74.7832 52.8846H77.5177C78.8849 52.8846 80.2536 52.8966 81.6209 52.8756C81.9828 52.8696 82.2338 52.9851 82.4984 53.2221C84.4162 54.9336 86.6807 55.8651 89.2615 55.8561C94.335 55.8366 98.1402 52.3476 99.0877 48.0396C99.4177 46.5396 99.2899 45.0246 99.3143 43.4931C99.0466 43.5141 98.9204 43.6776 98.7683 43.7841C96.1251 45.6516 93.1883 46.6521 89.9322 46.7991C82.2034 47.1501 75.0539 41.8431 73.4464 33.9861C73.2532 33.0411 73.1574 32.0826 73.159 31.1136C73.165 26.2536 73.162 21.3951 73.162 16.5351C73.162 16.4586 73.1605 16.3806 73.162 16.3041C73.1726 15.8856 73.1742 15.8751 73.5741 15.8751C75.3322 15.8706 77.0918 15.8781 78.8499 15.8691C79.1404 15.8691 79.2925 15.9381 79.2621 16.2546C79.2423 16.4646 79.259 16.6791 79.259 16.8906C79.259 21.5376 79.2879 26.1861 79.2514 30.8331C79.2149 35.4351 82.4786 39.5871 87.1232 40.5621C92.9982 41.7951 98.0915 37.9491 99.1074 32.8536C99.2473 32.1516 99.3173 31.4451 99.3158 30.7281C99.3112 26.0811 99.3143 21.4326 99.3143 16.7856C99.3143 16.6701 99.3143 16.5546 99.3143 16.4391C99.3112 15.8136 99.3036 15.8736 99.8846 15.8736C101.565 15.8736 103.246 15.8721 104.926 15.8736C105.404 15.8736 105.41 15.8811 105.411 16.3506C105.414 18.8376 105.411 21.3261 105.411 23.8131C105.411 31.1991 105.411 38.5851 105.411 45.9696C105.411 53.1381 100.485 59.4756 93.4666 61.3356C86.267 63.2436 78.5959 59.9706 75.0691 53.4876C74.9794 53.3211 74.9049 53.1471 74.7802 52.8846H74.7832Z" fill="#164879"/>
<path d="M124.943 39.5135C125.071 39.56 125.13 39.6635 125.197 39.758C126.205 41.2025 127.215 42.6455 128.221 44.0915C128.472 44.453 128.472 44.465 128.096 44.6975C126.462 45.7085 124.691 46.3085 122.761 46.4435C121.07 46.562 119.45 46.2995 117.925 45.566C115.464 44.384 114.002 42.3995 113.297 39.8345C113.024 38.8445 112.916 37.832 112.918 36.8045C112.923 32.12 112.919 27.434 112.919 22.7495C112.919 22.634 112.919 22.5185 112.919 22.403C112.913 21.905 112.913 21.902 112.401 21.899C111.756 21.896 111.111 21.8915 110.466 21.9005C110.223 21.9035 110.12 21.8285 110.12 21.572C110.127 19.7795 110.127 17.9855 110.12 16.193C110.12 15.932 110.234 15.866 110.474 15.869C111.139 15.878 111.803 15.8765 112.466 15.869C112.909 15.866 112.916 15.8585 112.916 15.4175C112.919 12.872 112.916 10.328 112.919 7.78253C112.919 6.96353 112.83 7.07003 113.627 7.06703C115.228 7.06253 116.831 7.06403 118.433 7.06703C119.01 7.06703 119.013 7.07003 119.015 7.62203C119.015 10.109 119.015 12.596 119.015 15.083C119.015 15.1985 119.013 15.314 119.015 15.4295C119.024 15.86 119.026 15.8675 119.474 15.8675C121.663 15.8705 123.851 15.8675 126.04 15.8675C126.177 15.8675 126.313 15.872 126.45 15.8675C126.64 15.8615 126.744 15.938 126.739 16.136C126.736 16.271 126.739 16.406 126.739 16.541C126.739 18.1025 126.741 19.664 126.739 21.2255C126.739 21.9695 126.811 21.8915 126.035 21.893C123.926 21.896 121.815 21.893 119.704 21.893C119.567 21.893 119.43 21.899 119.293 21.893C119.094 21.884 119.007 21.974 119.013 22.1675C119.018 22.3025 119.013 22.4375 119.013 22.5725C119.013 27.239 119.013 31.904 119.013 36.5705C119.013 37.2665 119.041 37.9565 119.266 38.6255C119.634 39.719 120.42 40.2845 121.559 40.394C122.689 40.5035 123.725 40.208 124.692 39.644C124.776 39.5945 124.863 39.551 124.94 39.5075L124.943 39.5135Z" fill="#164879"/>
<path d="M195.44 27.254C193.572 19.5695 186.142 14.1575 177.826 15.1445C174.121 15.584 170.917 17.096 168.328 19.724C164.382 23.7335 162.89 28.55 163.941 34.0565C165.235 40.8455 171.244 46.5395 179.143 46.8515C182.834 46.997 186.199 45.9665 189.212 43.841C189.366 43.733 189.521 43.6265 189.662 43.529C189.801 43.622 189.766 43.7255 189.767 43.814C189.769 44.6435 189.783 45.473 189.763 46.301C189.714 48.2405 189.144 50.027 188.002 51.6035C185.806 54.632 182.788 56.0675 179.03 55.8635C176.732 55.739 174.72 54.8315 173.017 53.3015C172.701 53.0165 172.393 52.898 171.975 52.916C171.312 52.9445 170.647 52.9235 169.983 52.9235H165.317C165.329 53.219 165.47 53.387 165.569 53.57C168.853 59.552 175.944 63.032 183.024 61.592C190.398 60.092 195.861 53.5625 195.869 46.1315C195.875 41.003 195.869 35.873 195.87 30.7445C195.87 29.5625 195.721 28.3985 195.443 27.2525L195.44 27.254ZM179.718 40.775C174.627 40.871 169.718 36.7175 169.718 30.8735C169.718 25.7135 173.829 21.032 179.713 21.0095C185.69 20.987 189.798 25.8065 189.773 30.926C189.748 36.5645 184.992 40.8875 179.718 40.7735V40.775Z" fill="#164879"/>
<path d="M32.1604 28.8951C31.6966 25.2831 30.1651 22.1616 27.5219 19.6446C23.335 15.6591 18.3147 14.2236 12.6344 15.4266C5.61274 16.9146 0.11949 23.0376 0.0480108 30.6741C-0.0447601 40.5096 0.0252007 50.3451 0.0267215 60.1806C0.0267215 60.7221 0.0312821 60.7266 0.566615 60.7281C2.24714 60.7311 3.92766 60.7311 5.60818 60.7281C6.11613 60.7281 6.11766 60.7221 6.12374 60.2211C6.12374 60.1056 6.12374 59.9901 6.12374 59.8746V43.3971C6.43247 43.6116 6.63778 43.7541 6.84461 43.8951C10.6726 46.5156 14.8974 47.4006 19.4402 46.4811C27.5933 44.8311 33.2372 37.2576 32.1619 28.8936L32.1604 28.8951ZM16.1308 40.7751C11.1759 40.8681 6.16936 36.9051 6.14047 30.9261C6.11461 25.4856 10.4475 21.0171 16.1369 21.0111C22.3602 21.0036 26.2504 26.1036 26.1957 30.9861C26.1349 36.4041 21.5024 40.8876 16.1308 40.7751Z" fill="#164879"/>
<path d="M160.532 45.6154C160.52 45.5014 160.531 45.3844 160.531 45.2689C160.531 40.4869 160.537 35.7034 160.526 30.9214C160.523 29.5879 160.347 28.2709 160.011 26.9764C158.058 19.4809 150.715 14.1649 142.466 15.1459C138.74 15.5884 135.528 17.1184 132.928 19.7689C129.082 23.6884 127.605 28.3999 128.529 33.7819C129.717 40.6969 135.793 46.5679 143.853 46.8559C147.546 46.9879 150.907 45.9439 153.911 43.8019C154.048 43.7044 154.16 43.5574 154.432 43.5394C154.432 44.2489 154.446 44.9224 154.426 45.5944C154.417 45.8974 154.525 45.9934 154.828 45.9889C155.746 45.9739 156.665 45.9844 157.583 45.9844C158.443 45.9844 159.304 45.9769 160.163 45.9874C160.44 45.9904 160.563 45.8959 160.532 45.6169V45.6154ZM144.383 40.7749C138.95 40.8649 134.366 36.3319 134.359 30.8944C134.351 26.0719 138.207 21.0184 144.395 21.0094C150.075 21.0019 154.432 25.4599 154.414 30.9049C154.393 36.9949 149.271 40.8964 144.383 40.7734V40.7749Z" fill="#164879"/>
<path d="M67.6915 45.6049C67.6748 45.4714 67.6885 45.3349 67.6885 45.1999C67.6885 40.4569 67.6824 35.714 67.6915 30.971C67.6961 28.3985 67.1106 25.9684 65.9167 23.6839C62.6804 17.4964 55.7271 13.8994 48.4286 15.3304C39.6367 17.0539 34.0172 25.4644 35.7464 34.0594C37.1091 40.8364 43.0632 46.5394 50.9624 46.8499C54.6747 46.9969 58.0555 45.956 61.0774 43.8065C61.2143 43.709 61.3284 43.5679 61.5899 43.5319C61.5899 44.2354 61.5854 44.8894 61.5915 45.5449C61.5945 45.9634 61.6021 45.9769 62.0051 45.9769C63.7632 45.9814 65.5213 45.9754 67.2809 45.9829C67.5653 45.9829 67.7326 45.9244 67.6915 45.6019V45.6049ZM51.5768 40.7749C46.4622 40.8874 41.5606 36.7279 41.5408 30.9094C41.5225 25.7119 45.6759 21.0124 51.557 21.0094C57.5597 21.0064 61.6036 25.8334 61.5945 30.8899C61.5854 36.5959 56.7856 40.8739 51.5753 40.7734L51.5768 40.7749Z" fill="#164879"/>
</svg>
