<svg width="148" height="148" viewBox="0 0 148 148" fill="none" xmlns="http://www.w3.org/2000/svg">
<path d="M11.84 11.8401V14.8001V53.2801H53.28V11.8401H11.84ZM94.72 11.8401V14.8001V53.2801H136.16V11.8401H94.72ZM17.76 17.7601H47.36V47.3601H17.76V17.7601ZM59.2 17.7601V20.7201V35.5201H71.04V44.4001H59.2V47.3601V59.2001H32.56V62.1601V71.0401H20.72V74.0001V88.8001H38.48V76.9601H47.36V88.8001H65.12V65.1201H71.04V76.9601H91.76V85.8401H106.56V94.7201H82.88V97.6801V106.56H71.04V109.52V124.32H88.8V112.48H106.56V136.16H136.16V106.56H112.48V100.64H136.16V71.0401H118.4V74.0001V79.9201H112.48V59.2001H76.96V50.3201H88.8V29.6001H76.96V17.7601H59.2ZM100.64 17.7601H130.24V47.3601H100.64V17.7601ZM23.68 23.6801V26.6401V41.4401H41.44V23.6801H23.68ZM65.12 23.6801H71.04V29.6001H65.12V23.6801ZM106.56 23.6801V26.6401V41.4401H124.32V23.6801H106.56ZM29.6 29.6001H35.52V35.5201H29.6V29.6001ZM112.48 29.6001H118.4V35.5201H112.48V29.6001ZM76.96 35.5201H82.88V44.4001H76.96V35.5201ZM65.12 50.3201H71.04V59.2001H65.12V50.3201ZM38.48 65.1201H59.2V82.8801H53.28V71.0401H38.48V65.1201ZM76.96 65.1201H106.56V79.9201H97.68V71.0401H76.96V65.1201ZM26.64 76.9601H32.56V82.8801H26.64V76.9601ZM124.32 76.9601H130.24V94.7201H112.48V85.8401H124.32V76.9601ZM11.84 94.7201V97.6801V136.16H53.28V94.7201H11.84ZM17.76 100.64H47.36V130.24H17.76V100.64ZM88.8 100.64H106.56V106.56H88.8V100.64ZM23.68 106.56V109.52V124.32H41.44V106.56H23.68ZM29.6 112.48H35.52V118.4H29.6V112.48ZM76.96 112.48H82.88V118.4H76.96V112.48ZM112.48 112.48H130.24V130.24H112.48V112.48Z" fill="#164879"/>
</svg>

