<svg width="304" height="304" viewBox="0 0 304 304" fill="none" xmlns="http://www.w3.org/2000/svg">
<circle opacity="0.05" cx="152" cy="152" r="152" fill="#164879"/>
<path d="M89.84 89.8401V92.8001V131.28H131.28V89.8401H89.84ZM172.72 89.8401V92.8001V131.28H214.16V89.8401H172.72ZM95.76 95.7601H125.36V125.36H95.76V95.7601ZM137.2 95.7601V98.7201V113.52H149.04V122.4H137.2V125.36V137.2H110.56V140.16V149.04H98.72V152V166.8H116.48V154.96H125.36V166.8H143.12V143.12H149.04V154.96H169.76V163.84H184.56V172.72H160.88V175.68V184.56H149.04V187.52V202.32H166.8V190.48H184.56V214.16H214.16V184.56H190.48V178.64H214.16V149.04H196.4V152V157.92H190.48V137.2H154.96V128.32H166.8V107.6H154.96V95.7601H137.2ZM178.64 95.7601H208.24V125.36H178.64V95.7601ZM101.68 101.68V104.64V119.44H119.44V101.68H101.68ZM143.12 101.68H149.04V107.6H143.12V101.68ZM184.56 101.68V104.64V119.44H202.32V101.68H184.56ZM107.6 107.6H113.52V113.52H107.6V107.6ZM190.48 107.6H196.4V113.52H190.48V107.6ZM154.96 113.52H160.88V122.4H154.96V113.52ZM143.12 128.32H149.04V137.2H143.12V128.32ZM116.48 143.12H137.2V160.88H131.28V149.04H116.48V143.12ZM154.96 143.12H184.56V157.92H175.68V149.04H154.96V143.12ZM104.64 154.96H110.56V160.88H104.64V154.96ZM202.32 154.96H208.24V172.72H190.48V163.84H202.32V154.96ZM89.84 172.72V175.68V214.16H131.28V172.72H89.84ZM95.76 178.64H125.36V208.24H95.76V178.64ZM166.8 178.64H184.56V184.56H166.8V178.64ZM101.68 184.56V187.52V202.32H119.44V184.56H101.68ZM107.6 190.48H113.52V196.4H107.6V190.48ZM154.96 190.48H160.88V196.4H154.96V190.48ZM190.48 190.48H208.24V208.24H190.48V190.48Z" fill="#164879"/>
</svg>

