<svg width="375" height="437" viewBox="0 0 375 437" fill="none" xmlns="http://www.w3.org/2000/svg">
<g filter="url(#filter0_d_677_1484)">
<path d="M0 80C0 68.799 0 63.1984 2.17987 58.9202C4.09734 55.1569 7.15695 52.0973 10.9202 50.1799C15.1984 48 20.799 48 32 48H343C354.201 48 359.802 48 364.08 50.1799C367.843 52.0973 370.903 55.1569 372.82 58.9202C375 63.1984 375 68.799 375 80V430.6C375 432.84 375 433.96 374.564 434.816C374.181 435.569 373.569 436.181 372.816 436.564C371.96 437 370.84 437 368.6 437H6.4C4.15979 437 3.03969 437 2.18404 436.564C1.43139 436.181 0.819467 435.569 0.435974 434.816C0 433.96 0 432.84 0 430.6V80Z" fill="white"/>
<rect x="113.5" y="56" width="148" height="5" rx="2.5" fill="#AFB9C3"/>
<path d="M45.8906 89.5576C45.8906 90.5479 45.7646 91.4502 45.5127 92.2646C45.2666 93.0732 44.8945 93.7705 44.3965 94.3564C43.8984 94.9365 43.2744 95.3848 42.5244 95.7012C41.7744 96.0176 40.8955 96.1758 39.8877 96.1758C38.8623 96.1758 37.9717 96.0176 37.2158 95.7012C36.4658 95.3848 35.8418 94.9336 35.3438 94.3477C34.8516 93.7617 34.4824 93.0615 34.2363 92.2471C33.9902 91.4326 33.8672 90.5303 33.8672 89.54C33.8672 88.2158 34.084 87.0615 34.5176 86.0771C34.957 85.0869 35.6221 84.3193 36.5127 83.7744C37.4092 83.2236 38.54 82.9482 39.9053 82.9482C41.2412 82.9482 42.3516 83.2207 43.2363 83.7656C44.1211 84.3105 44.7832 85.0781 45.2227 86.0684C45.668 87.0527 45.8906 88.2158 45.8906 89.5576ZM36.082 89.5576C36.082 90.5479 36.2168 91.4062 36.4863 92.1328C36.7559 92.8535 37.1689 93.4102 37.7256 93.8027C38.2881 94.1895 39.0088 94.3828 39.8877 94.3828C40.7725 94.3828 41.4932 94.1895 42.0498 93.8027C42.6064 93.4102 43.0166 92.8535 43.2803 92.1328C43.5439 91.4062 43.6758 90.5479 43.6758 89.5576C43.6758 88.0518 43.374 86.874 42.7705 86.0244C42.1729 85.1689 41.2178 84.7412 39.9053 84.7412C39.0264 84.7412 38.3027 84.9346 37.7344 85.3213C37.1719 85.708 36.7559 86.2617 36.4863 86.9824C36.2168 87.6973 36.082 88.5557 36.082 89.5576ZM53.4316 86.0859C54.5859 86.0859 55.5117 86.5078 56.209 87.3516C56.9121 88.1953 57.2637 89.4492 57.2637 91.1133C57.2637 92.2148 57.0996 93.1436 56.7715 93.8994C56.4492 94.6494 55.9951 95.2178 55.4092 95.6045C54.8291 95.9854 54.1523 96.1758 53.3789 96.1758C52.8867 96.1758 52.459 96.1113 52.0957 95.9824C51.7324 95.8535 51.4219 95.6865 51.1641 95.4814C50.9062 95.2705 50.6895 95.042 50.5137 94.7959H50.3906C50.4199 95.0303 50.4463 95.291 50.4697 95.5781C50.499 95.8594 50.5137 96.1172 50.5137 96.3516V100.315H48.4395V86.2705H50.127L50.417 87.6152H50.5137C50.6953 87.3398 50.915 87.085 51.1729 86.8506C51.4365 86.6162 51.7529 86.4316 52.1221 86.2969C52.4971 86.1562 52.9336 86.0859 53.4316 86.0859ZM52.8779 87.7734C52.3096 87.7734 51.8525 87.8877 51.5068 88.1162C51.167 88.3389 50.918 88.6758 50.7598 89.127C50.6074 89.5781 50.5254 90.1436 50.5137 90.8232V91.1133C50.5137 91.834 50.5869 92.4463 50.7334 92.9502C50.8857 93.4482 51.1348 93.8291 51.4805 94.0928C51.832 94.3506 52.3066 94.4795 52.9043 94.4795C53.4082 94.4795 53.8242 94.3418 54.1523 94.0664C54.4863 93.791 54.7354 93.3984 54.8994 92.8887C55.0635 92.3789 55.1455 91.7783 55.1455 91.0869C55.1455 90.0381 54.958 89.2236 54.583 88.6436C54.2139 88.0635 53.6455 87.7734 52.8779 87.7734ZM63.5303 86.0859C64.3975 86.0859 65.1416 86.2646 65.7627 86.6221C66.3838 86.9795 66.8613 87.4863 67.1953 88.1426C67.5293 88.7988 67.6963 89.584 67.6963 90.498V91.6055H61.2012C61.2246 92.5488 61.4766 93.2754 61.957 93.7852C62.4434 94.2949 63.123 94.5498 63.9961 94.5498C64.6172 94.5498 65.1738 94.4912 65.666 94.374C66.1641 94.251 66.6768 94.0723 67.2041 93.8379V95.5166C66.7178 95.7451 66.2227 95.9121 65.7188 96.0176C65.2148 96.123 64.6113 96.1758 63.9082 96.1758C62.9531 96.1758 62.1123 95.9912 61.3857 95.6221C60.665 95.2471 60.0996 94.6904 59.6895 93.9521C59.2852 93.2139 59.083 92.2969 59.083 91.2012C59.083 90.1113 59.2676 89.1855 59.6367 88.4238C60.0059 87.6621 60.5244 87.082 61.1924 86.6836C61.8604 86.2852 62.6396 86.0859 63.5303 86.0859ZM63.5303 87.6416C62.8799 87.6416 62.3525 87.8525 61.9482 88.2744C61.5498 88.6963 61.3154 89.3145 61.2451 90.1289H65.6748C65.6689 89.6426 65.5869 89.2119 65.4287 88.8369C65.2764 88.4619 65.042 88.1689 64.7256 87.958C64.415 87.7471 64.0166 87.6416 63.5303 87.6416ZM75.0967 86.0859C76.1924 86.0859 77.0449 86.3701 77.6543 86.9385C78.2695 87.501 78.5771 88.4062 78.5771 89.6543V96H76.5117V90.041C76.5117 89.2852 76.3564 88.7197 76.0459 88.3447C75.7354 87.9639 75.2549 87.7734 74.6045 87.7734C73.6611 87.7734 73.0049 88.0635 72.6357 88.6436C72.2725 89.2236 72.0908 90.0645 72.0908 91.166V96H70.0254V86.2705H71.6338L71.9238 87.5889H72.0381C72.249 87.249 72.5098 86.9707 72.8203 86.7539C73.1367 86.5312 73.4883 86.3643 73.875 86.2529C74.2676 86.1416 74.6748 86.0859 75.0967 86.0859ZM84.6768 86.2705H86.9268L88.9219 91.8252C89.0098 92.0771 89.0889 92.3262 89.1592 92.5723C89.2354 92.8125 89.2998 93.0498 89.3525 93.2842C89.4111 93.5186 89.458 93.7529 89.4932 93.9873H89.5459C89.6045 93.6826 89.6865 93.3428 89.792 92.9678C89.9033 92.5869 90.0264 92.2061 90.1611 91.8252L92.0771 86.2705H94.3008L90.126 97.3359C89.8857 97.9688 89.5898 98.5078 89.2383 98.9531C88.8926 99.4043 88.4824 99.7441 88.0078 99.9727C87.5332 100.207 86.9912 100.324 86.3818 100.324C86.0889 100.324 85.834 100.307 85.6172 100.271C85.4004 100.242 85.2158 100.21 85.0635 100.175V98.5225C85.1865 98.5518 85.3418 98.5781 85.5293 98.6016C85.7168 98.625 85.9102 98.6367 86.1094 98.6367C86.4785 98.6367 86.7979 98.5635 87.0674 98.417C87.3369 98.2705 87.5654 98.0625 87.7529 97.793C87.9404 97.5293 88.0957 97.2275 88.2188 96.8877L88.5615 95.9736L84.6768 86.2705ZM104.391 91.1133C104.391 91.9219 104.285 92.6396 104.074 93.2666C103.863 93.8936 103.556 94.4238 103.151 94.8574C102.747 95.2852 102.261 95.6133 101.692 95.8418C101.124 96.0645 100.482 96.1758 99.7676 96.1758C99.0996 96.1758 98.4873 96.0645 97.9307 95.8418C97.374 95.6133 96.8906 95.2852 96.4805 94.8574C96.0762 94.4238 95.7627 93.8936 95.54 93.2666C95.3174 92.6396 95.2061 91.9219 95.2061 91.1133C95.2061 90.041 95.3906 89.1328 95.7598 88.3887C96.1348 87.6387 96.668 87.0674 97.3594 86.6748C98.0508 86.2822 98.874 86.0859 99.8291 86.0859C100.726 86.0859 101.517 86.2822 102.202 86.6748C102.888 87.0674 103.424 87.6387 103.811 88.3887C104.197 89.1387 104.391 90.0469 104.391 91.1133ZM97.333 91.1133C97.333 91.8223 97.418 92.4287 97.5879 92.9326C97.7637 93.4365 98.0332 93.8232 98.3965 94.0928C98.7598 94.3564 99.2285 94.4883 99.8027 94.4883C100.377 94.4883 100.846 94.3564 101.209 94.0928C101.572 93.8232 101.839 93.4365 102.009 92.9326C102.179 92.4287 102.264 91.8223 102.264 91.1133C102.264 90.4043 102.179 89.8037 102.009 89.3115C101.839 88.8135 101.572 88.4355 101.209 88.1777C100.846 87.9141 100.374 87.7822 99.7939 87.7822C98.9385 87.7822 98.3145 88.0693 97.9219 88.6436C97.5293 89.2178 97.333 90.041 97.333 91.1133ZM115.245 86.2705V96H113.619L113.338 94.6904H113.224C113.019 95.0244 112.758 95.3027 112.441 95.5254C112.125 95.7422 111.773 95.9033 111.387 96.0088C111 96.1201 110.593 96.1758 110.165 96.1758C109.433 96.1758 108.806 96.0527 108.284 95.8066C107.769 95.5547 107.373 95.168 107.098 94.6465C106.822 94.125 106.685 93.4512 106.685 92.625V86.2705H108.759V92.2383C108.759 92.9941 108.911 93.5596 109.216 93.9346C109.526 94.3096 110.007 94.4971 110.657 94.4971C111.284 94.4971 111.782 94.3682 112.151 94.1104C112.521 93.8525 112.781 93.4717 112.934 92.9678C113.092 92.4639 113.171 91.8457 113.171 91.1133V86.2705H115.245ZM123.138 86.0859C123.302 86.0859 123.48 86.0947 123.674 86.1123C123.867 86.1299 124.034 86.1533 124.175 86.1826L123.981 88.1162C123.858 88.0811 123.706 88.0547 123.524 88.0371C123.349 88.0195 123.19 88.0107 123.05 88.0107C122.681 88.0107 122.329 88.0723 121.995 88.1953C121.661 88.3125 121.365 88.4941 121.107 88.7402C120.85 88.9805 120.647 89.2822 120.501 89.6455C120.354 90.0088 120.281 90.4307 120.281 90.9111V96H118.207V86.2705H119.824L120.105 87.9844H120.202C120.396 87.6387 120.636 87.3223 120.923 87.0352C121.21 86.748 121.538 86.5195 121.907 86.3496C122.282 86.1738 122.692 86.0859 123.138 86.0859ZM134.572 96.1758C133.652 96.1758 132.855 95.9971 132.182 95.6396C131.508 95.2822 130.989 94.7344 130.626 93.9961C130.263 93.2578 130.081 92.3203 130.081 91.1836C130.081 90 130.28 89.0332 130.679 88.2832C131.077 87.5332 131.628 86.9795 132.331 86.6221C133.04 86.2646 133.852 86.0859 134.766 86.0859C135.346 86.0859 135.87 86.1445 136.339 86.2617C136.813 86.373 137.215 86.5107 137.543 86.6748L136.928 88.3271C136.57 88.1807 136.204 88.0576 135.829 87.958C135.454 87.8584 135.094 87.8086 134.748 87.8086C134.18 87.8086 133.705 87.9346 133.324 88.1865C132.949 88.4385 132.668 88.8135 132.48 89.3115C132.299 89.8096 132.208 90.4277 132.208 91.166C132.208 91.8809 132.302 92.4844 132.489 92.9766C132.677 93.4629 132.955 93.832 133.324 94.084C133.693 94.3301 134.147 94.4531 134.687 94.4531C135.22 94.4531 135.697 94.3887 136.119 94.2598C136.541 94.1309 136.939 93.9639 137.314 93.7588V95.5518C136.945 95.7627 136.55 95.918 136.128 96.0176C135.706 96.123 135.188 96.1758 134.572 96.1758ZM143.414 86.0859C144.645 86.0859 145.573 86.3584 146.2 86.9033C146.833 87.4482 147.149 88.2979 147.149 89.4521V96H145.682L145.286 94.6201H145.216C144.94 94.9717 144.656 95.2617 144.363 95.4902C144.07 95.7188 143.73 95.8887 143.344 96C142.963 96.1172 142.497 96.1758 141.946 96.1758C141.366 96.1758 140.848 96.0703 140.391 95.8594C139.934 95.6426 139.573 95.3145 139.31 94.875C139.046 94.4355 138.914 93.8789 138.914 93.2051C138.914 92.2031 139.286 91.4502 140.03 90.9463C140.78 90.4424 141.911 90.1641 143.423 90.1113L145.11 90.0498V89.54C145.11 88.8662 144.952 88.3857 144.636 88.0986C144.325 87.8115 143.886 87.668 143.317 87.668C142.831 87.668 142.359 87.7383 141.902 87.8789C141.445 88.0195 141 88.1924 140.566 88.3975L139.898 86.9385C140.373 86.6865 140.912 86.4814 141.516 86.3232C142.125 86.165 142.758 86.0859 143.414 86.0859ZM145.102 91.3506L143.845 91.3945C142.813 91.4297 142.09 91.6055 141.674 91.9219C141.258 92.2383 141.05 92.6719 141.05 93.2227C141.05 93.7031 141.193 94.0547 141.48 94.2773C141.768 94.4941 142.146 94.6025 142.614 94.6025C143.329 94.6025 143.921 94.4004 144.39 93.9961C144.864 93.5859 145.102 92.9854 145.102 92.1943V91.3506ZM161.036 86.0859C162.126 86.0859 162.946 86.3672 163.497 86.9297C164.054 87.4922 164.332 88.3945 164.332 89.6367V96H162.267V90.0059C162.267 89.2676 162.123 88.7109 161.836 88.3359C161.549 87.9609 161.112 87.7734 160.526 87.7734C159.706 87.7734 159.114 88.0371 158.751 88.5645C158.394 89.0859 158.215 89.8447 158.215 90.8408V96H156.149V90.0059C156.149 89.5137 156.085 89.1035 155.956 88.7754C155.833 88.4414 155.643 88.1924 155.385 88.0283C155.127 87.8584 154.802 87.7734 154.409 87.7734C153.841 87.7734 153.387 87.9023 153.047 88.1602C152.713 88.418 152.473 88.7988 152.326 89.3027C152.18 89.8008 152.106 90.4131 152.106 91.1396V96H150.041V86.2705H151.649L151.939 87.5801H152.054C152.253 87.2402 152.499 86.9619 152.792 86.7451C153.091 86.5225 153.422 86.3584 153.785 86.2529C154.148 86.1416 154.526 86.0859 154.919 86.0859C155.646 86.0859 156.258 86.2148 156.756 86.4727C157.254 86.7246 157.626 87.1113 157.872 87.6328H158.03C158.335 87.1055 158.76 86.7158 159.305 86.4639C159.85 86.2119 160.427 86.0859 161.036 86.0859ZM171.091 86.0859C171.958 86.0859 172.702 86.2646 173.323 86.6221C173.944 86.9795 174.422 87.4863 174.756 88.1426C175.09 88.7988 175.257 89.584 175.257 90.498V91.6055H168.762C168.785 92.5488 169.037 93.2754 169.518 93.7852C170.004 94.2949 170.684 94.5498 171.557 94.5498C172.178 94.5498 172.734 94.4912 173.227 94.374C173.725 94.251 174.237 94.0723 174.765 93.8379V95.5166C174.278 95.7451 173.783 95.9121 173.279 96.0176C172.775 96.123 172.172 96.1758 171.469 96.1758C170.514 96.1758 169.673 95.9912 168.946 95.6221C168.226 95.2471 167.66 94.6904 167.25 93.9521C166.846 93.2139 166.644 92.2969 166.644 91.2012C166.644 90.1113 166.828 89.1855 167.197 88.4238C167.566 87.6621 168.085 87.082 168.753 86.6836C169.421 86.2852 170.2 86.0859 171.091 86.0859ZM171.091 87.6416C170.44 87.6416 169.913 87.8525 169.509 88.2744C169.11 88.6963 168.876 89.3145 168.806 90.1289H173.235C173.229 89.6426 173.147 89.2119 172.989 88.8369C172.837 88.4619 172.603 88.1689 172.286 87.958C171.976 87.7471 171.577 87.6416 171.091 87.6416ZM182.517 86.0859C182.681 86.0859 182.859 86.0947 183.053 86.1123C183.246 86.1299 183.413 86.1533 183.554 86.1826L183.36 88.1162C183.237 88.0811 183.085 88.0547 182.903 88.0371C182.728 88.0195 182.569 88.0107 182.429 88.0107C182.06 88.0107 181.708 88.0723 181.374 88.1953C181.04 88.3125 180.744 88.4941 180.486 88.7402C180.229 88.9805 180.026 89.2822 179.88 89.6455C179.733 90.0088 179.66 90.4307 179.66 90.9111V96H177.586V86.2705H179.203L179.484 87.9844H179.581C179.774 87.6387 180.015 87.3223 180.302 87.0352C180.589 86.748 180.917 86.5195 181.286 86.3496C181.661 86.1738 182.071 86.0859 182.517 86.0859ZM189.17 86.0859C190.4 86.0859 191.329 86.3584 191.956 86.9033C192.589 87.4482 192.905 88.2979 192.905 89.4521V96H191.438L191.042 94.6201H190.972C190.696 94.9717 190.412 95.2617 190.119 95.4902C189.826 95.7188 189.486 95.8887 189.1 96C188.719 96.1172 188.253 96.1758 187.702 96.1758C187.122 96.1758 186.604 96.0703 186.146 95.8594C185.689 95.6426 185.329 95.3145 185.065 94.875C184.802 94.4355 184.67 93.8789 184.67 93.2051C184.67 92.2031 185.042 91.4502 185.786 90.9463C186.536 90.4424 187.667 90.1641 189.179 90.1113L190.866 90.0498V89.54C190.866 88.8662 190.708 88.3857 190.392 88.0986C190.081 87.8115 189.642 87.668 189.073 87.668C188.587 87.668 188.115 87.7383 187.658 87.8789C187.201 88.0195 186.756 88.1924 186.322 88.3975L185.654 86.9385C186.129 86.6865 186.668 86.4814 187.271 86.3232C187.881 86.165 188.514 86.0859 189.17 86.0859ZM190.857 91.3506L189.601 91.3945C188.569 91.4297 187.846 91.6055 187.43 91.9219C187.014 92.2383 186.806 92.6719 186.806 93.2227C186.806 93.7031 186.949 94.0547 187.236 94.2773C187.523 94.4941 187.901 94.6025 188.37 94.6025C189.085 94.6025 189.677 94.4004 190.146 93.9961C190.62 93.5859 190.857 92.9854 190.857 92.1943V91.3506ZM204.287 86.0859C205.518 86.0859 206.446 86.3584 207.073 86.9033C207.706 87.4482 208.022 88.2979 208.022 89.4521V96H206.555L206.159 94.6201H206.089C205.813 94.9717 205.529 95.2617 205.236 95.4902C204.943 95.7188 204.604 95.8887 204.217 96C203.836 96.1172 203.37 96.1758 202.819 96.1758C202.239 96.1758 201.721 96.0703 201.264 95.8594C200.807 95.6426 200.446 95.3145 200.183 94.875C199.919 94.4355 199.787 93.8789 199.787 93.2051C199.787 92.2031 200.159 91.4502 200.903 90.9463C201.653 90.4424 202.784 90.1641 204.296 90.1113L205.983 90.0498V89.54C205.983 88.8662 205.825 88.3857 205.509 88.0986C205.198 87.8115 204.759 87.668 204.19 87.668C203.704 87.668 203.232 87.7383 202.775 87.8789C202.318 88.0195 201.873 88.1924 201.439 88.3975L200.771 86.9385C201.246 86.6865 201.785 86.4814 202.389 86.3232C202.998 86.165 203.631 86.0859 204.287 86.0859ZM205.975 91.3506L204.718 91.3945C203.687 91.4297 202.963 91.6055 202.547 91.9219C202.131 92.2383 201.923 92.6719 201.923 93.2227C201.923 93.7031 202.066 94.0547 202.354 94.2773C202.641 94.4941 203.019 94.6025 203.487 94.6025C204.202 94.6025 204.794 94.4004 205.263 93.9961C205.737 93.5859 205.975 92.9854 205.975 92.1943V91.3506ZM215.985 86.0859C217.081 86.0859 217.934 86.3701 218.543 86.9385C219.158 87.501 219.466 88.4062 219.466 89.6543V96H217.4V90.041C217.4 89.2852 217.245 88.7197 216.935 88.3447C216.624 87.9639 216.144 87.7734 215.493 87.7734C214.55 87.7734 213.894 88.0635 213.524 88.6436C213.161 89.2236 212.979 90.0645 212.979 91.166V96H210.914V86.2705H212.522L212.812 87.5889H212.927C213.138 87.249 213.398 86.9707 213.709 86.7539C214.025 86.5312 214.377 86.3643 214.764 86.2529C215.156 86.1416 215.563 86.0859 215.985 86.0859ZM225.627 96.1758C224.467 96.1758 223.535 95.7539 222.832 94.9102C222.135 94.0605 221.786 92.8096 221.786 91.1572C221.786 89.4873 222.141 88.2246 222.85 87.3691C223.564 86.5137 224.505 86.0859 225.671 86.0859C226.163 86.0859 226.594 86.1533 226.963 86.2881C227.332 86.417 227.648 86.5928 227.912 86.8154C228.182 87.0381 228.41 87.2871 228.598 87.5625H228.694C228.665 87.3809 228.63 87.1201 228.589 86.7803C228.554 86.4346 228.536 86.1152 228.536 85.8223V82.3242H230.61V96H228.993L228.624 94.6729H228.536C228.36 94.9541 228.138 95.209 227.868 95.4375C227.604 95.6602 227.288 95.8389 226.919 95.9736C226.556 96.1084 226.125 96.1758 225.627 96.1758ZM226.207 94.4971C227.092 94.4971 227.716 94.2422 228.079 93.7324C228.442 93.2227 228.63 92.458 228.642 91.4385V91.166C228.642 90.0762 228.466 89.2412 228.114 88.6611C227.763 88.0752 227.121 87.7822 226.189 87.7822C225.445 87.7822 224.877 88.084 224.484 88.6875C224.098 89.2852 223.904 90.1201 223.904 91.1924C223.904 92.2646 224.098 93.085 224.484 93.6533C224.877 94.2158 225.451 94.4971 226.207 94.4971ZM244.787 93.2227C244.787 93.8613 244.632 94.4004 244.321 94.8398C244.011 95.2793 243.557 95.6133 242.959 95.8418C242.367 96.0645 241.641 96.1758 240.779 96.1758C240.1 96.1758 239.514 96.126 239.021 96.0264C238.535 95.9326 238.075 95.7861 237.642 95.5869V93.8027C238.104 94.0195 238.623 94.207 239.197 94.3652C239.777 94.5234 240.325 94.6025 240.841 94.6025C241.521 94.6025 242.01 94.4971 242.309 94.2861C242.607 94.0693 242.757 93.7822 242.757 93.4248C242.757 93.2139 242.695 93.0264 242.572 92.8623C242.455 92.6924 242.232 92.5195 241.904 92.3438C241.582 92.1621 241.107 91.9453 240.48 91.6934C239.865 91.4473 239.347 91.2012 238.925 90.9551C238.503 90.709 238.184 90.4131 237.967 90.0674C237.75 89.7158 237.642 89.2676 237.642 88.7227C237.642 87.8613 237.981 87.208 238.661 86.7627C239.347 86.3115 240.252 86.0859 241.377 86.0859C241.975 86.0859 242.537 86.1475 243.064 86.2705C243.598 86.3877 244.119 86.5605 244.629 86.7891L243.979 88.3447C243.539 88.1514 243.097 87.9932 242.651 87.8701C242.212 87.7412 241.764 87.6768 241.307 87.6768C240.773 87.6768 240.366 87.7588 240.085 87.9229C239.81 88.0869 239.672 88.3213 239.672 88.626C239.672 88.8545 239.739 89.0479 239.874 89.2061C240.009 89.3643 240.24 89.5225 240.568 89.6807C240.902 89.8389 241.365 90.0352 241.957 90.2695C242.537 90.4922 243.038 90.7266 243.46 90.9727C243.888 91.2129 244.216 91.5088 244.444 91.8604C244.673 92.2119 244.787 92.666 244.787 93.2227ZM250.939 96.1758C250.02 96.1758 249.223 95.9971 248.549 95.6396C247.875 95.2822 247.356 94.7344 246.993 93.9961C246.63 93.2578 246.448 92.3203 246.448 91.1836C246.448 90 246.647 89.0332 247.046 88.2832C247.444 87.5332 247.995 86.9795 248.698 86.6221C249.407 86.2646 250.219 86.0859 251.133 86.0859C251.713 86.0859 252.237 86.1445 252.706 86.2617C253.181 86.373 253.582 86.5107 253.91 86.6748L253.295 88.3271C252.938 88.1807 252.571 88.0576 252.196 87.958C251.821 87.8584 251.461 87.8086 251.115 87.8086C250.547 87.8086 250.072 87.9346 249.691 88.1865C249.316 88.4385 249.035 88.8135 248.848 89.3115C248.666 89.8096 248.575 90.4277 248.575 91.166C248.575 91.8809 248.669 92.4844 248.856 92.9766C249.044 93.4629 249.322 93.832 249.691 94.084C250.061 94.3301 250.515 94.4531 251.054 94.4531C251.587 94.4531 252.064 94.3887 252.486 94.2598C252.908 94.1309 253.307 93.9639 253.682 93.7588V95.5518C253.312 95.7627 252.917 95.918 252.495 96.0176C252.073 96.123 251.555 96.1758 250.939 96.1758ZM259.781 86.0859C261.012 86.0859 261.94 86.3584 262.567 86.9033C263.2 87.4482 263.517 88.2979 263.517 89.4521V96H262.049L261.653 94.6201H261.583C261.308 94.9717 261.023 95.2617 260.73 95.4902C260.438 95.7188 260.098 95.8887 259.711 96C259.33 96.1172 258.864 96.1758 258.313 96.1758C257.733 96.1758 257.215 96.0703 256.758 95.8594C256.301 95.6426 255.94 95.3145 255.677 94.875C255.413 94.4355 255.281 93.8789 255.281 93.2051C255.281 92.2031 255.653 91.4502 256.397 90.9463C257.147 90.4424 258.278 90.1641 259.79 90.1113L261.478 90.0498V89.54C261.478 88.8662 261.319 88.3857 261.003 88.0986C260.692 87.8115 260.253 87.668 259.685 87.668C259.198 87.668 258.727 87.7383 258.27 87.8789C257.812 88.0195 257.367 88.1924 256.934 88.3975L256.266 86.9385C256.74 86.6865 257.279 86.4814 257.883 86.3232C258.492 86.165 259.125 86.0859 259.781 86.0859ZM261.469 91.3506L260.212 91.3945C259.181 91.4297 258.457 91.6055 258.041 91.9219C257.625 92.2383 257.417 92.6719 257.417 93.2227C257.417 93.7031 257.561 94.0547 257.848 94.2773C258.135 94.4941 258.513 94.6025 258.981 94.6025C259.696 94.6025 260.288 94.4004 260.757 93.9961C261.231 93.5859 261.469 92.9854 261.469 92.1943V91.3506ZM271.479 86.0859C272.575 86.0859 273.428 86.3701 274.037 86.9385C274.652 87.501 274.96 88.4062 274.96 89.6543V96H272.895V90.041C272.895 89.2852 272.739 88.7197 272.429 88.3447C272.118 87.9639 271.638 87.7734 270.987 87.7734C270.044 87.7734 269.388 88.0635 269.019 88.6436C268.655 89.2236 268.474 90.0645 268.474 91.166V96H266.408V86.2705H268.017L268.307 87.5889H268.421C268.632 87.249 268.893 86.9707 269.203 86.7539C269.52 86.5312 269.871 86.3643 270.258 86.2529C270.65 86.1416 271.058 86.0859 271.479 86.0859ZM286.148 94.5059C286.418 94.5059 286.685 94.4824 286.948 94.4355C287.212 94.3828 287.452 94.3213 287.669 94.251V95.8154C287.44 95.915 287.145 96 286.781 96.0703C286.418 96.1406 286.04 96.1758 285.647 96.1758C285.097 96.1758 284.602 96.085 284.162 95.9033C283.723 95.7158 283.374 95.3965 283.116 94.9453C282.858 94.4941 282.729 93.8701 282.729 93.0732V87.8438H281.402V86.9209L282.826 86.1914L283.503 84.1084H284.804V86.2705H287.59V87.8438H284.804V93.0469C284.804 93.5391 284.927 93.9053 285.173 94.1455C285.419 94.3857 285.744 94.5059 286.148 94.5059ZM291.712 82.3242V85.7607C291.712 86.1182 291.7 86.4668 291.677 86.8066C291.659 87.1465 291.639 87.4102 291.615 87.5977H291.729C291.935 87.2578 292.187 86.9795 292.485 86.7627C292.784 86.54 293.118 86.373 293.487 86.2617C293.862 86.1504 294.261 86.0947 294.683 86.0947C295.427 86.0947 296.06 86.2207 296.581 86.4727C297.103 86.7188 297.501 87.1025 297.776 87.624C298.058 88.1455 298.198 88.8223 298.198 89.6543V96H296.133V90.041C296.133 89.2852 295.978 88.7197 295.667 88.3447C295.356 87.9639 294.876 87.7734 294.226 87.7734C293.599 87.7734 293.101 87.9053 292.731 88.1689C292.368 88.4268 292.107 88.8105 291.949 89.3203C291.791 89.8242 291.712 90.4395 291.712 91.166V96H289.646V82.3242H291.712ZM304.966 86.0859C305.833 86.0859 306.577 86.2646 307.198 86.6221C307.819 86.9795 308.297 87.4863 308.631 88.1426C308.965 88.7988 309.132 89.584 309.132 90.498V91.6055H302.637C302.66 92.5488 302.912 93.2754 303.393 93.7852C303.879 94.2949 304.559 94.5498 305.432 94.5498C306.053 94.5498 306.609 94.4912 307.102 94.374C307.6 94.251 308.112 94.0723 308.64 93.8379V95.5166C308.153 95.7451 307.658 95.9121 307.154 96.0176C306.65 96.123 306.047 96.1758 305.344 96.1758C304.389 96.1758 303.548 95.9912 302.821 95.6221C302.101 95.2471 301.535 94.6904 301.125 93.9521C300.721 93.2139 300.519 92.2969 300.519 91.2012C300.519 90.1113 300.703 89.1855 301.072 88.4238C301.441 87.6621 301.96 87.082 302.628 86.6836C303.296 86.2852 304.075 86.0859 304.966 86.0859ZM304.966 87.6416C304.315 87.6416 303.788 87.8525 303.384 88.2744C302.985 88.6963 302.751 89.3145 302.681 90.1289H307.11C307.104 89.6426 307.022 89.2119 306.864 88.8369C306.712 88.4619 306.478 88.1689 306.161 87.958C305.851 87.7471 305.452 87.6416 304.966 87.6416ZM319.758 94.5059C320.027 94.5059 320.294 94.4824 320.558 94.4355C320.821 94.3828 321.062 94.3213 321.278 94.251V95.8154C321.05 95.915 320.754 96 320.391 96.0703C320.027 96.1406 319.649 96.1758 319.257 96.1758C318.706 96.1758 318.211 96.085 317.771 95.9033C317.332 95.7158 316.983 95.3965 316.726 94.9453C316.468 94.4941 316.339 93.8701 316.339 93.0732V87.8438H315.012V86.9209L316.436 86.1914L317.112 84.1084H318.413V86.2705H321.199V87.8438H318.413V93.0469C318.413 93.5391 318.536 93.9053 318.782 94.1455C319.028 94.3857 319.354 94.5059 319.758 94.5059ZM327.07 86.0859C328.301 86.0859 329.229 86.3584 329.856 86.9033C330.489 87.4482 330.806 88.2979 330.806 89.4521V96H329.338L328.942 94.6201H328.872C328.597 94.9717 328.312 95.2617 328.02 95.4902C327.727 95.7188 327.387 95.8887 327 96C326.619 96.1172 326.153 96.1758 325.603 96.1758C325.022 96.1758 324.504 96.0703 324.047 95.8594C323.59 95.6426 323.229 95.3145 322.966 94.875C322.702 94.4355 322.57 93.8789 322.57 93.2051C322.57 92.2031 322.942 91.4502 323.687 90.9463C324.437 90.4424 325.567 90.1641 327.079 90.1113L328.767 90.0498V89.54C328.767 88.8662 328.608 88.3857 328.292 88.0986C327.981 87.8115 327.542 87.668 326.974 87.668C326.487 87.668 326.016 87.7383 325.559 87.8789C325.102 88.0195 324.656 88.1924 324.223 88.3975L323.555 86.9385C324.029 86.6865 324.568 86.4814 325.172 86.3232C325.781 86.165 326.414 86.0859 327.07 86.0859ZM328.758 91.3506L327.501 91.3945C326.47 91.4297 325.746 91.6055 325.33 91.9219C324.914 92.2383 324.706 92.6719 324.706 93.2227C324.706 93.7031 324.85 94.0547 325.137 94.2773C325.424 94.4941 325.802 94.6025 326.271 94.6025C326.985 94.6025 327.577 94.4004 328.046 93.9961C328.521 93.5859 328.758 92.9854 328.758 92.1943V91.3506ZM336.475 100.324C335.156 100.324 334.146 100.087 333.442 99.6123C332.739 99.1377 332.388 98.4727 332.388 97.6172C332.388 97.0195 332.575 96.5127 332.95 96.0967C333.325 95.6865 333.861 95.4023 334.559 95.2441C334.295 95.127 334.066 94.9453 333.873 94.6992C333.686 94.4473 333.592 94.1689 333.592 93.8643C333.592 93.501 333.694 93.1904 333.899 92.9326C334.104 92.6748 334.412 92.4258 334.822 92.1855C334.312 91.9688 333.902 91.6172 333.592 91.1309C333.287 90.6387 333.135 90.0615 333.135 89.3994C333.135 88.6963 333.284 88.0986 333.583 87.6064C333.882 87.1084 334.318 86.7305 334.893 86.4727C335.467 86.209 336.161 86.0771 336.976 86.0771C337.151 86.0771 337.342 86.0889 337.547 86.1123C337.758 86.1299 337.951 86.1533 338.127 86.1826C338.309 86.2061 338.446 86.2324 338.54 86.2617H341.906V87.4131L340.254 87.7207C340.412 87.9434 340.538 88.1982 340.632 88.4854C340.726 88.7666 340.772 89.0742 340.772 89.4082C340.772 90.416 340.424 91.21 339.727 91.79C339.035 92.3643 338.08 92.6514 336.861 92.6514C336.568 92.6396 336.284 92.6162 336.009 92.5811C335.798 92.71 335.637 92.8535 335.525 93.0117C335.414 93.1641 335.358 93.3369 335.358 93.5303C335.358 93.6885 335.414 93.8174 335.525 93.917C335.637 94.0107 335.801 94.0811 336.018 94.1279C336.24 94.1748 336.51 94.1982 336.826 94.1982H338.505C339.571 94.1982 340.386 94.4238 340.948 94.875C341.511 95.3262 341.792 95.9883 341.792 96.8613C341.792 97.9688 341.335 98.8213 340.421 99.4189C339.507 100.022 338.191 100.324 336.475 100.324ZM336.554 98.874C337.274 98.874 337.881 98.8037 338.373 98.6631C338.865 98.5225 339.237 98.3203 339.489 98.0566C339.741 97.7988 339.867 97.4912 339.867 97.1338C339.867 96.8174 339.788 96.5742 339.63 96.4043C339.472 96.2344 339.234 96.1172 338.918 96.0527C338.602 95.9883 338.209 95.9561 337.74 95.9561H336.211C335.83 95.9561 335.493 96.0146 335.2 96.1318C334.907 96.2549 334.679 96.4307 334.515 96.6592C334.356 96.8877 334.277 97.1631 334.277 97.4854C334.277 97.9307 334.474 98.2734 334.866 98.5137C335.265 98.7539 335.827 98.874 336.554 98.874ZM336.958 91.2979C337.562 91.2979 338.01 91.1338 338.303 90.8057C338.596 90.4717 338.742 90.0029 338.742 89.3994C338.742 88.7432 338.59 88.251 338.285 87.9229C337.986 87.5947 337.541 87.4307 336.949 87.4307C336.369 87.4307 335.927 87.5977 335.622 87.9316C335.323 88.2656 335.174 88.7607 335.174 89.417C335.174 90.0088 335.323 90.4717 335.622 90.8057C335.927 91.1338 336.372 91.2979 336.958 91.2979ZM147.387 116.113C147.387 116.922 147.281 117.64 147.07 118.267C146.859 118.894 146.552 119.424 146.147 119.857C145.743 120.285 145.257 120.613 144.688 120.842C144.12 121.064 143.479 121.176 142.764 121.176C142.096 121.176 141.483 121.064 140.927 120.842C140.37 120.613 139.887 120.285 139.477 119.857C139.072 119.424 138.759 118.894 138.536 118.267C138.313 117.64 138.202 116.922 138.202 116.113C138.202 115.041 138.387 114.133 138.756 113.389C139.131 112.639 139.664 112.067 140.355 111.675C141.047 111.282 141.87 111.086 142.825 111.086C143.722 111.086 144.513 111.282 145.198 111.675C145.884 112.067 146.42 112.639 146.807 113.389C147.193 114.139 147.387 115.047 147.387 116.113ZM140.329 116.113C140.329 116.822 140.414 117.429 140.584 117.933C140.76 118.437 141.029 118.823 141.393 119.093C141.756 119.356 142.225 119.488 142.799 119.488C143.373 119.488 143.842 119.356 144.205 119.093C144.568 118.823 144.835 118.437 145.005 117.933C145.175 117.429 145.26 116.822 145.26 116.113C145.26 115.404 145.175 114.804 145.005 114.312C144.835 113.813 144.568 113.436 144.205 113.178C143.842 112.914 143.37 112.782 142.79 112.782C141.935 112.782 141.311 113.069 140.918 113.644C140.525 114.218 140.329 115.041 140.329 116.113ZM154.831 111.086C155.927 111.086 156.779 111.37 157.389 111.938C158.004 112.501 158.312 113.406 158.312 114.654V121H156.246V115.041C156.246 114.285 156.091 113.72 155.78 113.345C155.47 112.964 154.989 112.773 154.339 112.773C153.396 112.773 152.739 113.063 152.37 113.644C152.007 114.224 151.825 115.064 151.825 116.166V121H149.76V111.271H151.368L151.658 112.589H151.772C151.983 112.249 152.244 111.971 152.555 111.754C152.871 111.531 153.223 111.364 153.609 111.253C154.002 111.142 154.409 111.086 154.831 111.086ZM169.5 119.506C169.77 119.506 170.036 119.482 170.3 119.436C170.563 119.383 170.804 119.321 171.021 119.251V120.815C170.792 120.915 170.496 121 170.133 121.07C169.77 121.141 169.392 121.176 168.999 121.176C168.448 121.176 167.953 121.085 167.514 120.903C167.074 120.716 166.726 120.396 166.468 119.945C166.21 119.494 166.081 118.87 166.081 118.073V112.844H164.754V111.921L166.178 111.191L166.854 109.108H168.155V111.271H170.941V112.844H168.155V118.047C168.155 118.539 168.278 118.905 168.524 119.146C168.771 119.386 169.096 119.506 169.5 119.506ZM175.063 107.324V110.761C175.063 111.118 175.052 111.467 175.028 111.807C175.011 112.146 174.99 112.41 174.967 112.598H175.081C175.286 112.258 175.538 111.979 175.837 111.763C176.136 111.54 176.47 111.373 176.839 111.262C177.214 111.15 177.612 111.095 178.034 111.095C178.778 111.095 179.411 111.221 179.933 111.473C180.454 111.719 180.853 112.103 181.128 112.624C181.409 113.146 181.55 113.822 181.55 114.654V121H179.484V115.041C179.484 114.285 179.329 113.72 179.019 113.345C178.708 112.964 178.228 112.773 177.577 112.773C176.95 112.773 176.452 112.905 176.083 113.169C175.72 113.427 175.459 113.811 175.301 114.32C175.143 114.824 175.063 115.439 175.063 116.166V121H172.998V107.324H175.063ZM188.317 111.086C189.185 111.086 189.929 111.265 190.55 111.622C191.171 111.979 191.648 112.486 191.982 113.143C192.316 113.799 192.483 114.584 192.483 115.498V116.605H185.988C186.012 117.549 186.264 118.275 186.744 118.785C187.23 119.295 187.91 119.55 188.783 119.55C189.404 119.55 189.961 119.491 190.453 119.374C190.951 119.251 191.464 119.072 191.991 118.838V120.517C191.505 120.745 191.01 120.912 190.506 121.018C190.002 121.123 189.398 121.176 188.695 121.176C187.74 121.176 186.899 120.991 186.173 120.622C185.452 120.247 184.887 119.69 184.477 118.952C184.072 118.214 183.87 117.297 183.87 116.201C183.87 115.111 184.055 114.186 184.424 113.424C184.793 112.662 185.312 112.082 185.979 111.684C186.647 111.285 187.427 111.086 188.317 111.086ZM188.317 112.642C187.667 112.642 187.14 112.853 186.735 113.274C186.337 113.696 186.103 114.314 186.032 115.129H190.462C190.456 114.643 190.374 114.212 190.216 113.837C190.063 113.462 189.829 113.169 189.513 112.958C189.202 112.747 188.804 112.642 188.317 112.642ZM201.554 111.271V121H199.488V111.271H201.554ZM200.534 107.544C200.851 107.544 201.123 107.629 201.352 107.799C201.586 107.969 201.703 108.262 201.703 108.678C201.703 109.088 201.586 109.381 201.352 109.557C201.123 109.727 200.851 109.812 200.534 109.812C200.206 109.812 199.928 109.727 199.699 109.557C199.477 109.381 199.365 109.088 199.365 108.678C199.365 108.262 199.477 107.969 199.699 107.799C199.928 107.629 200.206 107.544 200.534 107.544ZM208.137 119.506C208.406 119.506 208.673 119.482 208.937 119.436C209.2 119.383 209.44 119.321 209.657 119.251V120.815C209.429 120.915 209.133 121 208.77 121.07C208.406 121.141 208.028 121.176 207.636 121.176C207.085 121.176 206.59 121.085 206.15 120.903C205.711 120.716 205.362 120.396 205.104 119.945C204.847 119.494 204.718 118.87 204.718 118.073V112.844H203.391V111.921L204.814 111.191L205.491 109.108H206.792V111.271H209.578V112.844H206.792V118.047C206.792 118.539 206.915 118.905 207.161 119.146C207.407 119.386 207.732 119.506 208.137 119.506ZM215.511 111.086C216.378 111.086 217.122 111.265 217.743 111.622C218.364 111.979 218.842 112.486 219.176 113.143C219.51 113.799 219.677 114.584 219.677 115.498V116.605H213.182C213.205 117.549 213.457 118.275 213.938 118.785C214.424 119.295 215.104 119.55 215.977 119.55C216.598 119.55 217.154 119.491 217.646 119.374C218.145 119.251 218.657 119.072 219.185 118.838V120.517C218.698 120.745 218.203 120.912 217.699 121.018C217.195 121.123 216.592 121.176 215.889 121.176C214.934 121.176 214.093 120.991 213.366 120.622C212.646 120.247 212.08 119.69 211.67 118.952C211.266 118.214 211.063 117.297 211.063 116.201C211.063 115.111 211.248 114.186 211.617 113.424C211.986 112.662 212.505 112.082 213.173 111.684C213.841 111.285 214.62 111.086 215.511 111.086ZM215.511 112.642C214.86 112.642 214.333 112.853 213.929 113.274C213.53 113.696 213.296 114.314 213.226 115.129H217.655C217.649 114.643 217.567 114.212 217.409 113.837C217.257 113.462 217.022 113.169 216.706 112.958C216.396 112.747 215.997 112.642 215.511 112.642ZM233.001 111.086C234.091 111.086 234.911 111.367 235.462 111.93C236.019 112.492 236.297 113.395 236.297 114.637V121H234.231V115.006C234.231 114.268 234.088 113.711 233.801 113.336C233.514 112.961 233.077 112.773 232.491 112.773C231.671 112.773 231.079 113.037 230.716 113.564C230.358 114.086 230.18 114.845 230.18 115.841V121H228.114V115.006C228.114 114.514 228.05 114.104 227.921 113.775C227.798 113.441 227.607 113.192 227.35 113.028C227.092 112.858 226.767 112.773 226.374 112.773C225.806 112.773 225.352 112.902 225.012 113.16C224.678 113.418 224.438 113.799 224.291 114.303C224.145 114.801 224.071 115.413 224.071 116.14V121H222.006V111.271H223.614L223.904 112.58H224.019C224.218 112.24 224.464 111.962 224.757 111.745C225.056 111.522 225.387 111.358 225.75 111.253C226.113 111.142 226.491 111.086 226.884 111.086C227.61 111.086 228.223 111.215 228.721 111.473C229.219 111.725 229.591 112.111 229.837 112.633H229.995C230.3 112.105 230.725 111.716 231.27 111.464C231.814 111.212 232.392 111.086 233.001 111.086Z" fill="#49535C"/>
<path opacity="0.9" fill-rule="evenodd" clip-rule="evenodd" d="M174.25 164.6H176.35V180.933H174.25V164.6ZM170.75 180.933V164.6H163.283V180.933H170.75ZM163.283 189.333V205.9H170.75V189.333H163.283ZM174.25 189.333H176.35V205.9H174.25V189.333ZM178.217 189.333V205.9H179.617V189.333H178.217ZM180.783 189.333V205.9H185.683V189.333H180.783ZM185.683 180.933H180.783V164.6H185.683V180.933ZM187.55 189.333V205.9H195.017V189.333H187.55ZM195.017 180.933H187.55V164.6H195.017V180.933ZM198.05 189.333V205.9H200.15V189.333H198.05ZM200.15 180.933H198.05V164.6H200.15V180.933ZM203.183 189.333V205.9H206.683V189.333H203.183ZM206.683 180.933H203.183V164.6H206.683V180.933ZM209.717 189.333V205.9H211.117V189.333H209.717ZM211.117 180.933H209.717V164.6H211.117V180.933ZM214.15 189.333V205.9H218.817V189.333H214.15ZM218.817 180.933H214.15V164.6H218.817V180.933ZM221.85 189.333V205.9H223.95V189.333H221.85ZM223.95 180.933H221.85V164.6H223.95V180.933ZM226.983 189.333V205.9H228.383V189.333H226.983ZM228.383 180.933H226.983V164.6H228.383V180.933ZM231.417 189.333V205.9H232.817V189.333H231.417ZM232.817 180.933H231.417V164.6H232.817V180.933ZM236.317 189.333V205.9H239.817V189.333H236.317ZM239.817 180.933H236.317V164.6H239.817V180.933ZM242.85 189.333V205.9H250.083V189.333H242.85ZM250.083 180.933H242.85V164.6H250.083V180.933ZM253.117 189.333V205.9H254.517V189.333H253.117ZM254.517 180.933H253.117V164.6H254.517V180.933ZM257.55 189.333V205.9H262.217L262.217 189.333H257.55ZM262.217 180.933L262.217 164.6H257.55V180.933H262.217ZM179.617 180.933H178.217V164.6H179.617V180.933Z" fill="#164879"/>
<rect x="156.75" y="184.433" width="112" height="1.4" fill="#ED1E79"/>
<path opacity="0.3" d="M258.483 159H265.008C266.559 159 267.817 160.258 267.817 161.809V168.333" stroke="#164879" stroke-width="2.45768" stroke-linecap="round"/>
<path opacity="0.3" d="M258.483 211.5H265.008C266.559 211.5 267.817 210.242 267.817 208.691V202.167" stroke="#164879" stroke-width="2.45768" stroke-linecap="round"/>
<path opacity="0.3" d="M167.017 159H160.492C158.941 159 157.683 160.258 157.683 161.809V168.333" stroke="#164879" stroke-width="2.45768" stroke-linecap="round"/>
<path opacity="0.3" d="M167.017 211.5H160.492C158.941 211.5 157.683 210.242 157.683 208.691V202.167" stroke="#164879" stroke-width="2.45768" stroke-linecap="round"/>
<g filter="url(#filter1_bi_677_1484)">
<rect x="130.223" y="179.773" width="66.6179" height="128.795" rx="8.44101" transform="rotate(-9.4875 130.223 179.773)" fill="white" fill-opacity="0.05"/>
<path d="M153.57 183.003L166.935 180.77" stroke="white" stroke-opacity="0.17" stroke-width="3.12687" stroke-linecap="round"/>
<path d="M173.873 179.61L174.901 179.439" stroke="white" stroke-opacity="0.17" stroke-width="3.12687" stroke-linecap="round"/>
</g>
<path d="M154.011 182.276L166.081 180.259" stroke="#051B30" stroke-width="3.12687" stroke-linecap="round"/>
<path d="M172.347 179.212L173.276 179.057" stroke="#051B30" stroke-width="3.12687" stroke-linecap="round"/>
<path fill-rule="evenodd" clip-rule="evenodd" d="M196.3 178.276C195.507 173.536 191.022 170.335 186.281 171.127L139.216 178.995C134.47 179.788 131.268 184.283 132.069 189.028M132.069 189.029L138.165 224.888L138.315 225.491C138.324 225.488 138.311 225.492 138.271 225.509L143.956 258.954C144.985 259.505 145.517 260.01 145.936 260.506C146.04 260.629 146.129 260.74 146.212 260.843C146.31 260.964 146.398 261.075 146.491 261.18C147.106 260.123 147.777 258.929 148.439 257.681C149.054 256.524 149.661 255.323 150.211 254.146C151.35 251.707 152.205 249.449 152.416 247.902C152.662 246.095 153.475 243.792 154.53 241.451C154.958 240.502 155.429 239.54 155.926 238.591C156.49 237.514 157.087 236.453 157.692 235.449C158.788 233.628 159.918 231.977 160.929 230.749C161.361 230.223 161.779 229.764 162.171 229.399C164.312 227.407 168.096 226.358 171.263 227.467C173.145 228.126 174.778 229.54 175.69 231.887C176.116 232.984 176.16 234.355 175.996 235.81C175.829 237.28 175.441 238.918 174.928 240.599C173.902 243.961 172.354 247.579 170.983 250.514C170.203 252.185 169.478 253.642 168.933 254.714C168.699 255.176 168.498 255.567 168.341 255.872C168.316 255.921 168.292 255.967 168.269 256.011C168.186 256.173 168.12 256.302 168.071 256.399C168.047 256.447 168.028 256.485 168.014 256.514C168.003 256.537 167.997 256.548 167.996 256.551C167.995 256.553 167.995 256.553 167.996 256.552C167.778 257.068 166.689 260.465 166.065 262.435C166.023 262.569 166 262.724 165.989 262.923C165.918 264.171 165.425 266.249 164.842 268.348C164.252 270.475 163.545 272.711 163.007 274.32C162.919 274.584 162.914 274.887 162.993 275.197C163.235 276.137 163.402 277.198 163.511 278.331C164.109 284.543 163 293.394 162.204 297.908C162.165 298.129 162.101 298.347 161.999 298.565C160.977 300.751 159.129 302.933 156.981 305.045C156.916 305.11 156.85 305.174 156.784 305.239L207.288 296.786C212.028 295.993 215.228 291.508 214.435 286.767L196.3 178.276M154.844 307.05L154.86 307.146L207.546 298.328C213.138 297.392 216.912 292.101 215.977 286.51L197.842 178.019C196.907 172.426 191.615 168.65 186.023 169.585L138.958 177.453C133.359 178.389 129.582 183.691 130.528 189.289L130.528 189.29L136.551 224.721C135.385 225.511 133.646 226.902 131.899 228.571C129.916 230.466 127.861 232.777 126.612 235.042C125.832 236.409 124.929 237.68 124.018 238.962C123.728 239.37 123.437 239.779 123.149 240.193C121.974 241.882 120.859 243.633 120.216 245.559L120.957 245.807L120.216 245.559C120.169 245.698 120.137 245.836 120.114 245.97L114.167 281.697L114.166 281.7L114.164 281.712L114.164 281.715C114.146 281.823 113.909 283.304 113.74 284.259C112.128 293.376 110.213 298.935 108.721 302.195C107.975 303.824 107.336 304.877 106.895 305.512C106.674 305.829 106.503 306.042 106.392 306.171C106.337 306.235 106.296 306.279 106.273 306.303C106.261 306.315 106.253 306.323 106.25 306.326L106.251 306.325L106.252 306.324C106.253 306.324 106.253 306.323 106.786 306.896C107.318 307.468 107.318 307.468 107.319 307.467L107.32 307.466L107.323 307.464L107.329 307.457L107.347 307.44C107.361 307.427 107.379 307.409 107.401 307.386C107.444 307.34 107.503 307.276 107.577 307.191C107.724 307.02 107.928 306.764 108.178 306.404C108.678 305.685 109.362 304.55 110.143 302.845C111.702 299.438 113.65 293.746 115.28 284.532C115.451 283.561 115.691 282.068 115.708 281.962L115.709 281.954L115.709 281.952L121.657 246.227C121.667 246.163 121.681 246.106 121.698 246.055C122.266 244.355 123.268 242.759 124.432 241.086C124.701 240.7 124.979 240.309 125.261 239.913C126.183 238.615 127.15 237.255 127.973 235.812L127.973 235.812L127.978 235.802C129.115 233.739 131.04 231.555 132.979 229.702C134.401 228.343 135.798 227.193 136.841 226.43L140.241 246.425C138.374 245.022 136.336 245.098 134.854 245.153C134.505 245.166 134.188 245.178 133.91 245.169L133.86 246.731C134.259 246.744 134.662 246.733 135.065 246.722C136.955 246.672 138.865 246.62 140.544 248.981L140.661 248.898L142.238 258.176C137.906 256.494 133.063 256.561 129.057 257.279L129.333 258.818C133.589 258.055 138.666 258.094 142.907 260.174C143.983 260.701 144.416 261.129 144.742 261.515C144.806 261.591 144.872 261.673 144.94 261.759C145.134 262.002 145.356 262.281 145.667 262.569C145.59 262.697 145.514 262.822 145.44 262.942C145.295 263.179 145.084 263.351 144.843 263.435C143.952 263.746 142.763 264.092 141.623 264.279C140.439 264.473 139.48 264.467 138.938 264.234L138.32 265.67C139.31 266.096 140.668 266.02 141.877 265.822C143.132 265.615 144.412 265.242 145.358 264.912L145.101 264.173L145.358 264.912C145.961 264.701 146.452 264.284 146.773 263.759C146.959 263.456 147.155 263.131 147.36 262.786C148.107 261.531 148.969 260.017 149.82 258.415C150.444 257.239 151.064 256.014 151.627 254.808C152.77 252.361 153.719 249.915 153.965 248.113C154.18 246.532 154.919 244.393 155.956 242.093C156.369 241.176 156.827 240.24 157.311 239.316C157.86 238.267 158.442 237.233 159.031 236.255C160.103 234.475 161.19 232.893 162.136 231.742C162.541 231.25 162.912 230.846 163.237 230.544C164.99 228.911 168.175 228.042 170.746 228.942C172.202 229.452 173.489 230.537 174.233 232.453C174.525 233.204 174.595 234.279 174.442 235.634C174.291 236.975 173.93 238.513 173.432 240.143C172.438 243.402 170.925 246.943 169.567 249.853C168.796 251.503 168.079 252.944 167.539 254.006C167.307 254.464 167.108 254.85 166.952 255.155L166.879 255.296L166.875 255.304C166.723 255.6 166.598 255.842 166.555 255.944L167.275 256.248L166.555 255.944C166.3 256.549 165.179 260.053 164.575 261.963C164.477 262.271 164.443 262.57 164.428 262.834C164.368 263.889 163.924 265.809 163.336 267.93C162.755 270.024 162.056 272.233 161.524 273.825C161.328 274.412 161.335 275.026 161.479 275.586C161.694 276.425 161.851 277.401 161.954 278.48C162.531 284.473 161.455 293.152 160.664 297.636C160.646 297.738 160.62 297.823 160.582 297.903C159.681 299.831 157.995 301.855 155.885 303.931C153.826 305.956 151.419 307.978 149.054 309.966L148.905 310.091C146.506 312.107 144.15 314.093 142.321 315.969C140.521 317.817 139.097 319.688 138.754 321.493L140.29 321.785C140.538 320.479 141.65 318.899 143.441 317.061C145.205 315.251 147.496 313.317 149.91 311.288L150.082 311.145C151.669 309.81 153.302 308.438 154.844 307.05Z" fill="#051B30"/>
<rect width="376" height="127" transform="translate(-0.5 310)" fill="url(#paint0_linear_677_1484)"/>
<rect x="20" y="353" width="335" height="48" rx="12" fill="url(#paint1_linear_677_1484)"/>
<path d="M165.778 377.452C165.778 379.567 165.175 381.188 163.968 382.312C162.767 383.438 161.029 384 158.756 384H155.117V371.15H159.151C161.249 371.15 162.878 371.704 164.038 372.812C165.198 373.919 165.778 375.466 165.778 377.452ZM162.948 377.522C162.948 374.763 161.729 373.383 159.292 373.383H157.842V381.75H159.011C161.636 381.75 162.948 380.341 162.948 377.522ZM168.116 371.634C168.116 370.761 168.603 370.324 169.575 370.324C170.548 370.324 171.034 370.761 171.034 371.634C171.034 372.05 170.911 372.375 170.665 372.609C170.425 372.838 170.062 372.952 169.575 372.952C168.603 372.952 168.116 372.513 168.116 371.634ZM170.911 384H168.23V374.174H170.911V384ZM180.588 381.082C180.588 382.09 180.236 382.857 179.533 383.385C178.836 383.912 177.79 384.176 176.396 384.176C175.681 384.176 175.071 384.126 174.567 384.026C174.063 383.933 173.592 383.792 173.152 383.604V381.39C173.65 381.624 174.21 381.82 174.831 381.979C175.458 382.137 176.009 382.216 176.483 382.216C177.456 382.216 177.942 381.935 177.942 381.372C177.942 381.161 177.878 380.991 177.749 380.862C177.62 380.728 177.397 380.578 177.081 380.414C176.765 380.244 176.343 380.048 175.815 379.825C175.06 379.509 174.503 379.216 174.146 378.946C173.794 378.677 173.536 378.369 173.372 378.023C173.214 377.672 173.135 377.241 173.135 376.731C173.135 375.858 173.472 375.185 174.146 374.71C174.825 374.229 175.786 373.989 177.028 373.989C178.212 373.989 179.363 374.247 180.482 374.763L179.674 376.696C179.182 376.485 178.722 376.312 178.294 376.178C177.866 376.043 177.43 375.976 176.984 375.976C176.193 375.976 175.798 376.189 175.798 376.617C175.798 376.857 175.924 377.065 176.176 377.241C176.434 377.417 176.993 377.678 177.854 378.023C178.622 378.334 179.185 378.624 179.542 378.894C179.899 379.163 180.163 379.474 180.333 379.825C180.503 380.177 180.588 380.596 180.588 381.082ZM191.478 384H188.797V378.261C188.797 377.552 188.677 377.021 188.437 376.67C188.202 376.312 187.83 376.134 187.32 376.134C186.635 376.134 186.137 376.386 185.826 376.89C185.516 377.394 185.36 378.223 185.36 379.377V384H182.68V374.174H184.728L185.088 375.431H185.237C185.501 374.979 185.882 374.628 186.38 374.376C186.878 374.118 187.449 373.989 188.094 373.989C189.564 373.989 190.561 374.47 191.082 375.431H191.319C191.583 374.974 191.97 374.619 192.479 374.367C192.995 374.115 193.575 373.989 194.22 373.989C195.333 373.989 196.174 374.276 196.742 374.851C197.316 375.419 197.604 376.333 197.604 377.593V384H194.914V378.261C194.914 377.552 194.794 377.021 194.554 376.67C194.319 376.312 193.947 376.134 193.438 376.134C192.781 376.134 192.289 376.368 191.961 376.837C191.639 377.306 191.478 378.05 191.478 379.069V384ZM200.249 371.634C200.249 370.761 200.735 370.324 201.708 370.324C202.681 370.324 203.167 370.761 203.167 371.634C203.167 372.05 203.044 372.375 202.798 372.609C202.558 372.838 202.194 372.952 201.708 372.952C200.735 372.952 200.249 372.513 200.249 371.634ZM203.044 384H200.363V374.174H203.044V384ZM212.721 381.082C212.721 382.09 212.369 382.857 211.666 383.385C210.969 383.912 209.923 384.176 208.528 384.176C207.813 384.176 207.204 384.126 206.7 384.026C206.196 383.933 205.725 383.792 205.285 383.604V381.39C205.783 381.624 206.343 381.82 206.964 381.979C207.591 382.137 208.142 382.216 208.616 382.216C209.589 382.216 210.075 381.935 210.075 381.372C210.075 381.161 210.011 380.991 209.882 380.862C209.753 380.728 209.53 380.578 209.214 380.414C208.897 380.244 208.476 380.048 207.948 379.825C207.192 379.509 206.636 379.216 206.278 378.946C205.927 378.677 205.669 378.369 205.505 378.023C205.347 377.672 205.268 377.241 205.268 376.731C205.268 375.858 205.604 375.185 206.278 374.71C206.958 374.229 207.919 373.989 209.161 373.989C210.345 373.989 211.496 374.247 212.615 374.763L211.807 376.696C211.314 376.485 210.854 376.312 210.427 376.178C209.999 376.043 209.562 375.976 209.117 375.976C208.326 375.976 207.931 376.189 207.931 376.617C207.931 376.857 208.057 377.065 208.309 377.241C208.566 377.417 209.126 377.678 209.987 378.023C210.755 378.334 211.317 378.624 211.675 378.894C212.032 379.163 212.296 379.474 212.466 379.825C212.636 380.177 212.721 380.596 212.721 381.082ZM221.668 381.082C221.668 382.09 221.316 382.857 220.613 383.385C219.916 383.912 218.87 384.176 217.476 384.176C216.761 384.176 216.151 384.126 215.647 384.026C215.144 383.933 214.672 383.792 214.232 383.604V381.39C214.73 381.624 215.29 381.82 215.911 381.979C216.538 382.137 217.089 382.216 217.563 382.216C218.536 382.216 219.022 381.935 219.022 381.372C219.022 381.161 218.958 380.991 218.829 380.862C218.7 380.728 218.478 380.578 218.161 380.414C217.845 380.244 217.423 380.048 216.896 379.825C216.14 379.509 215.583 379.216 215.226 378.946C214.874 378.677 214.616 378.369 214.452 378.023C214.294 377.672 214.215 377.241 214.215 376.731C214.215 375.858 214.552 375.185 215.226 374.71C215.905 374.229 216.866 373.989 218.108 373.989C219.292 373.989 220.443 374.247 221.562 374.763L220.754 376.696C220.262 376.485 219.802 376.312 219.374 376.178C218.946 376.043 218.51 375.976 218.064 375.976C217.273 375.976 216.878 376.189 216.878 376.617C216.878 376.857 217.004 377.065 217.256 377.241C217.514 377.417 218.073 377.678 218.935 378.023C219.702 378.334 220.265 378.624 220.622 378.894C220.979 379.163 221.243 379.474 221.413 379.825C221.583 380.177 221.668 380.596 221.668 381.082Z" fill="white"/>
</g>
<defs>
<filter id="filter0_d_677_1484" x="-40.5" y="0" width="456" height="469" filterUnits="userSpaceOnUse" color-interpolation-filters="sRGB">
<feFlood flood-opacity="0" result="BackgroundImageFix"/>
<feColorMatrix in="SourceAlpha" type="matrix" values="0 0 0 0 0 0 0 0 0 0 0 0 0 0 0 0 0 0 127 0" result="hardAlpha"/>
<feOffset dy="-8"/>
<feGaussianBlur stdDeviation="20"/>
<feColorMatrix type="matrix" values="0 0 0 0 0 0 0 0 0 0 0 0 0 0 0 0 0 0 0.1 0"/>
<feBlend mode="normal" in2="BackgroundImageFix" result="effect1_dropShadow_677_1484"/>
<feBlend mode="normal" in="SourceGraphic" in2="effect1_dropShadow_677_1484" result="shape"/>
</filter>
<filter id="filter1_bi_677_1484" x="121.884" y="160.454" width="103.613" height="154.69" filterUnits="userSpaceOnUse" color-interpolation-filters="sRGB">
<feFlood flood-opacity="0" result="BackgroundImageFix"/>
<feGaussianBlur in="BackgroundImageFix" stdDeviation="4.16916"/>
<feComposite in2="SourceAlpha" operator="in" result="effect1_backgroundBlur_677_1484"/>
<feBlend mode="normal" in="SourceGraphic" in2="effect1_backgroundBlur_677_1484" result="shape"/>
<feColorMatrix in="SourceAlpha" type="matrix" values="0 0 0 0 0 0 0 0 0 0 0 0 0 0 0 0 0 0 127 0" result="hardAlpha"/>
<feOffset/>
<feGaussianBlur stdDeviation="2.08458"/>
<feComposite in2="hardAlpha" operator="arithmetic" k2="-1" k3="1"/>
<feColorMatrix type="matrix" values="0 0 0 0 1 0 0 0 0 1 0 0 0 0 1 0 0 0 0.25 0"/>
<feBlend mode="normal" in2="shape" result="effect2_innerShadow_677_1484"/>
</filter>
<linearGradient id="paint0_linear_677_1484" x1="188" y1="0" x2="188" y2="127" gradientUnits="userSpaceOnUse">
<stop stop-color="white" stop-opacity="0"/>
<stop offset="0.452083" stop-color="white"/>
<stop offset="1" stop-color="white"/>
</linearGradient>
<linearGradient id="paint1_linear_677_1484" x1="20" y1="361.5" x2="333.399" y2="538.329" gradientUnits="userSpaceOnUse">
<stop stop-color="#B02763"/>
<stop offset="1" stop-color="#ED1E79"/>
</linearGradient>
</defs>
</svg>

