<svg width="324" height="324" viewBox="0 0 324 324" fill="none" xmlns="http://www.w3.org/2000/svg">
<circle opacity="0.05" cx="162" cy="162" r="162" fill="#164879"/>
<path opacity="0.3" d="M260.926 116.881C260.926 156.028 229.192 187.762 190.045 187.762C150.899 187.762 119.164 156.028 119.164 116.881C119.164 77.7346 150.899 46 190.045 46C229.192 46 260.926 77.7346 260.926 116.881ZM136.527 116.881C136.527 146.438 160.488 170.399 190.045 170.399C219.602 170.399 243.563 146.438 243.563 116.881C243.563 87.3241 219.602 63.3634 190.045 63.3634C160.488 63.3634 136.527 87.3241 136.527 116.881Z" fill="#164879"/>
<path opacity="0.6" d="M236.877 116.881C236.877 142.746 215.91 163.713 190.045 163.713C164.18 163.713 143.213 142.746 143.213 116.881C143.213 91.0164 164.18 70.049 190.045 70.049C215.91 70.049 236.877 91.0164 236.877 116.881ZM162.3 116.881C162.3 132.204 174.722 144.626 190.045 144.626C205.368 144.626 217.79 132.204 217.79 116.881C217.79 101.558 205.368 89.1362 190.045 89.1362C174.722 89.1362 162.3 101.558 162.3 116.881Z" fill="#164879"/>
<circle opacity="0.9" cx="190.045" cy="116.881" r="20.2517" fill="#164879"/>
<g filter="url(#filter0_bi_180_1435)">
<rect x="109.038" y="109.964" width="80.8994" height="156.405" rx="9.11792" transform="rotate(-9.4875 109.038 109.964)" fill="white" fill-opacity="0.05"/>
<path d="M138.667 112.716L153.103 110.304" stroke="white" stroke-opacity="0.17" stroke-width="3.37762" stroke-linecap="round"/>
<path d="M160.597 109.051L161.708 108.866" stroke="white" stroke-opacity="0.17" stroke-width="3.37762" stroke-linecap="round"/>
</g>
<path d="M137.927 113.004L152.584 110.554" stroke="#092643" stroke-width="3.37762" stroke-linecap="round"/>
<path d="M160.194 109.283L161.321 109.094" stroke="#092643" stroke-width="3.37762" stroke-linecap="round"/>
<path fill-rule="evenodd" clip-rule="evenodd" d="M189.384 108.129C188.412 102.315 182.911 98.3893 177.097 99.3612L119.942 108.915C114.121 109.888 110.195 115.401 111.177 121.22M111.178 121.221L118.407 163.748C118.416 163.746 118.425 163.744 118.434 163.741L118.84 165.381C118.84 165.381 118.84 165.381 118.839 165.381C118.83 165.384 118.785 165.4 118.695 165.444L125.621 206.188C126.889 206.86 127.534 207.472 128.04 208.071C128.163 208.217 128.27 208.35 128.37 208.474C128.523 208.665 128.659 208.835 128.813 208.999C129.58 207.684 130.422 206.188 131.253 204.623C132 203.216 132.738 201.757 133.406 200.326C134.79 197.363 135.834 194.608 136.093 192.712C136.39 190.533 137.372 187.747 138.653 184.907C139.171 183.758 139.742 182.59 140.345 181.439C141.028 180.134 141.752 178.848 142.486 177.629C143.816 175.421 145.185 173.421 146.408 171.934C146.931 171.298 147.436 170.745 147.908 170.306C150.481 167.91 155.036 166.649 158.842 167.981C161.099 168.772 163.059 170.466 164.155 173.288C164.664 174.597 164.719 176.242 164.52 178.002C164.319 179.779 163.849 181.762 163.227 183.799C161.983 187.875 160.105 192.263 158.442 195.826C157.496 197.854 156.615 199.622 155.954 200.924C155.669 201.485 155.425 201.96 155.234 202.33L155.148 202.498C155.047 202.694 154.966 202.851 154.907 202.969C154.877 203.028 154.854 203.075 154.837 203.11C154.821 203.142 154.814 203.157 154.813 203.161C154.812 203.162 154.812 203.162 154.812 203.161C154.545 203.795 153.22 207.927 152.465 210.315C152.41 210.489 152.381 210.688 152.367 210.934C152.282 212.437 151.686 214.949 150.978 217.5C150.262 220.08 149.404 222.794 148.752 224.747C148.637 225.089 148.632 225.478 148.732 225.87C149.024 227.005 149.226 228.288 149.358 229.66C150.083 237.19 148.738 247.927 147.772 253.406C147.726 253.667 147.651 253.922 147.532 254.178C146.299 256.815 144.065 259.454 141.46 262.017C141.301 262.173 141.141 262.329 140.979 262.486L202.642 252.166C208.455 251.193 212.38 245.692 211.408 239.878L189.384 108.129M138.917 264.403L138.94 264.539L202.921 253.831C209.654 252.704 214.199 246.333 213.074 239.6L191.05 107.851C189.924 101.116 183.552 96.5698 176.818 97.6955L119.664 107.25C112.921 108.377 108.374 114.762 109.512 121.502L109.513 121.503L116.838 164.597C115.429 165.544 113.294 167.247 111.146 169.299C108.741 171.597 106.254 174.396 104.745 177.133C103.795 178.798 102.694 180.347 101.586 181.906C101.235 182.4 100.883 182.896 100.534 183.396C99.1077 185.447 97.7614 187.563 96.9854 189.887C96.9311 190.049 96.8929 190.211 96.8665 190.37L89.6436 233.756L89.6432 233.758L89.6407 233.774L89.6402 233.777C89.6193 233.907 89.331 235.707 89.1256 236.868C87.1661 247.946 84.8389 254.705 83.0225 258.674C82.1147 260.657 81.3355 261.941 80.7954 262.718C80.5253 263.107 80.315 263.368 80.1782 263.527C80.1098 263.607 80.0597 263.661 80.0297 263.692C80.0147 263.708 80.0048 263.718 80 263.722L80.0006 263.722C80.0011 263.721 80.0016 263.721 80.5767 264.339C81.1518 264.957 81.1524 264.957 81.153 264.956L81.1543 264.955L81.1572 264.952L81.1646 264.945L81.1849 264.926C81.201 264.91 81.2221 264.889 81.2479 264.862C81.2996 264.808 81.3703 264.731 81.4584 264.629C81.6346 264.424 81.8803 264.116 82.182 263.682C82.7854 262.814 83.6131 261.441 84.5581 259.376C86.4476 255.248 88.8105 248.345 90.7886 237.162C90.9968 235.985 91.2873 234.172 91.3078 234.044L91.3095 234.033L91.3099 234.031L98.5324 190.647C98.5461 190.565 98.5644 190.49 98.5872 190.422C99.2815 188.343 100.506 186.394 101.921 184.361C102.248 183.891 102.586 183.415 102.929 182.932C104.048 181.358 105.218 179.712 106.215 177.964L106.215 177.964L106.221 177.954C107.608 175.435 109.955 172.773 112.313 170.521C114.105 168.808 115.865 167.368 117.151 166.438L121.352 191.153C119.064 189.305 116.532 189.397 114.676 189.465C114.249 189.481 113.857 189.495 113.513 189.484L113.459 191.172C113.935 191.187 114.418 191.174 114.904 191.16C117.204 191.097 119.584 191.032 121.658 193.947L121.809 193.84L123.764 205.34C118.484 203.238 112.549 203.309 107.641 204.188L107.939 205.851C113.119 204.923 119.31 204.967 124.488 207.506C125.808 208.154 126.345 208.682 126.751 209.162C126.831 209.256 126.911 209.358 126.996 209.464C127.244 209.775 127.526 210.128 127.928 210.491C127.818 210.672 127.711 210.848 127.607 211.018C127.419 211.325 127.144 211.55 126.828 211.661C125.742 212.04 124.291 212.461 122.9 212.689C121.46 212.926 120.269 212.923 119.581 212.628L118.914 214.179C120.085 214.683 121.707 214.597 123.174 214.356C124.69 214.107 126.239 213.655 127.384 213.255C128.092 213.008 128.669 212.518 129.048 211.9C129.272 211.533 129.51 211.138 129.759 210.72C130.665 209.197 131.712 207.359 132.744 205.416C133.502 203.989 134.253 202.503 134.936 201.04C136.324 198.069 137.47 195.112 137.766 192.94C138.03 191.005 138.932 188.396 140.192 185.601C140.696 184.485 141.252 183.347 141.841 182.222C142.509 180.947 143.216 179.69 143.933 178.5C145.236 176.336 146.559 174.41 147.712 173.007C148.206 172.407 148.659 171.914 149.058 171.542C151.214 169.535 155.121 168.468 158.283 169.575C160.08 170.204 161.666 171.543 162.581 173.9C162.945 174.835 163.028 176.16 162.842 177.813C162.657 179.449 162.217 181.324 161.612 183.306C160.402 187.271 158.562 191.576 156.912 195.112C155.976 197.117 155.104 198.868 154.448 200.159C154.166 200.715 153.924 201.185 153.734 201.555L153.646 201.726C153.457 202.093 153.307 202.385 153.256 202.506L154.034 202.834L153.256 202.506C152.949 203.234 151.59 207.482 150.855 209.806C150.74 210.168 150.699 210.522 150.681 210.838C150.608 212.132 150.065 214.473 149.351 217.048C148.645 219.593 147.796 222.278 147.15 224.212C146.919 224.903 146.926 225.627 147.097 226.291C147.36 227.317 147.551 228.508 147.677 229.822C148.379 237.114 147.07 247.665 146.109 253.113C146.086 253.245 146.051 253.356 146.002 253.463C144.899 255.822 142.84 258.29 140.275 260.813C137.772 263.276 134.847 265.734 131.976 268.146L131.793 268.3C128.878 270.749 126.022 273.157 123.806 275.431C121.62 277.674 119.912 279.927 119.501 282.085L121.16 282.4C121.468 280.781 122.839 278.843 125.015 276.61C127.161 274.408 129.948 272.056 132.879 269.593L133.087 269.419C135.033 267.784 137.033 266.103 138.917 264.403Z" fill="#092643"/>
<defs>
<filter id="filter0_bi_180_1435" x="92.0283" y="79.6193" width="139.593" height="201.621" filterUnits="userSpaceOnUse" color-interpolation-filters="sRGB">
<feFlood flood-opacity="0" result="BackgroundImageFix"/>
<feGaussianBlur in="BackgroundImageFix" stdDeviation="8.505"/>
<feComposite in2="SourceAlpha" operator="in" result="effect1_backgroundBlur_180_1435"/>
<feBlend mode="normal" in="SourceGraphic" in2="effect1_backgroundBlur_180_1435" result="shape"/>
<feColorMatrix in="SourceAlpha" type="matrix" values="0 0 0 0 0 0 0 0 0 0 0 0 0 0 0 0 0 0 127 0" result="hardAlpha"/>
<feOffset/>
<feGaussianBlur stdDeviation="2.25175"/>
<feComposite in2="hardAlpha" operator="arithmetic" k2="-1" k3="1"/>
<feColorMatrix type="matrix" values="0 0 0 0 1 0 0 0 0 1 0 0 0 0 1 0 0 0 0.25 0"/>
<feBlend mode="normal" in2="shape" result="effect2_innerShadow_180_1435"/>
</filter>
</defs>
</svg>
