<svg width="25" height="26" viewBox="0 0 25 26" fill="none" xmlns="http://www.w3.org/2000/svg">
<path d="M19.8507 7.79102H5.14926C4.97017 7.79202 4.79752 7.87077 4.66358 8.01256C4.52964 8.15434 4.44357 8.34945 4.42146 8.56141L3.12962 22.4503C3.11813 22.5713 3.12812 22.6939 3.15894 22.81C3.18976 22.9261 3.24071 23.0331 3.3085 23.1242C3.37628 23.2153 3.45938 23.2884 3.55238 23.3386C3.64538 23.3889 3.74621 23.4153 3.84832 23.416H21.1517C21.2538 23.4153 21.3546 23.3889 21.4476 23.3386C21.5406 23.2884 21.6237 23.2153 21.6915 23.1242C21.7593 23.0331 21.8102 22.9261 21.8411 22.81C21.8719 22.6939 21.8819 22.5713 21.8704 22.4503L20.5785 8.56141C20.5564 8.34945 20.4704 8.15434 20.3364 8.01256C20.2025 7.87077 20.0298 7.79202 19.8507 7.79102V7.79102Z" stroke="#029EB0" stroke-width="2" stroke-linecap="round" stroke-linejoin="round"/>
<path d="M8.33325 10.9173V7.21361C8.33325 5.98576 8.77224 4.8082 9.55364 3.93997C10.335 3.07175 11.3948 2.58398 12.4999 2.58398C13.605 2.58398 14.6648 3.07175 15.4462 3.93997C16.2276 4.8082 16.6666 5.98576 16.6666 7.21361V10.9173" stroke="#029EB0" stroke-width="2" stroke-linecap="round" stroke-linejoin="round"/>
</svg>
