<svg width="170" height="203" viewBox="0 0 170 203" fill="none" xmlns="http://www.w3.org/2000/svg">
<path d="M141.719 1L104.04 28.3687L104.956 29.7905M120.924 54.5822L169 23.748M120.924 54.5822L119.591 55.6485L117.014 51.7387M120.924 54.5822L118.347 50.5812M117.014 51.7387L118.347 50.5812M117.014 51.7387L113.726 53.2493L111.238 50.5812M118.347 50.5812L104.956 29.7905M111.238 50.5812L113.084 49.695M111.238 50.5812C109.698 50.7301 105.675 52.0586 101.907 56.1817C100.693 57.0407 97.4285 58.9008 94.0872 59.4695C90.8692 60.0172 90.9219 60.2484 88.311 61.0167M113.726 50.5812L113.084 49.695M104.956 29.7905L100.663 32.5451L101.907 34.2628M113.084 49.695L101.907 34.2628M77.2918 53.2493C77.2982 53.3905 77.298 53.5298 77.2918 53.6668M69.0274 48.0955C68.9222 49.1269 69.0114 50.972 69.8372 52.183M77.2918 53.6668C77.2301 55.0479 76.5758 56.1949 76.2255 56.626C75.072 57.802 72.8409 60.1143 71.249 61.8698M77.2918 53.6668C74.705 52.4891 74.0998 53.3401 72.7597 53.4432M72.7597 53.4432C72.3505 53.4747 71.8727 53.4364 71.249 53.2493C70.6319 53.0642 70.1735 52.6762 69.8372 52.183M72.7597 53.4432C72.7894 54.2672 72.6886 56.0573 72.0488 56.626C71.249 57.3369 70.4493 60.4492 71.249 61.8698M71.249 61.8698C70.8472 62.313 70.4861 62.7206 70.1934 63.0656M69.8372 52.183C69.6858 52.9531 68.7608 55.0443 66.2726 57.248V62.8462M66.2726 62.8462C64.7086 63.0594 61.1185 64.6704 59.5189 65.4493M66.2726 62.8462C67.2277 62.6074 69.3489 62.317 70.1934 63.0656M101.907 34.2628C99.6264 35.8229 93.0742 38.8541 85.1119 38.4987C75.1591 38.0544 76.2255 35.8329 72.0488 38.0544C67.8722 40.2759 60.3187 55.0265 59.9632 56.626C59.6789 57.9056 59.5486 62.9646 59.5189 65.3342V65.4493M77.5566 67.7334C78.4162 68.9182 80.3665 71.3056 81.2907 71.3767C82.446 71.4655 85.9146 71.0212 84.401 66.9337M77.5566 67.7334C78.9167 66.1707 80.3609 64.6818 81.8239 63.5763M77.5566 67.7334C77.1027 68.2549 76.6582 68.7846 76.2255 69.3111M84.401 66.9337C83.7197 66.3834 82.2505 64.9415 81.8239 63.5763M84.401 66.9337C85.6155 67.4668 88.2577 68.2133 89.1108 66.9337C89.9639 65.6541 88.9331 62.4558 88.311 61.0167M81.8239 63.5763C82.9185 62.7493 84.0236 62.1368 85.1119 61.8687C86.5192 61.522 87.5333 61.2455 88.311 61.0167M36.2364 78.752L41.9238 77.5968L40.2353 74.6645H47.1668L52.3209 75.9625M36.2364 78.752L32.3402 108.609M36.2364 78.752L51.7019 82.4841M100.663 87.8157L81.8239 83.1843M100.663 87.8157L98.5 88.7931M100.663 87.8157L101.976 112.163M93.1097 92.4363L88.9331 129.313M93.1097 92.4363L93.5985 91.992M93.1097 92.4363L78.8914 89.0153L75.2619 88.0822M66.4978 69.7772C66.1401 70.6989 65.8224 71.6312 65.5617 72.5318C64.5842 75.9085 67.6945 76.1751 70.0049 75.9973C70.6336 75.949 71.5847 74.9927 72.7597 73.5957M66.4978 69.7772C66.7189 69.5699 66.5392 68.8708 64.051 67.7334C63.3951 67.4336 62.7747 67.3195 62.1849 67.3453M66.4978 69.7772C66.9358 68.6483 67.4339 67.5353 67.9611 66.5156M72.7597 73.5957C73.8854 74.1297 75.5856 79.0186 73.3818 94.3024C72.6413 94.7763 71.3694 96.4801 73.3818 97.2347C75.5145 98.0345 75.3368 94.0358 74.3593 94.3024C75.5294 87.4898 77.2076 73.3671 74.5593 71.3767M72.7597 73.5957C73.3133 72.9376 73.9166 72.1816 74.5593 71.3767M74.5593 71.3767C79.6247 74.2912 79.9134 80.0696 79.4246 82.5945M74.5593 71.3767C75.0898 70.7123 75.6471 70.0146 76.2255 69.3111M79.4246 82.5945L81.8239 83.1843M79.4246 82.5945L75.8552 81.6843M81.8239 83.1843C82.0872 79.8855 81.3361 72.4925 76.2255 69.3111M67.9611 66.5156C67.2064 66.0757 66.1793 65.6293 65.0092 65.3342M67.9611 66.5156C68.3069 65.8465 68.6653 65.2176 69.0274 64.6507M56.2309 76.8927C56.6271 74.6763 58.415 68.9061 58.808 68.5332M56.2309 76.8927L58.5414 77.4607M56.2309 76.8927L54.5162 76.5305M58.808 68.5332C58.0082 68.9775 57.1922 70.2377 56.7641 70.6658C54.7202 72.7095 51.8766 88.4377 52.3209 88.7931C52.7652 89.1485 53.2095 89.6817 53.1207 90.6591C53.0318 91.6366 51.6989 91.8143 51.5211 91.8143C51.3434 91.8143 50.6325 91.9032 50.3659 90.6591C50.1526 89.6639 50.751 89.0004 51.0768 88.7931C52.4986 82.5729 50.3659 76.9748 54.9868 69.3111C56.2558 67.2066 57.8542 66.0263 59.5189 65.4493M58.808 68.5332C59.5189 67.8586 60.5638 67.4163 62.1849 67.3453M58.5414 77.4607C58.8673 74.3655 60.0521 68.0091 62.1849 67.3453M58.5414 77.4607L68.983 80.0276L74.4517 81.3289M59.5189 65.4493C61.3896 64.8009 63.3441 64.9143 65.0092 65.3342M70.1934 63.0656C70.1269 63.1439 70.064 63.2189 70.0049 63.2905C69.6803 63.6834 69.3523 64.1421 69.0274 64.6507M65.0092 65.3342C65.7562 65.0267 67.6056 64.4594 69.0274 64.6507M102.618 124.07L100.663 124.819M102.618 124.07L116.57 118.739M102.618 124.07L101.976 112.163M88.9331 129.313L91.6879 128.258M88.9331 129.313L62.1849 138.288L30.0159 126.419M91.6879 128.258L93.5985 91.992M91.6879 128.258L94.0872 127.338M93.5985 91.992L94.0872 91.5477V89.0153M94.0872 127.338V89.0153M94.0872 127.338L97.5318 126M94.0872 89.0153L96 88.7931M97.5318 126L96 88.7931M97.5318 126L100.663 124.819M96 88.7931H98.5M98.5 88.7931L100.663 124.819M30.0159 126.419L7 118.739M30.0159 126.419L32.3402 108.609M116.57 118.739L117.014 181.562L62.1849 202L7 181.562V118.739M116.57 118.739L101.976 112.163M7 118.739L32.3402 108.609M74.1514 87.8157L71.7822 87.3047L64.6731 85.5942L58.1875 84.0391L53.0891 82.7507" stroke="#164879" stroke-width="1.5"/>
<g clip-path="url(#clip0_775_1071)" filter="url(#filter0_d_775_1071)">
<path d="M30.8529 152.876C30.8529 152.876 30.8536 152.875 30.854 152.875C31.1344 152.683 31.4603 152.574 31.8238 152.552C32.1749 152.53 32.5464 152.589 32.9277 152.728C33.3091 152.867 33.6806 153.078 34.0317 153.355C34.3945 153.642 34.7204 153.988 35.0004 154.383L35.6588 153.932C34.1498 151.8 31.7042 150.91 30.1959 151.944C30.1959 151.944 30.1952 151.945 30.1948 151.945L30.8533 152.876L30.8529 152.876Z" fill="#FF0079"/>
<path d="M32.2594 154.862C32.2594 154.862 32.2587 154.862 32.2583 154.862L32.9255 155.806L33.5945 155.347C33.2255 154.826 32.628 154.609 32.259 154.862L32.2594 154.862Z" fill="#FF0079"/>
<path d="M31.2192 153.391C31.2192 153.391 31.2185 153.392 31.2181 153.392L31.8766 154.323C31.8766 154.323 31.8773 154.322 31.8777 154.322C32.158 154.13 32.531 154.103 32.9277 154.248C33.3243 154.392 33.6962 154.689 33.9766 155.085L34.635 154.633C33.6915 153.301 32.1628 152.745 31.2196 153.391L31.2192 153.391Z" fill="#FF0079"/>
<path d="M29.4503 163.976L30.1058 164.215C30.4336 164.334 30.7617 164.457 31.0895 164.571C31.1762 164.601 31.2364 164.652 31.2998 164.736C31.7596 165.34 32.3024 165.775 32.9211 165.998C34.1374 166.435 35.0496 165.877 35.2767 164.861C35.3558 164.507 35.3252 164.11 35.331 163.721C35.2669 163.703 35.2366 163.734 35.2001 163.748C34.5665 163.993 33.8625 163.992 33.0819 163.746C31.2291 163.161 29.5152 161.183 29.1298 159.039C29.0835 158.781 29.0606 158.528 29.0609 158.281C29.0624 157.041 29.0616 155.802 29.0616 154.562C29.0616 154.542 29.0613 154.522 29.0616 154.503C29.0642 154.397 29.0646 154.394 29.1605 154.429C29.5819 154.582 30.0037 154.737 30.4252 154.888C30.4948 154.914 30.5313 154.944 30.524 155.022C30.5193 155.074 30.5233 155.13 30.5233 155.184C30.5233 156.37 30.5302 157.558 30.5214 158.741C30.5127 159.912 31.2951 161.256 32.4085 161.909C33.8169 162.737 35.0379 162.2 35.2814 160.989C35.315 160.822 35.3318 160.648 35.3314 160.465C35.3303 159.279 35.331 158.093 35.331 156.908C35.331 156.878 35.331 156.849 35.331 156.819C35.3303 156.659 35.3285 156.674 35.4677 156.725C35.8706 156.871 36.2735 157.018 36.6763 157.165C36.7908 157.206 36.7923 157.209 36.7926 157.329C36.7934 157.963 36.7926 158.598 36.7926 159.232C36.7926 161.117 36.7926 163.001 36.7926 164.885C36.7926 166.713 35.6118 167.9 33.9292 167.763C32.2033 167.621 30.3643 166.117 29.5188 164.155C29.4973 164.105 29.4795 164.054 29.4496 163.976L29.4503 163.976Z" fill="#164879"/>
<path d="M41.475 164.942C41.5056 164.965 41.5198 164.997 41.5359 165.027C41.7776 165.483 42.0197 165.939 42.2607 166.396C42.3208 166.51 42.3208 166.513 42.2308 166.54C41.8392 166.655 41.4145 166.653 40.9518 166.52C40.5464 166.402 40.1581 166.194 39.7924 165.874C39.2025 165.357 38.8522 164.724 38.683 164.008C38.6177 163.731 38.5919 163.464 38.5922 163.202C38.5933 162.007 38.5926 160.811 38.5926 159.616C38.5926 159.587 38.5926 159.557 38.5926 159.528C38.5911 159.4 38.5911 159.399 38.4683 159.354C38.3137 159.297 38.1591 159.24 38.0045 159.186C37.9462 159.165 37.9214 159.137 37.9214 159.072C37.9232 158.615 37.9232 158.157 37.9214 157.699C37.9214 157.633 37.9487 157.626 38.0063 157.648C38.1657 157.708 38.325 157.765 38.4839 157.821C38.59 157.859 38.5919 157.858 38.5919 157.745C38.5926 157.096 38.5919 156.447 38.5926 155.798C38.5926 155.589 38.5711 155.608 38.7621 155.677C39.146 155.816 39.5303 155.956 39.9142 156.096C40.0527 156.147 40.0535 156.148 40.0538 156.289C40.0538 156.923 40.0538 157.558 40.0538 158.192C40.0538 158.222 40.0535 158.251 40.0538 158.281C40.056 158.391 40.0564 158.393 40.1639 158.432C40.6886 158.624 41.2132 158.814 41.7378 159.005C41.7707 159.017 41.8035 159.03 41.8363 159.041C41.8819 159.056 41.9066 159.085 41.9056 159.135C41.9048 159.169 41.9056 159.204 41.9056 159.238C41.9056 159.637 41.9059 160.035 41.9056 160.433C41.9056 160.623 41.9227 160.609 41.7368 160.542C41.2311 160.359 40.725 160.174 40.219 159.99C40.1862 159.978 40.1534 159.967 40.1206 159.954C40.0728 159.934 40.052 159.95 40.0535 159.999C40.0546 160.034 40.0535 160.068 40.0535 160.103C40.0535 161.293 40.0535 162.483 40.0535 163.674C40.0535 163.851 40.06 164.03 40.114 164.22C40.2022 164.531 40.3907 164.744 40.6638 164.871C40.9347 164.998 41.1829 165.013 41.4148 164.953C41.4349 164.948 41.4557 164.945 41.4742 164.94L41.475 164.942Z" fill="#164879"/>
<path d="M58.3749 167.966C57.9272 165.842 56.1458 163.813 54.1523 163.339C53.2642 163.128 52.496 163.234 51.8755 163.679C50.9294 164.358 50.5717 165.456 50.8236 166.953C51.1339 168.797 52.5744 170.774 54.468 171.543C55.3529 171.902 56.1597 171.933 56.8819 171.654C56.9187 171.64 56.9559 171.626 56.9898 171.613C57.023 171.649 57.0146 171.673 57.015 171.695C57.0154 171.907 57.0186 172.12 57.0139 172.329C57.0022 172.82 56.8655 173.226 56.5917 173.528C56.0652 174.109 55.3419 174.212 54.441 173.832C53.8901 173.6 53.4078 173.193 52.9995 172.654C52.9236 172.554 52.85 172.497 52.7497 172.465C52.5908 172.414 52.4314 172.351 52.2721 172.293L51.1536 171.886C51.1565 171.962 51.1904 172.018 51.2141 172.073C52.0012 173.885 53.7013 175.392 55.3984 175.642C57.1663 175.903 58.4759 174.714 58.4777 172.819C58.4792 171.511 58.4777 170.202 58.4781 168.894C58.4781 168.592 58.4423 168.282 58.3756 167.966L58.3749 167.966ZM54.6058 170.043C53.3856 169.624 52.2087 168.136 52.2087 166.645C52.2087 165.328 53.1942 164.493 54.6047 165C56.0375 165.516 57.0223 167.104 57.0164 168.408C57.0103 169.844 55.8702 170.532 54.6058 170.043V170.043Z" fill="#164879"/>
<path d="M19.2325 154.138C19.1213 153.176 18.7542 152.246 18.1205 151.373C17.1168 149.991 15.9133 149.187 14.5516 148.998C12.8683 148.765 11.5515 149.848 11.5343 151.789C11.5121 154.291 11.5289 156.806 11.5292 159.315C11.5292 159.453 11.5303 159.455 11.6587 159.502C12.0615 159.649 12.4644 159.796 12.8673 159.942C12.989 159.986 12.9894 159.985 12.9908 159.857C12.9908 159.828 12.9908 159.798 12.9908 159.769V155.565C13.0649 155.647 13.1141 155.701 13.1637 155.755C14.0813 156.758 15.0941 157.352 16.1831 157.514C18.1377 157.805 19.4906 156.365 19.2329 154.137L19.2325 154.138ZM15.3898 155.77C14.202 155.361 13.0018 153.913 12.9949 152.385C12.9887 150.995 14.0274 150.233 15.3913 150.728C16.8831 151.269 17.8157 152.91 17.8026 154.151C17.788 155.527 16.6775 156.267 15.3898 155.77Z" fill="#164879"/>
<path d="M50.0066 169.604C50.0037 169.574 50.0063 169.545 50.0063 169.515C50.0063 168.295 50.0077 167.076 50.0052 165.855C50.0044 165.514 49.9621 165.163 49.8816 164.803C49.4135 162.721 47.6532 160.724 45.6757 160.254C44.7825 160.042 44.0125 160.152 43.3891 160.602C42.467 161.266 42.113 162.339 42.3347 163.793C42.6194 165.66 44.0759 167.688 46.0082 168.465C46.8934 168.821 47.6992 168.848 48.4192 168.563C48.452 168.551 48.479 168.523 48.5443 168.542C48.5443 168.723 48.5476 168.896 48.5428 169.066C48.5406 169.142 48.5665 169.176 48.6391 169.201C48.8593 169.278 49.0795 169.361 49.2997 169.441C49.5057 169.516 49.712 169.589 49.918 169.667C49.9844 169.691 50.0139 169.678 50.0066 169.604V169.604ZM46.1351 166.96C44.8328 166.509 43.734 164.953 43.7321 163.565C43.7303 162.334 44.6545 161.381 46.138 161.919C47.4998 162.412 48.5443 163.93 48.5399 165.317C48.5348 166.869 47.3069 167.417 46.1351 166.96V166.96Z" fill="#164879"/>
<path d="M27.7503 161.501C27.7463 161.465 27.7496 161.431 27.7496 161.397C27.7496 160.187 27.7481 158.976 27.7503 157.767C27.7514 157.111 27.611 156.44 27.3248 155.753C26.549 153.893 24.8821 152.368 23.1325 152.096C21.0248 151.769 19.6777 153.424 20.0922 155.768C20.4189 157.616 21.8462 159.59 23.7399 160.358C24.6298 160.72 25.4403 160.749 26.1647 160.465C26.1975 160.452 26.2249 160.426 26.2876 160.439C26.2876 160.619 26.2865 160.785 26.2879 160.953C26.2887 161.06 26.2905 161.064 26.3871 161.099C26.8086 161.254 27.23 161.406 27.6518 161.561C27.72 161.586 27.7601 161.586 27.7503 161.5V161.501ZM23.8872 158.862C22.6611 158.445 21.486 156.956 21.4813 155.47C21.4769 154.142 22.4726 153.306 23.8824 153.818C25.3214 154.341 26.2909 155.925 26.2887 157.215C26.2865 158.669 25.1359 159.342 23.8868 158.862L23.8872 158.862Z" fill="#164879"/>
</g>
<defs>
<filter id="filter0_d_775_1071" x="-6.6" y="124.4" width="83.2" height="80.0059" filterUnits="userSpaceOnUse" color-interpolation-filters="sRGB">
<feFlood flood-opacity="0" result="BackgroundImageFix"/>
<feColorMatrix in="SourceAlpha" type="matrix" values="0 0 0 0 0 0 0 0 0 0 0 0 0 0 0 0 0 0 127 0" result="hardAlpha"/>
<feOffset dy="4"/>
<feGaussianBlur stdDeviation="3.3"/>
<feComposite in2="hardAlpha" operator="out"/>
<feColorMatrix type="matrix" values="0 0 0 0 0 0 0 0 0 0 0 0 0 0 0 0 0 0 0.25 0"/>
<feBlend mode="normal" in2="BackgroundImageFix" result="effect1_dropShadow_775_1071"/>
<feBlend mode="normal" in="SourceGraphic" in2="effect1_dropShadow_775_1071" result="shape"/>
</filter>
<clipPath id="clip0_775_1071">
<rect width="74.4924" height="41.328" fill="white" transform="matrix(0.939693 0.34202 0 1 0 127)"/>
</clipPath>
</defs>
</svg>

