<svg width="151" height="150" viewBox="0 0 151 150" fill="none" xmlns="http://www.w3.org/2000/svg">
<g opacity="0.6">
<g opacity="0.7">
<path d="M132 76C132 90.8521 126.1 105.096 115.598 115.598C105.096 126.1 90.8521 132 76 132C61.1479 132 46.9041 126.1 36.402 115.598C25.9 105.096 20 90.8521 20 76H33.7181C33.7181 87.2139 38.1728 97.9685 46.1022 105.898C54.0316 113.827 64.7861 118.282 76 118.282C87.2139 118.282 97.9684 113.827 105.898 105.898C113.827 97.9684 118.282 87.2139 118.282 76H132Z" fill="#D9D9D9"/>
<path d="M132 76C132 90.8521 126.1 105.096 115.598 115.598C105.096 126.1 90.8521 132 76 132C61.1479 132 46.9041 126.1 36.402 115.598C25.9 105.096 20 90.8521 20 76H33.7181C33.7181 87.2139 38.1728 97.9685 46.1022 105.898C54.0316 113.827 64.7861 118.282 76 118.282C87.2139 118.282 97.9684 113.827 105.898 105.898C113.827 97.9684 118.282 87.2139 118.282 76H132Z" fill="url(#paint0_linear_126_1805)"/>
</g>
<g opacity="0.3">
<path d="M150 76C150 95.626 142.204 114.448 128.326 128.326C114.448 142.204 95.626 150 76 150C56.374 150 37.5518 142.204 23.6741 128.326C9.79641 114.448 2 95.626 2 76H14.3462C14.3462 92.3516 20.8418 108.034 32.4042 119.596C43.9665 131.158 59.6484 137.654 76 137.654C92.3516 137.654 108.033 131.158 119.596 119.596C131.158 108.033 137.654 92.3516 137.654 76H150Z" fill="#D9D9D9"/>
<path d="M150 76C150 95.626 142.204 114.448 128.326 128.326C114.448 142.204 95.626 150 76 150C56.374 150 37.5518 142.204 23.6741 128.326C9.79641 114.448 2 95.626 2 76H14.3462C14.3462 92.3516 20.8418 108.034 32.4042 119.596C43.9665 131.158 59.6484 137.654 76 137.654C92.3516 137.654 108.033 131.158 119.596 119.596C131.158 108.033 137.654 92.3516 137.654 76H150Z" fill="url(#paint1_linear_126_1805)"/>
</g>
<g opacity="0.5">
<path d="M113 76C113 85.813 109.102 95.2241 102.163 102.163C95.2241 109.102 85.813 113 76 113C66.187 113 56.7759 109.102 49.8371 102.163C42.8982 95.2241 39 85.813 39 76H54.08C54.08 81.8136 56.3894 87.389 60.5002 91.4998C64.611 95.6106 70.1864 97.92 76 97.92C81.8136 97.92 87.389 95.6106 91.4998 91.4998C95.6106 87.389 97.92 81.8136 97.92 76H113Z" fill="#D9D9D9"/>
<path d="M113 76C113 85.813 109.102 95.2241 102.163 102.163C95.2241 109.102 85.813 113 76 113C66.187 113 56.7759 109.102 49.8371 102.163C42.8982 95.2241 39 85.813 39 76H54.08C54.08 81.8136 56.3894 87.389 60.5002 91.4998C64.611 95.6106 70.1864 97.92 76 97.92C81.8136 97.92 87.389 95.6106 91.4998 91.4998C95.6106 87.389 97.92 81.8136 97.92 76H113Z" fill="url(#paint2_linear_126_1805)"/>
</g>
<path d="M113 76C113 85.813 109.102 95.2241 102.163 102.163C95.2241 109.102 85.813 113 76 113C66.187 113 56.7759 109.102 49.8371 102.163C42.8982 95.2241 39 85.813 39 76H54.08C54.08 81.8136 56.3894 87.389 60.5002 91.4998C64.611 95.6106 70.1864 97.92 76 97.92C81.8136 97.92 87.389 95.6106 91.4998 91.4998C95.6106 87.389 97.92 81.8136 97.92 76H113Z" fill="#D9D9D9"/>
<path d="M113 76C113 85.813 109.102 95.2241 102.163 102.163C95.2241 109.102 85.813 113 76 113C66.187 113 56.7759 109.102 49.8371 102.163C42.8982 95.2241 39 85.813 39 76H54.08C54.08 81.8136 56.3894 87.389 60.5002 91.4998C64.611 95.6106 70.1864 97.92 76 97.92C81.8136 97.92 87.389 95.6106 91.4998 91.4998C95.6106 87.389 97.92 81.8136 97.92 76H113Z" fill="url(#paint3_linear_126_1805)"/>
</g>
<path d="M15 5.5C19.6003 9.46665 19.011 27.6716 24.0039 34.8151C24.0941 34.9442 24.1983 35.0546 24.3189 35.1558C27.6763 37.9731 34.4351 43.0857 39.7872 45.5252M56.0184 59.9289C55.666 59.4637 53.3293 56.89 52.0117 55.4496C51.8617 55.2855 51.6865 55.1525 51.5005 55.0306C49.6497 53.8169 45.7577 49.6394 43.6114 47.216C43.3259 46.8936 42.9449 46.6743 42.53 46.5585C41.681 46.3216 40.7572 45.9673 39.7872 45.5252M56.0184 59.9289C54.0625 59.9289 53.1283 59.9289 48.3115 57.9326C44.4581 56.3356 41.023 48.9956 39.7872 45.5252M56.0184 59.9289C56.1876 60.1522 57.6024 62.4489 59.6183 65.3305M62.5284 31.9519C61.2465 32.9084 60.4192 35.8681 60.0707 37.7023C59.9907 38.1233 60.0672 38.5564 60.2719 38.9329C60.4327 39.2289 60.6073 39.5453 60.7937 39.8782M60.7937 39.8782C62.2235 39.1956 64.2124 38.0957 66.2943 36.6977M60.7937 39.8782C61.4734 41.0916 62.3119 42.5243 63.2274 43.9882M75.9571 26.3448C74.52 30.3267 70.2403 34.0479 66.2943 36.6977M66.2943 36.6977C67.0007 38.2811 68.4572 40.0279 70.3229 41.1414M82.1751 36.6977C81.1444 38.3588 80.0727 39.5897 78.9931 40.4673M78.9931 40.4673C77.3066 41.8383 75.6007 42.3474 74.0012 42.2881M78.9931 40.4673C78.5878 41.849 79.1032 45.3772 83.8683 49.2748M88.5684 67.9139C89.0064 69.6674 89.9636 73.0841 90.6977 74.4731C90.8768 74.8119 91.0629 75.1592 91.1271 75.537C91.4799 77.6131 91.4274 79.2751 91.1398 80.5889M88.5684 67.9139C88.5044 67.7631 88.4223 67.5992 88.3211 67.4255M88.5684 67.9139L88.3211 67.4255M91.0206 80.5079C91.0569 80.5344 91.0967 80.5615 91.1398 80.5889M56.0184 1L86.7052 26.253C86.7795 26.3141 86.8495 26.3803 86.9133 26.4523C89.3444 29.1973 90.4446 33.1813 92.5 36.6977C95.1493 41.0807 96.3375 48.7462 96.227 50.5487C96.2155 50.7359 96.1873 50.9218 96.1887 51.1093C96.2217 55.5017 97 62.406 97 67C97 68.7218 96.9866 71.7678 96.7756 74.4898M59.6183 65.3305C63.1664 70.4021 68.5768 77.2855 72.3372 77.8658C74.5059 78.2005 76.2443 77.5862 77.5304 76.48M59.6183 65.3305C58.6196 65.8002 56.9219 68.2897 58.1203 74.4898M58.1203 74.4898C59.6183 82.24 62.0613 84.2069 67.462 86.1444C71.9017 87.7372 82.753 86.8303 86.4741 85.6579C87.3475 85.3828 88.4066 84.7382 89.1177 84.1612C89.9407 83.4933 90.7529 82.3561 91.1398 80.5889M58.1203 74.4898C51.7469 74.5792 31.4 75.5323 1 78.6291M77.2415 62.3068C76.7041 61.335 76.1167 60.3428 75.5007 59.3711M77.2415 62.3068C78.2172 64.071 79.0284 65.7676 79.5478 67.1513M77.2415 62.3068C83.8715 62.4788 87.2209 65.5363 88.3211 67.4255M74.0012 42.2881C73.5049 43.9882 73.9207 50.4598 79.5478 50.3145M74.0012 42.2881C72.6787 42.239 71.4289 41.8015 70.3229 41.1414M83.8683 49.2748C84.1183 49.4793 84.3799 49.6847 84.6537 49.891C85.1782 50.2859 85.5003 50.8946 85.5097 51.551C85.565 55.4419 85.9759 61.8065 87.2737 64.2699C87.5222 64.7414 87.751 65.2486 87.751 65.7816V65.8219C87.751 66.1357 87.8248 66.4452 87.9666 66.7252L88.3211 67.4255M83.8683 49.2748C82.1032 49.9724 80.6875 50.285 79.5478 50.3145M79.5478 50.3145C77.762 50.6912 74.1161 52.531 73.8185 56.8758M73.8185 56.8758C72.3925 54.8932 70.9189 53.1832 69.6222 52.1787C68.3404 51.1856 66.8188 49.3081 65.3362 47.1881M73.8185 56.8758C74.3918 57.6729 74.9574 58.514 75.5007 59.3711M75.5007 59.3711C76.6357 59.4689 79.4018 60.1931 81.3869 62.3068M65.3362 47.1881C67.2417 47.1685 71.5431 47.8691 73.5049 50.8283M65.3362 47.1881C64.6133 46.1543 63.8996 45.0628 63.2274 43.9882M63.2274 43.9882C64.1524 42.9906 66.8664 41.0246 70.3229 41.1414M77.5304 76.48C79.7414 74.5783 80.6162 71.2229 80.0441 68.7359C79.9387 68.2777 79.7699 67.7432 79.5478 67.1513M77.5304 76.48C79.0689 77.4997 83.9342 78.7614 84.9193 74.9595C85.9994 70.7908 84.9193 66.2993 79.5478 67.1513M91.1398 80.5889C91.7241 80.9599 92.9068 81.3766 94.2765 81.021C95.051 80.82 96.0385 80.4066 96.1267 79.6113C96.1476 79.4224 96.1601 79.1992 96.1616 78.9365C96.1627 78.7333 96.1885 78.5302 96.2378 78.333C96.4927 77.3141 96.6626 75.9485 96.7756 74.4898M96.7756 74.4898C110.517 75.2163 140.4 77.0613 150 78.6291" stroke="#164879" stroke-width="1.5"/>
<defs>
<linearGradient id="paint0_linear_126_1805" x1="41.6604" y1="32.1509" x2="120.906" y2="143.623" gradientUnits="userSpaceOnUse">
<stop stop-color="#ED1E79"/>
<stop offset="1" stop-color="#164879"/>
</linearGradient>
<linearGradient id="paint1_linear_126_1805" x1="30.6226" y1="18.0566" x2="135.34" y2="165.358" gradientUnits="userSpaceOnUse">
<stop stop-color="#ED1E79"/>
<stop offset="1" stop-color="#164879"/>
</linearGradient>
<linearGradient id="paint2_linear_126_1805" x1="53.3113" y1="47.0283" x2="105.67" y2="120.679" gradientUnits="userSpaceOnUse">
<stop stop-color="#ED1E79"/>
<stop offset="1" stop-color="#164879"/>
</linearGradient>
<linearGradient id="paint3_linear_126_1805" x1="53.3113" y1="47.0283" x2="105.67" y2="120.679" gradientUnits="userSpaceOnUse">
<stop stop-color="#ED1E79"/>
<stop offset="1" stop-color="#164879"/>
</linearGradient>
</defs>
</svg>
