<svg width="24" height="25" viewBox="0 0 24 25" fill="none" xmlns="http://www.w3.org/2000/svg">
<rect y="0.5" width="24" height="24" rx="7.2" fill="#164879" fill-opacity="0.1"/>
<path opacity="0.4" d="M16.5495 14.6938C16.5035 15.4457 16.4669 16.0424 16.3921 16.519C16.3153 17.0078 16.1924 17.4149 15.9466 17.7709C15.7217 18.0966 15.4322 18.3716 15.0965 18.5781C14.7294 18.804 14.3196 18.9027 13.8318 18.95L10.1564 18.9499C9.66809 18.9026 9.25782 18.8036 8.89055 18.5774C8.55457 18.3704 8.26495 18.095 8.04016 17.7687C7.79443 17.4121 7.67192 17.0045 7.59573 16.515C7.52143 16.0377 7.48573 15.4401 7.44072 14.6871L7.04999 8.14996H16.95L16.5495 14.6938Z" fill="#164879"/>
<path fill-rule="evenodd" clip-rule="evenodd" d="M10.5 16.0789C10.2515 16.0789 10.05 15.8774 10.05 15.6289V12.0289C10.05 11.7803 10.2515 11.5789 10.5 11.5789C10.7485 11.5789 10.95 11.7803 10.95 12.0289V15.6289C10.95 15.8774 10.7485 16.0789 10.5 16.0789Z" fill="#164879"/>
<path fill-rule="evenodd" clip-rule="evenodd" d="M13.5 11.5789C13.7485 11.5789 13.95 11.7803 13.95 12.0289V15.6289C13.95 15.8774 13.7485 16.0789 13.5 16.0789C13.2515 16.0789 13.05 15.8774 13.05 15.6289V12.0289C13.05 11.7803 13.2515 11.5789 13.5 11.5789Z" fill="#164879"/>
<path fill-rule="evenodd" clip-rule="evenodd" d="M12.8084 6.06965C13.1474 6.09997 13.4661 6.20344 13.7398 6.40753C13.9421 6.55847 14.0827 6.74324 14.2028 6.94334C14.3141 7.12877 14.4262 7.35997 14.5533 7.62223L14.8094 8.15041H17.4C17.7314 8.15041 18 8.41904 18 8.75041C18 9.08178 17.7314 9.35041 17.4 9.35041C13.7999 9.35041 10.2001 9.35041 6.6 9.35041C6.26863 9.35041 6 9.08178 6 8.75041C6 8.41904 6.26863 8.15041 6.6 8.15041H9.24586L9.45934 7.68208C9.58327 7.41016 9.69242 7.17068 9.80206 6.97851C9.92032 6.77123 10.0603 6.57941 10.2652 6.42226C10.5422 6.20974 10.8673 6.102 11.2139 6.07044C11.4749 6.04668 11.738 6.04995 12 6.05037C12.3065 6.05086 12.582 6.0494 12.8084 6.06965ZM10.5647 8.15041H13.4758C13.3398 7.86997 13.2528 7.69223 13.174 7.56091C13.0586 7.36871 12.9203 7.28446 12.7015 7.26488C12.5459 7.25096 12.3431 7.25041 12.0207 7.25041C11.6902 7.25041 11.4822 7.25098 11.3227 7.2655C11.0983 7.28593 10.9583 7.37339 10.8443 7.57318C10.7696 7.70411 10.6883 7.87937 10.5647 8.15041Z" fill="#164879"/>
</svg>
