<svg width="40" height="40" viewBox="0 0 40 40" fill="none" xmlns="http://www.w3.org/2000/svg">
<rect width="40" height="40" rx="12" fill="#164879" fill-opacity="0.1"/>
<path d="M25.8063 22.8372C25.9226 22.9064 26.0663 22.9875 26.229 23.0793C26.9418 23.4814 28.0193 24.0893 28.7575 24.8118C29.2191 25.2637 29.6578 25.8592 29.7375 26.5888C29.8223 27.3646 29.4839 28.0927 28.8048 28.7396C27.6334 29.8556 26.2276 30.75 24.4093 30.75H15.591C13.7727 30.75 12.3669 29.8556 11.1955 28.7396C10.5165 28.0927 10.178 27.3646 10.2628 26.5888C10.3426 25.8592 10.7812 25.2637 11.2429 24.8118C11.9811 24.0893 13.0586 23.4814 13.7714 23.0793C13.934 22.9876 14.0777 22.9064 14.194 22.8372C17.7481 20.7209 22.2523 20.7209 25.8063 22.8372Z" fill="#164879"/>
<path opacity="0.4" d="M14.75 14.5C14.75 11.6005 17.1005 9.25 20 9.25C22.8995 9.25 25.25 11.6005 25.25 14.5C25.25 17.3995 22.8995 19.75 20 19.75C17.1005 19.75 14.75 17.3995 14.75 14.5Z" fill="#164879"/>
</svg>
